<?xml version="1.0" encoding="UTF-8" standalone="no"?>
<!DOCTYPE svg PUBLIC "-//W3C//DTD SVG 1.0//EN" "http://www.w3.org/TR/2001/PR-SVG-20010719/DTD/svg10.dtd">
<svg width="36cm" height="31cm" viewBox="100 -113 706 605" xmlns="http://www.w3.org/2000/svg" xmlns:xlink="http://www.w3.org/1999/xlink">
  <g id="Background">
    <g>
      <path style="fill: none; stroke-opacity: 1; stroke-width: 0.8; stroke: #00aed9" d="M 297.959 272.272 L 297.959,229.129"/>
      <path style="fill: none; stroke-opacity: 1; stroke-width: 4; stroke: #00aed9" d="M 297.959 271.576 L 297.959,241.982"/>
      <path style="fill: #000000; fill-opacity: 1; stroke: none" fill-rule="evenodd" d="M 299.212 233.274 L 296.574,233.274 L 296.574,228 L 299.212,228 L 299.212,233.274z"/>
      <path style="fill: none; stroke-opacity: 1; stroke-width: 2; stroke: #00aed9" d="M 299.212 233.274 L 296.574,233.274 L 296.574,228 L 299.212,228 L 299.212,233.274"/>
      <path style="fill: none; stroke-opacity: 1; stroke-width: 0.8; stroke: #00aed9" d="M 234.008 272.272 L 234.008,229.129"/>
      <path style="fill: none; stroke-opacity: 1; stroke-width: 4; stroke: #00aed9" d="M 234.008 271.576 L 234.008,241.982"/>
      <path style="fill: #000000; fill-opacity: 1; stroke: none" fill-rule="evenodd" d="M 235.261 233.274 L 232.624,233.274 L 232.624,228 L 235.261,228 L 235.261,233.274z"/>
      <path style="fill: none; stroke-opacity: 1; stroke-width: 2; stroke: #00aed9" d="M 235.261 233.274 L 232.624,233.274 L 232.624,228 L 235.261,228 L 235.261,233.274"/>
      <path style="fill: #00aed9; fill-opacity: 1; stroke: none" fill-rule="evenodd" d="M 315.847 277.75 C 315.847,288.166 294.132,296.611 267.344,296.611 C 240.556,296.611 218.842,288.166 218.842,277.75 L 218.842,305.376 C 218.842,315.796 240.556,324.24 267.344,324.24 C 294.132,324.24 315.847,315.796 315.847,305.376 L 315.847,277.75z"/>
      <path style="fill: none; stroke-opacity: 1; stroke-width: 0.8; stroke: #ffffff" d="M 315.847 277.75 C 315.847,288.166 294.132,296.611 267.344,296.611 C 240.556,296.611 218.842,288.166 218.842,277.75 L 218.842,305.376 C 218.842,315.796 240.556,324.24 267.344,324.24 C 294.132,324.24 315.847,315.796 315.847,305.376 L 315.847,277.75"/>
      <path style="fill: #00aed9; fill-opacity: 1; stroke: none" fill-rule="evenodd" d="M 267.344 296.611 C 294.132,296.611 315.847,288.166 315.847,277.75 C 315.847,267.33 294.132,258.886 267.344,258.886 C 240.556,258.886 218.842,267.33 218.842,277.75 C 218.842,288.166 240.556,296.611 267.344,296.611z"/>
      <path style="fill: none; stroke-opacity: 1; stroke-width: 0.8; stroke: #ffffff" d="M 267.344 296.611 C 294.132,296.611 315.847,288.166 315.847,277.75 C 315.847,267.33 294.132,258.886 267.344,258.886 C 240.556,258.886 218.842,267.33 218.842,277.75 C 218.842,288.166 240.556,296.611 267.344,296.611"/>
      <path style="fill: #ffffff; fill-opacity: 1; stroke: none" fill-rule="evenodd" d="M 256.268 270.374 L 260.274,276.381 L 245.132,279.88 L 248.439,277.127 L 225.034,273.127 L 230.907,268.725 L 253.489,272.549 L 256.268,270.374z"/>
      <path style="fill: #ffffff; fill-opacity: 1; stroke: none" fill-rule="evenodd" d="M 277.579 284.941 L 274.844,278.749 L 288.502,276.02 L 286.134,278.14 L 308.9,282.03 L 303.441,286.399 L 280.807,282.151 L 277.579,284.941z"/>
      <path style="fill: #ffffff; fill-opacity: 1; stroke: none" fill-rule="evenodd" d="M 270.108 267.093 L 285.409,262.905 L 285.588,269.464 L 281.767,268.733 L 274.296,274.925 L 267.173,273.886 L 274.879,267.829 L 270.108,267.093z"/>
      <path style="fill: #ffffff; fill-opacity: 1; stroke: none" fill-rule="evenodd" d="M 263.552 290.59 L 248.985,293.319 L 248.439,286.584 L 252.624,287.491 L 260.643,280.643 L 267.743,281.845 L 259.182,289.314 L 263.552,290.59z"/>
    </g>
    <g>
      <path style="fill: #b7b79d; fill-opacity: 1; stroke: none" fill-rule="evenodd" d="M 240.734 109.224 L 240.734,133 L 292.907,133 L 292.907,109.224 L 240.734,109.224z"/>
      <path style="fill: none; stroke-opacity: 1; stroke-width: 0.02; stroke: #494936" d="M 240.734 109.224 L 240.734,132.658 L 292.907,132.658 L 292.907,109.224 L 240.734,109.224"/>
      <path style="fill: #7a7a5a; fill-opacity: 1; stroke: none" fill-rule="evenodd" d="M 292.907 133 L 292.907,109.224 L 309.268,93 L 309.268,116.765 L 292.907,133z"/>
      <path style="fill: none; stroke-opacity: 1; stroke-width: 0.02; stroke: #494936" d="M 292.907 132.658 L 292.907,109.224 L 309.074,93.194 L 309.074,116.97 L 293.238,132.658 L 292.907,132.658"/>
      <path style="fill: #c9c9b6; fill-opacity: 1; stroke: none" fill-rule="evenodd" d="M 240.734 109.224 L 256.741,93 L 309.268,93 L 292.907,109.224 L 240.734,109.224z"/>
      <path style="fill: none; stroke-opacity: 1; stroke-width: 0.02; stroke: #494936" d="M 240.734 109.224 L 256.741,93 L 309.074,93 L 309.074,93.194 L 292.907,109.224 L 240.734,109.224"/>
      <path style="fill: #ff000c; fill-opacity: 1; stroke: none" fill-rule="evenodd" d="M 251.39 121.272 L 251.39,121.112 L 251.356,120.929 L 251.344,120.758 L 251.299,120.598 L 251.276,120.427 L 251.219,120.256 L 251.173,120.096 L 251.105,119.937 L 251.036,119.777 L 250.956,119.617 L 250.854,119.469 L 250.774,119.332 L 250.671,119.207 L 250.569,119.081 L 250.443,118.933 L 250.318,118.807 L 250.192,118.705 L 250.055,118.579 L 249.918,118.488 L 249.781,118.385 L 249.633,118.317 L 249.473,118.225 L 249.302,118.168 L 249.142,118.1 L 248.983,118.031 L 248.823,117.986 L 248.652,117.94 L 248.492,117.917 L 248.298,117.906 L 248.138,117.883 L 247.967,117.883 L 247.967,117.883 L 247.785,117.883 L 247.625,117.906 L 247.431,117.917 L 247.271,117.94 L 247.112,117.986 L 246.929,118.031 L 246.781,118.1 L 246.61,118.168 L 246.45,118.225 L 246.29,118.317 L 246.153,118.385 L 246.005,118.488 L 245.868,118.579 L 245.731,118.705 L 245.594,118.807 L 245.48,118.933 L 245.366,119.081 L 245.252,119.207 L 245.149,119.332 L 245.069,119.469 L 244.967,119.617 L 244.898,119.777 L 244.807,119.937 L 244.761,120.096 L 244.704,120.256 L 244.647,120.427 L 244.613,120.598 L 244.579,120.758 L 244.567,120.929 L 244.545,121.112 L 244.545,121.272 L 244.545,121.272 L 244.545,121.454 L 244.567,121.614 L 244.579,121.785 L 244.613,121.967 L 244.647,122.127 L 244.704,122.287 L 244.761,122.447 L 244.807,122.606 L 244.898,122.766 L 244.967,122.926 L 245.069,123.074 L 245.149,123.211 L 245.252,123.359 L 245.366,123.485 L 245.48,123.61 L 245.594,123.736 L 245.731,123.85 L 245.868,123.964 L 246.005,124.055 L 246.153,124.158 L 246.29,124.249 L 246.45,124.318 L 246.61,124.386 L 246.781,124.466 L 246.929,124.5 L 247.112,124.569 L 247.271,124.603 L 247.431,124.626 L 247.625,124.66 L 247.785,124.671 L 247.967,124.671 L 247.967,124.671 L 248.138,124.671 L 248.298,124.66 L 248.492,124.626 L 248.652,124.603 L 248.823,124.569 L 248.983,124.5 L 249.142,124.466 L 249.302,124.386 L 249.473,124.318 L 249.633,124.249 L 249.781,124.158 L 249.918,124.055 L 250.055,123.964 L 250.192,123.85 L 250.318,123.736 L 250.443,123.61 L 250.569,123.485 L 250.671,123.359 L 250.774,123.211 L 250.854,123.074 L 250.956,122.926 L 251.036,122.766 L 251.105,122.606 L 251.173,122.447 L 251.219,122.287 L 251.276,122.127 L 251.299,121.967 L 251.344,121.785 L 251.356,121.614 L 251.39,121.454 L 251.39,121.272z"/>
      <path style="fill: none; stroke-opacity: 1; stroke-width: 0.02; stroke: #550000" d="M 251.014 120.918 L 251.014,120.735 L 251.002,120.576 L 250.979,120.393 L 250.956,120.233 L 250.922,120.062 L 250.865,119.902 L 250.797,119.743 L 250.763,119.572 L 250.671,119.435 L 250.58,119.252 L 250.5,119.115 L 250.409,118.967 L 250.295,118.83 L 250.203,118.705 L 250.101,118.579 L 249.964,118.454 L 249.827,118.328 L 249.701,118.225 L 249.553,118.134 L 249.416,118.031 L 249.279,117.94 L 249.12,117.849 L 248.96,117.792 L 248.789,117.723 L 248.629,117.689 L 248.469,117.632 L 248.287,117.598 L 248.116,117.564 L 247.933,117.529 L 247.773,117.507 L 247.591,117.507 L 247.591,117.507 L 247.431,117.507 L 247.249,117.529 L 247.077,117.564 L 246.906,117.598 L 246.724,117.632 L 246.575,117.689 L 246.404,117.723 L 246.233,117.792 L 246.073,117.849 L 245.937,117.94 L 245.788,118.031 L 245.64,118.134 L 245.503,118.225 L 245.366,118.328 L 245.252,118.454 L 245.115,118.579 L 245.001,118.705 L 244.898,118.83 L 244.784,118.967 L 244.693,119.115 L 244.59,119.252 L 244.51,119.435 L 244.442,119.572 L 244.396,119.743 L 244.339,119.902 L 244.294,120.062 L 244.259,120.233 L 244.225,120.393 L 244.191,120.576 L 244.168,120.735 L 244.168,120.918 L 244.168,120.918 L 244.168,121.078 L 244.191,121.249 L 244.225,121.431 L 244.259,121.591 L 244.294,121.774 L 244.339,121.933 L 244.396,122.093 L 244.442,122.253 L 244.51,122.412 L 244.59,122.572 L 244.693,122.709 L 244.784,122.857 L 244.898,122.994 L 245.001,123.12 L 245.115,123.268 L 245.252,123.394 L 245.366,123.485 L 245.503,123.61 L 245.64,123.69 L 245.788,123.804 L 245.937,123.873 L 246.073,123.964 L 246.233,124.033 L 246.404,124.09 L 246.575,124.158 L 246.724,124.192 L 246.906,124.249 L 247.077,124.261 L 247.249,124.306 L 247.431,124.306 L 247.591,124.306 L 247.591,124.306 L 247.773,124.306 L 247.933,124.306 L 248.116,124.261 L 248.287,124.249 L 248.469,124.192 L 248.629,124.158 L 248.789,124.09 L 248.96,124.033 L 249.12,123.964 L 249.279,123.873 L 249.416,123.804 L 249.553,123.69 L 249.701,123.61 L 249.827,123.485 L 249.964,123.394 L 250.101,123.268 L 250.203,123.12 L 250.295,122.994 L 250.409,122.857 L 250.5,122.709 L 250.58,122.572 L 250.671,122.412 L 250.763,122.253 L 250.797,122.093 L 250.865,121.933 L 250.922,121.774 L 250.956,121.591 L 250.979,121.431 L 251.002,121.249 L 251.014,121.078 L 251.014,120.918"/>
      <path style="fill: #ff000c; fill-opacity: 1; stroke: none" fill-rule="evenodd" d="M 260.905 121.272 L 260.905,121.112 L 260.894,120.929 L 260.882,120.758 L 260.837,120.598 L 260.814,120.427 L 260.768,120.256 L 260.7,120.096 L 260.654,119.937 L 260.586,119.777 L 260.517,119.617 L 260.415,119.469 L 260.335,119.332 L 260.243,119.207 L 260.129,119.081 L 260.038,118.933 L 259.913,118.807 L 259.776,118.705 L 259.662,118.579 L 259.536,118.488 L 259.388,118.385 L 259.251,118.317 L 259.103,118.225 L 258.954,118.168 L 258.806,118.1 L 258.658,118.031 L 258.486,117.986 L 258.338,117.94 L 258.178,117.917 L 258.019,117.906 L 257.848,117.883 L 257.688,117.883 L 257.688,117.883 L 257.528,117.883 L 257.346,117.906 L 257.197,117.917 L 257.037,117.94 L 256.878,117.986 L 256.707,118.031 L 256.558,118.1 L 256.421,118.168 L 256.273,118.225 L 256.125,118.317 L 255.976,118.385 L 255.84,118.488 L 255.703,118.579 L 255.577,118.705 L 255.463,118.807 L 255.338,118.933 L 255.235,119.081 L 255.132,119.207 L 255.029,119.332 L 254.95,119.469 L 254.847,119.617 L 254.778,119.777 L 254.71,119.937 L 254.664,120.096 L 254.607,120.256 L 254.562,120.427 L 254.505,120.598 L 254.493,120.758 L 254.482,120.929 L 254.459,121.112 L 254.459,121.272 L 254.459,121.272 L 254.459,121.454 L 254.482,121.614 L 254.493,121.785 L 254.505,121.967 L 254.562,122.127 L 254.607,122.287 L 254.664,122.447 L 254.71,122.606 L 254.778,122.766 L 254.847,122.926 L 254.95,123.074 L 255.029,123.211 L 255.132,123.359 L 255.235,123.485 L 255.338,123.61 L 255.463,123.736 L 255.577,123.85 L 255.703,123.964 L 255.84,124.055 L 255.976,124.158 L 256.125,124.249 L 256.273,124.318 L 256.421,124.386 L 256.558,124.466 L 256.707,124.5 L 256.878,124.569 L 257.037,124.603 L 257.197,124.626 L 257.346,124.66 L 257.528,124.671 L 257.688,124.671 L 257.688,124.671 L 257.848,124.671 L 258.019,124.66 L 258.178,124.626 L 258.338,124.603 L 258.486,124.569 L 258.658,124.5 L 258.806,124.466 L 258.954,124.386 L 259.103,124.318 L 259.251,124.249 L 259.388,124.158 L 259.536,124.055 L 259.662,123.964 L 259.776,123.85 L 259.913,123.736 L 260.038,123.61 L 260.129,123.485 L 260.243,123.359 L 260.335,123.211 L 260.415,123.074 L 260.517,122.926 L 260.586,122.766 L 260.654,122.606 L 260.7,122.447 L 260.768,122.287 L 260.814,122.127 L 260.837,121.967 L 260.882,121.785 L 260.894,121.614 L 260.905,121.454 L 260.905,121.272z"/>
      <path style="fill: none; stroke-opacity: 1; stroke-width: 0.02; stroke: #550000" d="M 260.551 120.918 L 260.551,120.735 L 260.529,120.576 L 260.529,120.393 L 260.483,120.233 L 260.449,120.062 L 260.403,119.902 L 260.346,119.743 L 260.312,119.572 L 260.232,119.435 L 260.175,119.252 L 260.095,119.115 L 260.015,118.967 L 259.913,118.83 L 259.833,118.705 L 259.707,118.579 L 259.605,118.454 L 259.479,118.328 L 259.376,118.225 L 259.239,118.134 L 259.114,118.031 L 258.988,117.94 L 258.84,117.849 L 258.703,117.792 L 258.566,117.723 L 258.418,117.689 L 258.27,117.632 L 258.11,117.598 L 257.962,117.564 L 257.802,117.529 L 257.665,117.507 L 257.494,117.507 L 257.494,117.507 L 257.346,117.507 L 257.197,117.529 L 257.037,117.564 L 256.889,117.598 L 256.741,117.632 L 256.604,117.689 L 256.421,117.723 L 256.284,117.792 L 256.148,117.849 L 256.022,117.94 L 255.897,118.031 L 255.771,118.134 L 255.634,118.225 L 255.497,118.328 L 255.395,118.454 L 255.28,118.579 L 255.178,118.705 L 255.075,118.83 L 254.995,118.967 L 254.915,119.115 L 254.836,119.252 L 254.767,119.435 L 254.687,119.572 L 254.63,119.743 L 254.596,119.902 L 254.55,120.062 L 254.505,120.233 L 254.482,120.393 L 254.47,120.576 L 254.459,120.735 L 254.459,120.918 L 254.459,120.918 L 254.459,121.078 L 254.47,121.249 L 254.482,121.431 L 254.505,121.591 L 254.55,121.774 L 254.596,121.933 L 254.63,122.093 L 254.687,122.253 L 254.767,122.412 L 254.836,122.572 L 254.915,122.709 L 254.995,122.857 L 255.075,122.994 L 255.178,123.12 L 255.28,123.268 L 255.395,123.394 L 255.497,123.485 L 255.634,123.61 L 255.771,123.69 L 255.897,123.804 L 256.022,123.873 L 256.148,123.964 L 256.284,124.033 L 256.421,124.09 L 256.604,124.158 L 256.741,124.192 L 256.889,124.249 L 257.037,124.261 L 257.197,124.306 L 257.346,124.306 L 257.494,124.306 L 257.494,124.306 L 257.665,124.306 L 257.802,124.306 L 257.962,124.261 L 258.11,124.249 L 258.27,124.192 L 258.418,124.158 L 258.566,124.09 L 258.703,124.033 L 258.84,123.964 L 258.988,123.873 L 259.114,123.804 L 259.239,123.69 L 259.376,123.61 L 259.479,123.485 L 259.605,123.394 L 259.707,123.268 L 259.833,123.12 L 259.913,122.994 L 260.015,122.857 L 260.095,122.709 L 260.175,122.572 L 260.232,122.412 L 260.312,122.253 L 260.346,122.093 L 260.403,121.933 L 260.449,121.774 L 260.483,121.591 L 260.529,121.431 L 260.529,121.249 L 260.551,121.078 L 260.551,120.918"/>
      <path style="fill: #ff000c; fill-opacity: 1; stroke: none" fill-rule="evenodd" d="M 270.797 121.272 L 270.797,121.112 L 270.763,120.929 L 270.751,120.758 L 270.728,120.598 L 270.683,120.427 L 270.637,120.256 L 270.591,120.096 L 270.523,119.937 L 270.443,119.777 L 270.375,119.617 L 270.261,119.469 L 270.181,119.332 L 270.089,119.207 L 269.964,119.081 L 269.861,118.933 L 269.736,118.807 L 269.61,118.705 L 269.462,118.579 L 269.325,118.488 L 269.188,118.385 L 269.04,118.317 L 268.88,118.225 L 268.732,118.168 L 268.549,118.1 L 268.401,118.031 L 268.23,117.986 L 268.07,117.94 L 267.899,117.917 L 267.716,117.906 L 267.545,117.883 L 267.374,117.883 L 267.374,117.883 L 267.192,117.883 L 267.032,117.906 L 266.861,117.917 L 266.69,117.94 L 266.53,117.986 L 266.359,118.031 L 266.188,118.1 L 266.028,118.168 L 265.879,118.225 L 265.72,118.317 L 265.549,118.385 L 265.412,118.488 L 265.275,118.579 L 265.149,118.705 L 265.024,118.807 L 264.898,118.933 L 264.761,119.081 L 264.67,119.207 L 264.579,119.332 L 264.476,119.469 L 264.385,119.617 L 264.305,119.777 L 264.237,119.937 L 264.168,120.096 L 264.111,120.256 L 264.054,120.427 L 264.031,120.598 L 263.986,120.758 L 263.974,120.929 L 263.951,121.112 L 263.951,121.272 L 263.951,121.272 L 263.951,121.454 L 263.974,121.614 L 263.986,121.785 L 264.031,121.967 L 264.054,122.127 L 264.111,122.287 L 264.168,122.447 L 264.237,122.606 L 264.305,122.766 L 264.385,122.926 L 264.476,123.074 L 264.579,123.211 L 264.67,123.359 L 264.761,123.485 L 264.898,123.61 L 265.024,123.736 L 265.149,123.85 L 265.275,123.964 L 265.412,124.055 L 265.549,124.158 L 265.72,124.249 L 265.879,124.318 L 266.028,124.386 L 266.188,124.466 L 266.359,124.5 L 266.53,124.569 L 266.69,124.603 L 266.861,124.626 L 267.032,124.66 L 267.192,124.671 L 267.374,124.671 L 267.374,124.671 L 267.545,124.671 L 267.716,124.66 L 267.899,124.626 L 268.07,124.603 L 268.23,124.569 L 268.401,124.5 L 268.549,124.466 L 268.732,124.386 L 268.88,124.318 L 269.04,124.249 L 269.188,124.158 L 269.325,124.055 L 269.462,123.964 L 269.61,123.85 L 269.736,123.736 L 269.861,123.61 L 269.964,123.485 L 270.089,123.359 L 270.181,123.211 L 270.261,123.074 L 270.375,122.926 L 270.443,122.766 L 270.523,122.606 L 270.591,122.447 L 270.637,122.287 L 270.683,122.127 L 270.728,121.967 L 270.751,121.785 L 270.763,121.614 L 270.797,121.454 L 270.797,121.272z"/>
      <path style="fill: none; stroke-opacity: 1; stroke-width: 0.02; stroke: #550000" d="M 270.443 120.918 L 270.443,120.735 L 270.432,120.576 L 270.397,120.393 L 270.363,120.233 L 270.318,120.062 L 270.261,119.902 L 270.226,119.743 L 270.169,119.572 L 270.101,119.435 L 270.01,119.252 L 269.93,119.115 L 269.827,118.967 L 269.724,118.83 L 269.61,118.705 L 269.496,118.579 L 269.371,118.454 L 269.245,118.328 L 269.108,118.225 L 268.971,118.134 L 268.823,118.031 L 268.675,117.94 L 268.526,117.849 L 268.367,117.792 L 268.195,117.723 L 268.036,117.689 L 267.876,117.632 L 267.693,117.598 L 267.534,117.564 L 267.363,117.529 L 267.192,117.507 L 267.02,117.507 L 267.02,117.507 L 266.838,117.507 L 266.678,117.529 L 266.507,117.564 L 266.324,117.598 L 266.153,117.632 L 265.982,117.689 L 265.822,117.723 L 265.674,117.792 L 265.503,117.849 L 265.332,117.94 L 265.195,118.031 L 265.058,118.134 L 264.91,118.225 L 264.773,118.328 L 264.647,118.454 L 264.522,118.579 L 264.408,118.705 L 264.305,118.83 L 264.202,118.967 L 264.111,119.115 L 264.031,119.252 L 263.94,119.435 L 263.849,119.572 L 263.803,119.743 L 263.746,119.902 L 263.689,120.062 L 263.655,120.233 L 263.62,120.393 L 263.609,120.576 L 263.598,120.735 L 263.598,120.918 L 263.598,120.918 L 263.598,121.078 L 263.609,121.249 L 263.62,121.431 L 263.655,121.591 L 263.689,121.774 L 263.746,121.933 L 263.803,122.093 L 263.849,122.253 L 263.94,122.412 L 264.031,122.572 L 264.111,122.709 L 264.202,122.857 L 264.305,122.994 L 264.408,123.12 L 264.522,123.268 L 264.647,123.394 L 264.773,123.485 L 264.91,123.61 L 265.058,123.69 L 265.195,123.804 L 265.332,123.873 L 265.503,123.964 L 265.674,124.033 L 265.822,124.09 L 265.982,124.158 L 266.153,124.192 L 266.324,124.249 L 266.507,124.261 L 266.678,124.306 L 266.838,124.306 L 267.02,124.306 L 267.02,124.306 L 267.192,124.306 L 267.363,124.306 L 267.534,124.261 L 267.693,124.249 L 267.876,124.192 L 268.036,124.158 L 268.195,124.09 L 268.367,124.033 L 268.526,123.964 L 268.675,123.873 L 268.823,123.804 L 268.971,123.69 L 269.108,123.61 L 269.245,123.485 L 269.371,123.394 L 269.496,123.268 L 269.61,123.12 L 269.724,122.994 L 269.827,122.857 L 269.93,122.709 L 270.01,122.572 L 270.101,122.412 L 270.169,122.253 L 270.226,122.093 L 270.261,121.933 L 270.318,121.774 L 270.363,121.591 L 270.397,121.431 L 270.432,121.249 L 270.443,121.078 L 270.443,120.918"/>
      <path style="fill: #ff000c; fill-opacity: 1; stroke: none" fill-rule="evenodd" d="M 280.312 121.272 L 280.312,121.112 L 280.3,120.929 L 280.289,120.758 L 280.243,120.598 L 280.209,120.427 L 280.164,120.256 L 280.107,120.096 L 280.049,119.937 L 279.992,119.777 L 279.913,119.617 L 279.821,119.469 L 279.741,119.332 L 279.65,119.207 L 279.525,119.081 L 279.433,118.933 L 279.308,118.807 L 279.194,118.705 L 279.057,118.579 L 278.931,118.488 L 278.794,118.385 L 278.658,118.317 L 278.509,118.225 L 278.361,118.168 L 278.213,118.1 L 278.064,118.031 L 277.893,117.986 L 277.745,117.94 L 277.585,117.917 L 277.425,117.906 L 277.243,117.883 L 277.095,117.883 L 277.095,117.883 L 276.935,117.883 L 276.752,117.906 L 276.604,117.917 L 276.444,117.94 L 276.284,117.986 L 276.113,118.031 L 275.954,118.1 L 275.817,118.168 L 275.668,118.225 L 275.52,118.317 L 275.383,118.385 L 275.246,118.488 L 275.109,118.579 L 274.972,118.705 L 274.858,118.807 L 274.744,118.933 L 274.642,119.081 L 274.527,119.207 L 274.436,119.332 L 274.345,119.469 L 274.254,119.617 L 274.174,119.777 L 274.117,119.937 L 274.06,120.096 L 274.014,120.256 L 273.957,120.427 L 273.923,120.598 L 273.889,120.758 L 273.877,120.929 L 273.854,121.112 L 273.854,121.272 L 273.854,121.272 L 273.854,121.454 L 273.877,121.614 L 273.889,121.785 L 273.923,121.967 L 273.957,122.127 L 274.014,122.287 L 274.06,122.447 L 274.117,122.606 L 274.174,122.766 L 274.254,122.926 L 274.345,123.074 L 274.436,123.211 L 274.527,123.359 L 274.642,123.485 L 274.744,123.61 L 274.858,123.736 L 274.972,123.85 L 275.109,123.964 L 275.246,124.055 L 275.383,124.158 L 275.52,124.249 L 275.668,124.318 L 275.817,124.386 L 275.954,124.466 L 276.113,124.5 L 276.284,124.569 L 276.444,124.603 L 276.604,124.626 L 276.752,124.66 L 276.935,124.671 L 277.095,124.671 L 277.095,124.671 L 277.243,124.671 L 277.425,124.66 L 277.585,124.626 L 277.745,124.603 L 277.893,124.569 L 278.064,124.5 L 278.213,124.466 L 278.361,124.386 L 278.509,124.318 L 278.658,124.249 L 278.794,124.158 L 278.931,124.055 L 279.057,123.964 L 279.194,123.85 L 279.308,123.736 L 279.433,123.61 L 279.525,123.485 L 279.65,123.359 L 279.741,123.211 L 279.821,123.074 L 279.913,122.926 L 279.992,122.766 L 280.049,122.606 L 280.107,122.447 L 280.164,122.287 L 280.209,122.127 L 280.243,121.967 L 280.289,121.785 L 280.3,121.614 L 280.312,121.454 L 280.312,121.272z"/>
      <path style="fill: none; stroke-opacity: 1; stroke-width: 0.02; stroke: #550000" d="M 279.958 120.918 L 279.958,120.735 L 279.947,120.576 L 279.935,120.393 L 279.913,120.233 L 279.867,120.062 L 279.821,119.902 L 279.787,119.743 L 279.719,119.572 L 279.662,119.435 L 279.57,119.252 L 279.502,119.115 L 279.411,118.967 L 279.319,118.83 L 279.228,118.705 L 279.137,118.579 L 279.023,118.454 L 278.886,118.328 L 278.794,118.225 L 278.658,118.134 L 278.521,118.031 L 278.395,117.94 L 278.235,117.849 L 278.11,117.792 L 277.984,117.723 L 277.813,117.689 L 277.665,117.632 L 277.528,117.598 L 277.38,117.564 L 277.231,117.529 L 277.072,117.507 L 276.923,117.507 L 276.923,117.507 L 276.752,117.507 L 276.604,117.529 L 276.456,117.564 L 276.296,117.598 L 276.148,117.632 L 276.011,117.689 L 275.851,117.723 L 275.714,117.792 L 275.589,117.849 L 275.429,117.94 L 275.303,118.031 L 275.166,118.134 L 275.029,118.225 L 274.938,118.328 L 274.813,118.454 L 274.687,118.579 L 274.596,118.705 L 274.505,118.83 L 274.402,118.967 L 274.322,119.115 L 274.242,119.252 L 274.174,119.435 L 274.105,119.572 L 274.037,119.743 L 274.014,119.902 L 273.957,120.062 L 273.923,120.233 L 273.889,120.393 L 273.877,120.576 L 273.866,120.735 L 273.866,120.918 L 273.866,120.918 L 273.866,121.078 L 273.877,121.249 L 273.889,121.431 L 273.923,121.591 L 273.957,121.774 L 274.014,121.933 L 274.037,122.093 L 274.105,122.253 L 274.174,122.412 L 274.242,122.572 L 274.322,122.709 L 274.402,122.857 L 274.505,122.994 L 274.596,123.12 L 274.687,123.268 L 274.813,123.394 L 274.938,123.485 L 275.029,123.61 L 275.166,123.69 L 275.303,123.804 L 275.429,123.873 L 275.589,123.964 L 275.714,124.033 L 275.851,124.09 L 276.011,124.158 L 276.148,124.192 L 276.296,124.249 L 276.456,124.261 L 276.604,124.306 L 276.752,124.306 L 276.923,124.306 L 276.923,124.306 L 277.072,124.306 L 277.231,124.306 L 277.38,124.261 L 277.528,124.249 L 277.665,124.192 L 277.813,124.158 L 277.984,124.09 L 278.11,124.033 L 278.235,123.964 L 278.395,123.873 L 278.521,123.804 L 278.658,123.69 L 278.794,123.61 L 278.886,123.485 L 279.023,123.394 L 279.137,123.268 L 279.228,123.12 L 279.319,122.994 L 279.411,122.857 L 279.502,122.709 L 279.57,122.572 L 279.662,122.412 L 279.719,122.253 L 279.787,122.093 L 279.821,121.933 L 279.867,121.774 L 279.913,121.591 L 279.935,121.431 L 279.947,121.249 L 279.958,121.078 L 279.958,120.918"/>
      <path style="fill: #ff000c; fill-opacity: 1; stroke: none" fill-rule="evenodd" d="M 290.226 121.272 L 290.226,121.112 L 290.203,120.929 L 290.181,120.758 L 290.146,120.598 L 290.112,120.427 L 290.067,120.256 L 290.01,120.096 L 289.941,119.937 L 289.861,119.777 L 289.793,119.617 L 289.701,119.469 L 289.61,119.332 L 289.508,119.207 L 289.405,119.081 L 289.291,118.933 L 289.154,118.807 L 289.017,118.705 L 288.891,118.579 L 288.755,118.488 L 288.618,118.385 L 288.469,118.317 L 288.298,118.225 L 288.15,118.168 L 287.99,118.1 L 287.83,118.031 L 287.659,117.986 L 287.5,117.94 L 287.328,117.917 L 287.146,117.906 L 286.975,117.883 L 286.792,117.883 L 286.792,117.883 L 286.632,117.883 L 286.45,117.906 L 286.279,117.917 L 286.096,117.94 L 285.937,117.986 L 285.777,118.031 L 285.617,118.1 L 285.446,118.168 L 285.298,118.225 L 285.138,118.317 L 284.99,118.385 L 284.853,118.488 L 284.716,118.579 L 284.579,118.705 L 284.442,118.807 L 284.305,118.933 L 284.202,119.081 L 284.088,119.207 L 283.997,119.332 L 283.906,119.469 L 283.803,119.617 L 283.735,119.777 L 283.655,119.937 L 283.586,120.096 L 283.529,120.256 L 283.484,120.427 L 283.449,120.598 L 283.427,120.758 L 283.404,120.929 L 283.369,121.112 L 283.369,121.272 L 283.369,121.272 L 283.369,121.454 L 283.404,121.614 L 283.427,121.785 L 283.449,121.967 L 283.484,122.127 L 283.529,122.287 L 283.586,122.447 L 283.655,122.606 L 283.735,122.766 L 283.803,122.926 L 283.906,123.074 L 283.997,123.211 L 284.088,123.359 L 284.202,123.485 L 284.305,123.61 L 284.442,123.736 L 284.579,123.85 L 284.716,123.964 L 284.853,124.055 L 284.99,124.158 L 285.138,124.249 L 285.298,124.318 L 285.446,124.386 L 285.617,124.466 L 285.777,124.5 L 285.937,124.569 L 286.096,124.603 L 286.279,124.626 L 286.45,124.66 L 286.632,124.671 L 286.792,124.671 L 286.792,124.671 L 286.975,124.671 L 287.146,124.66 L 287.328,124.626 L 287.5,124.603 L 287.659,124.569 L 287.83,124.5 L 287.99,124.466 L 288.15,124.386 L 288.298,124.318 L 288.469,124.249 L 288.618,124.158 L 288.755,124.055 L 288.891,123.964 L 289.017,123.85 L 289.154,123.736 L 289.291,123.61 L 289.405,123.485 L 289.508,123.359 L 289.61,123.211 L 289.701,123.074 L 289.793,122.926 L 289.861,122.766 L 289.941,122.606 L 290.01,122.447 L 290.067,122.287 L 290.112,122.127 L 290.146,121.967 L 290.181,121.785 L 290.203,121.614 L 290.226,121.454 L 290.226,121.272z"/>
      <path style="fill: none; stroke-opacity: 1; stroke-width: 0.02; stroke: #550000" d="M 289.85 120.918 L 289.85,120.735 L 289.838,120.576 L 289.793,120.393 L 289.781,120.233 L 289.747,120.062 L 289.701,119.902 L 289.633,119.743 L 289.576,119.572 L 289.496,119.435 L 289.428,119.252 L 289.336,119.115 L 289.222,118.967 L 289.131,118.83 L 289.04,118.705 L 288.926,118.579 L 288.8,118.454 L 288.652,118.328 L 288.515,118.225 L 288.378,118.134 L 288.23,118.031 L 288.093,117.94 L 287.944,117.849 L 287.785,117.792 L 287.625,117.723 L 287.442,117.689 L 287.294,117.632 L 287.123,117.598 L 286.941,117.564 L 286.769,117.529 L 286.587,117.507 L 286.427,117.507 L 286.427,117.507 L 286.256,117.507 L 286.073,117.529 L 285.902,117.564 L 285.731,117.598 L 285.56,117.632 L 285.412,117.689 L 285.229,117.723 L 285.069,117.792 L 284.91,117.849 L 284.761,117.94 L 284.613,118.031 L 284.453,118.134 L 284.328,118.225 L 284.202,118.328 L 284.077,118.454 L 283.94,118.579 L 283.814,118.705 L 283.723,118.83 L 283.62,118.967 L 283.518,119.115 L 283.438,119.252 L 283.347,119.435 L 283.278,119.572 L 283.221,119.743 L 283.164,119.902 L 283.118,120.062 L 283.084,120.233 L 283.05,120.393 L 283.016,120.576 L 283.004,120.735 L 283.004,120.918 L 283.004,120.918 L 283.004,121.078 L 283.016,121.249 L 283.05,121.431 L 283.084,121.591 L 283.118,121.774 L 283.164,121.933 L 283.221,122.093 L 283.278,122.253 L 283.347,122.412 L 283.438,122.572 L 283.518,122.709 L 283.62,122.857 L 283.723,122.994 L 283.814,123.12 L 283.94,123.268 L 284.077,123.394 L 284.202,123.485 L 284.328,123.61 L 284.453,123.69 L 284.613,123.804 L 284.761,123.873 L 284.91,123.964 L 285.069,124.033 L 285.229,124.09 L 285.412,124.158 L 285.56,124.192 L 285.731,124.249 L 285.902,124.261 L 286.073,124.306 L 286.256,124.306 L 286.427,124.306 L 286.427,124.306 L 286.587,124.306 L 286.769,124.306 L 286.941,124.261 L 287.123,124.249 L 287.294,124.192 L 287.442,124.158 L 287.625,124.09 L 287.785,124.033 L 287.944,123.964 L 288.093,123.873 L 288.23,123.804 L 288.378,123.69 L 288.515,123.61 L 288.652,123.485 L 288.8,123.394 L 288.926,123.268 L 289.04,123.12 L 289.131,122.994 L 289.222,122.857 L 289.336,122.709 L 289.428,122.572 L 289.496,122.412 L 289.576,122.253 L 289.633,122.093 L 289.701,121.933 L 289.747,121.774 L 289.781,121.591 L 289.793,121.431 L 289.838,121.249 L 289.85,121.078 L 289.85,120.918"/>
    </g>
    <g>
      <polyline style="fill: none; stroke-opacity: 1; stroke-width: 2; stroke: #000000" points="267.344,324.24 267.344,334.75 194,334.75 194,474.014 "/>
      <polygon style="fill: #000000; fill-opacity: 1; stroke-opacity: 1; stroke-width: 2; stroke: #000000" fill-rule="evenodd" points="194,481.514 189,471.514 194,474.014 199,471.514 "/>
    </g>
    <polyline style="fill: none; stroke-opacity: 1; stroke-width: 2; stroke: #000000" points="266.986,133 266.986,195.745 267.027,195.745 267.027,258.491 "/>
    <g>
      <polyline style="fill: none; stroke-opacity: 1; stroke-width: 2; stroke: #000000" points="267.344,324.24 267.344,334.75 108,334.75 108,466.264 "/>
      <polygon style="fill: #000000; fill-opacity: 1; stroke-opacity: 1; stroke-width: 2; stroke: #000000" fill-rule="evenodd" points="108,473.764 103,463.764 108,466.264 113,463.764 "/>
    </g>
    <polyline style="fill: none; stroke-opacity: 1; stroke-width: 2; stroke: #000000" points="283.176,-16 283.176,39 283.004,39 283.004,93 "/>
    <g>
      <path style="fill: #788e96; fill-opacity: 1; stroke: none" fill-rule="evenodd" d="M 318.842 -92.3055 L 318.805,-93.3154 L 318.721,-94.3254 L 318.563,-95.318 L 318.345,-96.2931 L 318.066,-97.2683 L 317.727,-98.226 L 317.327,-99.1663 L 316.879,-100.089 L 316.357,-100.995 L 315.776,-101.883 L 315.158,-102.736 L 314.479,-103.572 L 313.752,-104.373 L 312.964,-105.157 L 312.14,-105.888 L 311.28,-106.602 L 310.359,-107.264 L 309.401,-107.873 L 308.408,-108.5 L 307.366,-109.04 L 306.299,-109.545 L 305.221,-110.015 L 304.106,-110.433 L 302.954,-110.798 L 301.791,-111.112 L 300.603,-111.391 L 299.404,-111.617 L 298.192,-111.791 L 296.968,-111.93 L 295.732,-112 L 294.483,-112 L 294.483,-112 L 293.272,-112 L 292.035,-111.93 L 290.812,-111.791 L 289.6,-111.617 L 288.4,-111.391 L 287.212,-111.112 L 286.049,-110.798 L 284.898,-110.433 L 283.783,-110.015 L 282.668,-109.545 L 281.614,-109.04 L 280.596,-108.5 L 279.602,-107.873 L 278.644,-107.264 L 277.723,-106.602 L 276.863,-105.888 L 276.027,-105.157 L 275.251,-104.373 L 274.524,-103.572 L 273.833,-102.736 L 273.203,-101.883 L 272.646,-100.995 L 272.125,-100.089 L 271.664,-99.1663 L 271.276,-98.226 L 270.937,-97.2683 L 270.658,-96.2931 L 270.44,-95.318 L 270.283,-94.3254 L 270.186,-93.3154 L 270.149,-92.3055 L 270.149,-92.3055 L 270.186,-91.3303 L 270.283,-90.3203 L 270.44,-89.3452 L 270.658,-88.37 L 270.937,-87.3949 L 271.276,-86.4371 L 271.664,-85.4968 L 272.125,-84.5565 L 272.646,-83.651 L 273.203,-82.7629 L 273.833,-81.9097 L 274.524,-81.0738 L 275.251,-80.2728 L 276.027,-79.5066 L 276.863,-78.7578 L 277.723,-78.0439 L 278.644,-77.3822 L 279.602,-76.7379 L 280.596,-76.1633 L 281.614,-75.606 L 282.668,-75.101 L 283.783,-74.6309 L 284.898,-74.2304 L 286.049,-73.8473 L 287.212,-73.5338 L 288.4,-73.2552 L 289.6,-73.0288 L 290.812,-72.8547 L 292.035,-72.7154 L 293.272,-72.6457 L 294.483,-72.6109 L 294.483,-72.6109 L 295.732,-72.6457 L 296.968,-72.7154 L 298.192,-72.8547 L 299.404,-73.0288 L 300.603,-73.2552 L 301.791,-73.5338 L 302.954,-73.8473 L 304.106,-74.2304 L 305.221,-74.6309 L 306.299,-75.101 L 307.366,-75.606 L 308.408,-76.1633 L 309.401,-76.7379 L 310.359,-77.3822 L 311.28,-78.0439 L 312.14,-78.7578 L 312.964,-79.5066 L 313.752,-80.2728 L 314.479,-81.0738 L 315.158,-81.9097 L 315.776,-82.7629 L 316.357,-83.651 L 316.879,-84.5565 L 317.327,-85.4968 L 317.727,-86.4371 L 318.066,-87.3949 L 318.345,-88.37 L 318.563,-89.3452 L 318.721,-90.3203 L 318.805,-91.3303 L 318.842,-92.3055z"/>
      <path style="fill: #788e96; fill-opacity: 1; stroke: none" fill-rule="evenodd" d="M 280.68 -81.9967 L 280.656,-83.0067 L 280.583,-83.9993 L 280.474,-84.9918 L 280.305,-85.967 L 280.087,-86.9421 L 279.832,-87.8999 L 279.517,-88.8228 L 279.166,-89.7805 L 278.778,-90.6686 L 278.341,-91.5741 L 277.857,-92.4099 L 277.336,-93.2632 L 276.766,-94.0468 L 276.184,-94.813 L 275.554,-95.5618 L 274.863,-96.2757 L 274.185,-96.9548 L 273.433,-97.5817 L 272.682,-98.1738 L 271.894,-98.7136 L 271.07,-99.2186 L 270.234,-99.6887 L 269.374,-100.107 L 268.501,-100.472 L 267.604,-100.803 L 266.696,-101.064 L 265.787,-101.291 L 264.841,-101.447 L 263.908,-101.604 L 262.963,-101.674 L 262.018,-101.709 L 262.018,-101.709 L 261.085,-101.674 L 260.139,-101.604 L 259.206,-101.447 L 258.261,-101.291 L 257.34,-101.064 L 256.443,-100.803 L 255.546,-100.472 L 254.662,-100.107 L 253.801,-99.6887 L 252.965,-99.2186 L 252.153,-98.7136 L 251.366,-98.1738 L 250.602,-97.5817 L 249.863,-96.9548 L 249.172,-96.2757 L 248.493,-95.5618 L 247.863,-94.813 L 247.269,-94.0468 L 246.712,-93.2632 L 246.179,-92.4099 L 245.706,-91.5741 L 245.27,-90.6686 L 244.87,-89.7805 L 244.531,-88.8228 L 244.216,-87.8999 L 243.949,-86.9421 L 243.743,-85.967 L 243.573,-84.9918 L 243.464,-83.9993 L 243.379,-83.0067 L 243.367,-81.9967 L 243.367,-81.9967 L 243.379,-80.9868 L 243.464,-80.0116 L 243.573,-79.019 L 243.743,-78.0439 L 243.949,-77.0687 L 244.216,-76.0936 L 244.531,-75.1707 L 244.87,-74.2304 L 245.27,-73.3423 L 245.706,-72.4368 L 246.179,-71.5835 L 246.712,-70.7477 L 247.269,-69.9467 L 247.863,-69.1805 L 248.493,-68.4491 L 249.172,-67.7178 L 249.863,-67.056 L 250.602,-66.4118 L 251.366,-65.8371 L 252.153,-65.2973 L 252.965,-64.7749 L 253.801,-64.3221 L 254.662,-63.9042 L 255.546,-63.5385 L 256.443,-63.2077 L 257.34,-62.9291 L 258.261,-62.7027 L 259.206,-62.546 L 260.139,-62.4067 L 261.085,-62.337 L 262.018,-62.3022 L 262.018,-62.3022 L 262.963,-62.337 L 263.908,-62.4067 L 264.841,-62.546 L 265.787,-62.7027 L 266.696,-62.9291 L 267.604,-63.2077 L 268.501,-63.5385 L 269.374,-63.9042 L 270.234,-64.3221 L 271.07,-64.7749 L 271.894,-65.2973 L 272.682,-65.8371 L 273.433,-66.4118 L 274.185,-67.056 L 274.863,-67.7178 L 275.554,-68.4491 L 276.184,-69.1805 L 276.766,-69.9467 L 277.336,-70.7477 L 277.857,-71.5835 L 278.341,-72.4368 L 278.778,-73.3423 L 279.166,-74.2304 L 279.517,-75.1707 L 279.832,-76.0936 L 280.087,-77.0687 L 280.305,-78.0439 L 280.474,-79.019 L 280.583,-80.0116 L 280.656,-80.9868 L 280.68,-81.9967z"/>
      <path style="fill: #788e96; fill-opacity: 1; stroke: none" fill-rule="evenodd" d="M 257.158 -61.9017 L 257.134,-62.7027 L 257.098,-63.5385 L 257.013,-64.3396 L 256.892,-65.1406 L 256.746,-65.9416 L 256.576,-66.7078 L 256.37,-67.4914 L 256.14,-68.2402 L 255.874,-68.9889 L 255.571,-69.7029 L 255.256,-70.3994 L 254.904,-71.0785 L 254.516,-71.7403 L 254.116,-72.3845 L 253.692,-72.9766 L 253.244,-73.5512 L 252.771,-74.1085 L 252.274,-74.6135 L 251.765,-75.101 L 251.232,-75.5364 L 250.675,-75.9543 L 250.117,-76.3374 L 249.536,-76.6857 L 248.942,-76.9643 L 248.348,-77.2429 L 247.73,-77.4693 L 247.112,-77.6608 L 246.482,-77.8001 L 245.852,-77.8872 L 245.221,-77.9394 L 244.579,-77.9742 L 244.579,-77.9742 L 243.937,-77.9394 L 243.307,-77.8872 L 242.676,-77.8001 L 242.046,-77.6608 L 241.428,-77.4693 L 240.81,-77.2429 L 240.216,-76.9643 L 239.623,-76.6857 L 239.041,-76.3374 L 238.471,-75.9543 L 237.926,-75.5364 L 237.393,-75.101 L 236.884,-74.6135 L 236.387,-74.1085 L 235.914,-73.5512 L 235.466,-72.9766 L 235.042,-72.3845 L 234.63,-71.7403 L 234.254,-71.0785 L 233.903,-70.3994 L 233.588,-69.7029 L 233.285,-68.9889 L 233.018,-68.2402 L 232.788,-67.4914 L 232.582,-66.7078 L 232.412,-65.9416 L 232.267,-65.1406 L 232.145,-64.3396 L 232.061,-63.5385 L 232.024,-62.7027 L 232,-61.9017 L 232,-61.9017 L 232.024,-61.1007 L 232.061,-60.2822 L 232.145,-59.4812 L 232.267,-58.6802 L 232.412,-57.8792 L 232.582,-57.0956 L 232.788,-56.3294 L 233.018,-55.5632 L 233.285,-54.8319 L 233.588,-54.1005 L 233.903,-53.404 L 234.254,-52.7248 L 234.63,-52.0457 L 235.042,-51.4362 L 235.466,-50.8442 L 235.914,-50.2695 L 236.387,-49.7123 L 236.884,-49.2073 L 237.393,-48.7198 L 237.926,-48.267 L 238.471,-47.8491 L 239.041,-47.466 L 239.623,-47.1351 L 240.216,-46.8217 L 240.81,-46.5779 L 241.428,-46.3515 L 242.046,-46.16 L 242.676,-46.0207 L 243.307,-45.9162 L 243.937,-45.864 L 244.579,-45.8291 L 244.579,-45.8291 L 245.221,-45.864 L 245.852,-45.9162 L 246.482,-46.0207 L 247.112,-46.16 L 247.73,-46.3515 L 248.348,-46.5779 L 248.942,-46.8217 L 249.536,-47.1351 L 250.117,-47.466 L 250.675,-47.8491 L 251.232,-48.267 L 251.765,-48.7198 L 252.274,-49.2073 L 252.771,-49.7123 L 253.244,-50.2695 L 253.692,-50.8442 L 254.116,-51.4362 L 254.516,-52.0457 L 254.904,-52.7248 L 255.256,-53.404 L 255.571,-54.1005 L 255.874,-54.8319 L 256.14,-55.5632 L 256.37,-56.3294 L 256.576,-57.0956 L 256.746,-57.8792 L 256.892,-58.6802 L 257.013,-59.4812 L 257.098,-60.2822 L 257.134,-61.1007 L 257.158,-61.9017z"/>
      <path style="fill: #788e96; fill-opacity: 1; stroke: none" fill-rule="evenodd" d="M 277.445 -46.4212 L 277.433,-47.2919 L 277.348,-48.1625 L 277.214,-49.0506 L 277.057,-49.9213 L 276.839,-50.7745 L 276.584,-51.6104 L 276.269,-52.4636 L 275.918,-53.2821 L 275.518,-54.0657 L 275.069,-54.8493 L 274.573,-55.6155 L 274.064,-56.3468 L 273.482,-57.0434 L 272.888,-57.7573 L 272.234,-58.4016 L 271.567,-59.0111 L 270.852,-59.6205 L 270.113,-60.1778 L 269.337,-60.7002 L 268.538,-61.1703 L 267.701,-61.6057 L 266.853,-62.041 L 265.981,-62.4067 L 265.084,-62.7375 L 264.187,-63.0161 L 263.266,-63.2425 L 262.333,-63.4689 L 261.388,-63.6256 L 260.43,-63.7301 L 259.473,-63.7823 L 258.515,-63.7997 L 258.515,-63.7997 L 257.558,-63.7823 L 256.601,-63.7301 L 255.643,-63.6256 L 254.71,-63.4689 L 253.765,-63.2425 L 252.844,-63.0161 L 251.947,-62.7375 L 251.05,-62.4067 L 250.178,-62.041 L 249.33,-61.6057 L 248.493,-61.1703 L 247.694,-60.7002 L 246.918,-60.1778 L 246.179,-59.6205 L 245.464,-59.0111 L 244.797,-58.4016 L 244.143,-57.7573 L 243.549,-57.0434 L 242.979,-56.3468 L 242.446,-55.6155 L 241.961,-54.8493 L 241.513,-54.0657 L 241.113,-53.2821 L 240.762,-52.4636 L 240.447,-51.6104 L 240.18,-50.7745 L 239.974,-49.9213 L 239.804,-49.0506 L 239.683,-48.1625 L 239.598,-47.2919 L 239.586,-46.4212 L 239.586,-46.4212 L 239.598,-45.5157 L 239.683,-44.645 L 239.804,-43.7569 L 239.974,-42.8863 L 240.18,-42.033 L 240.447,-41.1972 L 240.762,-40.3613 L 241.113,-39.5255 L 241.513,-38.7593 L 241.961,-37.9757 L 242.446,-37.2095 L 242.979,-36.4607 L 243.549,-35.7642 L 244.143,-35.0502 L 244.797,-34.4059 L 245.464,-33.7965 L 246.179,-33.2044 L 246.918,-32.6472 L 247.694,-32.1074 L 248.493,-31.6372 L 249.33,-31.2019 L 250.178,-30.784 L 251.05,-30.4183 L 251.947,-30.0874 L 252.844,-29.8088 L 253.765,-29.565 L 254.71,-29.3735 L 255.643,-29.1819 L 256.601,-29.0775 L 257.558,-29.0252 L 258.515,-29.0078 L 258.515,-29.0078 L 259.473,-29.0252 L 260.43,-29.0775 L 261.388,-29.1819 L 262.333,-29.3735 L 263.266,-29.565 L 264.187,-29.8088 L 265.084,-30.0874 L 265.981,-30.4183 L 266.853,-30.784 L 267.701,-31.2019 L 268.538,-31.6372 L 269.337,-32.1074 L 270.113,-32.6472 L 270.852,-33.2044 L 271.567,-33.7965 L 272.234,-34.4059 L 272.888,-35.0502 L 273.482,-35.7642 L 274.064,-36.4607 L 274.573,-37.2095 L 275.069,-37.9757 L 275.518,-38.7593 L 275.918,-39.5255 L 276.269,-40.3613 L 276.584,-41.1972 L 276.839,-42.033 L 277.057,-42.8863 L 277.214,-43.7569 L 277.348,-44.645 L 277.433,-45.5157 L 277.445,-46.4212z"/>
      <path style="fill: #788e96; fill-opacity: 1; stroke: none" fill-rule="evenodd" d="M 322.889 -37.4185 L 322.865,-38.4633 L 322.744,-39.5081 L 322.574,-40.5355 L 322.32,-41.5803 L 321.981,-42.5728 L 321.605,-43.6002 L 321.144,-44.5928 L 320.611,-45.5679 L 320.005,-46.5257 L 319.351,-47.4486 L 318.624,-48.3367 L 317.836,-49.2073 L 316.988,-50.0606 L 316.079,-50.879 L 315.121,-51.6452 L 314.103,-52.394 L 313.049,-53.0905 L 311.934,-53.7522 L 310.771,-54.3791 L 309.583,-54.9537 L 308.347,-55.4761 L 307.087,-55.9463 L 305.778,-56.3816 L 304.445,-56.7822 L 303.088,-57.1304 L 301.706,-57.409 L 300.325,-57.6528 L 298.907,-57.8444 L 297.489,-57.9663 L 296.059,-58.0533 L 294.629,-58.0707 L 294.629,-58.0707 L 293.199,-58.0533 L 291.757,-57.9663 L 290.351,-57.8444 L 288.933,-57.6528 L 287.552,-57.409 L 286.158,-57.1304 L 284.813,-56.7822 L 283.48,-56.3816 L 282.171,-55.9463 L 280.911,-55.4761 L 279.675,-54.9537 L 278.475,-54.3791 L 277.324,-53.7522 L 276.209,-53.0905 L 275.154,-52.394 L 274.136,-51.6452 L 273.179,-50.879 L 272.27,-50.0606 L 271.422,-49.2073 L 270.634,-48.3367 L 269.907,-47.4486 L 269.253,-46.5257 L 268.647,-45.5679 L 268.113,-44.5928 L 267.653,-43.6002 L 267.265,-42.5728 L 266.938,-41.5803 L 266.683,-40.5355 L 266.502,-39.5081 L 266.393,-38.4633 L 266.356,-37.4185 L 266.356,-37.4185 L 266.393,-36.3562 L 266.502,-35.3289 L 266.683,-34.2841 L 266.938,-33.2567 L 267.265,-32.2293 L 267.653,-31.2367 L 268.113,-30.2442 L 268.647,-29.269 L 269.253,-28.3113 L 269.907,-27.3884 L 270.634,-26.4654 L 271.422,-25.5948 L 272.27,-24.7763 L 273.179,-23.9579 L 274.136,-23.1743 L 275.154,-22.4255 L 276.209,-21.729 L 277.324,-21.0673 L 278.475,-20.4578 L 279.675,-19.8832 L 280.911,-19.3434 L 282.171,-18.8732 L 283.48,-18.403 L 284.813,-18.0548 L 286.158,-17.7065 L 287.552,-17.4105 L 288.933,-17.1841 L 290.351,-16.9926 L 291.757,-16.8707 L 293.199,-16.7662 L 294.629,-16.7488 L 294.629,-16.7488 L 296.059,-16.7662 L 297.489,-16.8707 L 298.907,-16.9926 L 300.325,-17.1841 L 301.706,-17.4105 L 303.088,-17.7065 L 304.445,-18.0548 L 305.778,-18.403 L 307.087,-18.8732 L 308.347,-19.3434 L 309.583,-19.8832 L 310.771,-20.4578 L 311.934,-21.0673 L 313.049,-21.729 L 314.103,-22.4255 L 315.121,-23.1743 L 316.079,-23.9579 L 316.988,-24.7763 L 317.836,-25.5948 L 318.624,-26.4654 L 319.351,-27.3884 L 320.005,-28.3113 L 320.611,-29.269 L 321.144,-30.2442 L 321.605,-31.2367 L 321.981,-32.2293 L 322.32,-33.2567 L 322.574,-34.2841 L 322.744,-35.3289 L 322.865,-36.3562 L 322.889,-37.4185z"/>
      <path style="fill: #788e96; fill-opacity: 1; stroke: none" fill-rule="evenodd" d="M 338.595 -85.0615 L 338.571,-85.8277 L 338.498,-86.6113 L 338.389,-87.3949 L 338.219,-88.1611 L 338.013,-88.9273 L 337.759,-89.6935 L 337.468,-90.4422 L 337.129,-91.1562 L 336.741,-91.8701 L 336.317,-92.5667 L 335.844,-93.2458 L 335.347,-93.8901 L 334.802,-94.5344 L 334.22,-95.1438 L 333.602,-95.7185 L 332.96,-96.2757 L 332.269,-96.8155 L 331.566,-97.3031 L 330.815,-97.7558 L 330.052,-98.1912 L 329.252,-98.5917 L 328.44,-98.94 L 327.616,-99.2708 L 326.755,-99.5668 L 325.883,-99.8106 L 325.01,-100.037 L 324.101,-100.229 L 323.192,-100.368 L 322.283,-100.472 L 321.375,-100.525 L 320.466,-100.542 L 320.466,-100.542 L 319.545,-100.525 L 318.636,-100.472 L 317.715,-100.368 L 316.818,-100.229 L 315.921,-100.037 L 315.037,-99.8106 L 314.164,-99.5668 L 313.316,-99.2708 L 312.48,-98.94 L 311.668,-98.5917 L 310.868,-98.1912 L 310.092,-97.7558 L 309.365,-97.3031 L 308.65,-96.8155 L 307.971,-96.2757 L 307.329,-95.7185 L 306.711,-95.1438 L 306.129,-94.5344 L 305.584,-93.8901 L 305.087,-93.2458 L 304.615,-92.5667 L 304.178,-91.8701 L 303.803,-91.1562 L 303.463,-90.4422 L 303.16,-89.6935 L 302.918,-88.9273 L 302.712,-88.1611 L 302.542,-87.3949 L 302.421,-86.6113 L 302.361,-85.8277 L 302.336,-85.0615 L 302.336,-85.0615 L 302.361,-84.2605 L 302.421,-83.4943 L 302.542,-82.7107 L 302.712,-81.9445 L 302.918,-81.1783 L 303.16,-80.4295 L 303.463,-79.6808 L 303.803,-78.9494 L 304.178,-78.2354 L 304.615,-77.5389 L 305.087,-76.8598 L 305.584,-76.1981 L 306.129,-75.5886 L 306.711,-74.9617 L 307.329,-74.3871 L 307.971,-73.8124 L 308.65,-73.3075 L 309.365,-72.8199 L 310.092,-72.3497 L 310.868,-71.9144 L 311.668,-71.5139 L 312.48,-71.1482 L 313.316,-70.8348 L 314.164,-70.5387 L 315.037,-70.2775 L 315.921,-70.0686 L 316.818,-69.877 L 317.715,-69.7377 L 318.636,-69.6506 L 319.545,-69.5984 L 320.466,-69.5636 L 320.466,-69.5636 L 321.375,-69.5984 L 322.283,-69.6506 L 323.192,-69.7377 L 324.101,-69.877 L 325.01,-70.0686 L 325.883,-70.2775 L 326.755,-70.5387 L 327.616,-70.8348 L 328.44,-71.1482 L 329.252,-71.5139 L 330.052,-71.9144 L 330.815,-72.3497 L 331.566,-72.8199 L 332.269,-73.3075 L 332.96,-73.8124 L 333.602,-74.3871 L 334.22,-74.9617 L 334.802,-75.5886 L 335.347,-76.1981 L 335.844,-76.8598 L 336.317,-77.5389 L 336.741,-78.2354 L 337.129,-78.9494 L 337.468,-79.6808 L 337.759,-80.4295 L 338.013,-81.1783 L 338.219,-81.9445 L 338.389,-82.7107 L 338.498,-83.4943 L 338.571,-84.2605 L 338.595,-85.0615z"/>
      <path style="fill: #788e96; fill-opacity: 1; stroke: none" fill-rule="evenodd" d="M 343.721 -65.158 L 343.709,-65.9416 L 343.649,-66.7252 L 343.527,-67.4914 L 343.37,-68.2576 L 343.164,-69.0238 L 342.909,-69.7725 L 342.618,-70.5387 L 342.279,-71.2701 L 341.891,-71.984 L 341.479,-72.6806 L 340.995,-73.3597 L 340.51,-74.0214 L 339.965,-74.6483 L 339.395,-75.2578 L 338.789,-75.8498 L 338.147,-76.3896 L 337.468,-76.9294 L 336.753,-77.3996 L 336.026,-77.8872 L 335.262,-78.3225 L 334.475,-78.7056 L 333.675,-79.0713 L 332.839,-79.4021 L 332.003,-79.6808 L 331.142,-79.9594 L 330.258,-80.1683 L 329.373,-80.3425 L 328.476,-80.4818 L 327.567,-80.5863 L 326.658,-80.6385 L 325.749,-80.6559 L 325.749,-80.6559 L 324.841,-80.6385 L 323.932,-80.5863 L 323.023,-80.4818 L 322.126,-80.3425 L 321.229,-80.1683 L 320.369,-79.9594 L 319.508,-79.6808 L 318.648,-79.4021 L 317.836,-79.0713 L 317.024,-78.7056 L 316.224,-78.3225 L 315.473,-77.8872 L 314.746,-77.3996 L 314.031,-76.9294 L 313.352,-76.3896 L 312.722,-75.8498 L 312.104,-75.2578 L 311.534,-74.6483 L 310.989,-74.0214 L 310.492,-73.3597 L 310.019,-72.6806 L 309.607,-71.984 L 309.232,-71.2701 L 308.88,-70.5387 L 308.577,-69.7725 L 308.335,-69.0238 L 308.117,-68.2576 L 307.971,-67.4914 L 307.862,-66.7252 L 307.79,-65.9416 L 307.765,-65.158 L 307.765,-65.158 L 307.79,-64.3744 L 307.862,-63.6082 L 307.971,-62.8072 L 308.117,-62.041 L 308.335,-61.2748 L 308.577,-60.526 L 308.88,-59.7598 L 309.232,-59.0459 L 309.607,-58.3319 L 310.019,-57.6354 L 310.492,-56.9737 L 310.989,-56.312 L 311.534,-55.6851 L 312.104,-55.0756 L 312.722,-54.4836 L 313.352,-53.9264 L 314.031,-53.404 L 314.746,-52.899 L 315.473,-52.4462 L 316.224,-52.0109 L 317.024,-51.593 L 317.836,-51.2447 L 318.648,-50.9313 L 319.508,-50.6178 L 320.369,-50.374 L 321.229,-50.1651 L 322.126,-49.9735 L 323.023,-49.8342 L 323.932,-49.7471 L 324.841,-49.6949 L 325.749,-49.6427 L 325.749,-49.6427 L 326.658,-49.6949 L 327.567,-49.7471 L 328.476,-49.8342 L 329.373,-49.9735 L 330.258,-50.1651 L 331.142,-50.374 L 332.003,-50.6178 L 332.839,-50.9313 L 333.675,-51.2447 L 334.475,-51.593 L 335.262,-52.0109 L 336.026,-52.4462 L 336.753,-52.899 L 337.468,-53.404 L 338.147,-53.9264 L 338.789,-54.4836 L 339.395,-55.0756 L 339.965,-55.6851 L 340.51,-56.312 L 340.995,-56.9737 L 341.479,-57.6354 L 341.891,-58.3319 L 342.279,-59.0459 L 342.618,-59.7598 L 342.909,-60.526 L 343.164,-61.2748 L 343.37,-62.041 L 343.527,-62.8072 L 343.649,-63.6082 L 343.709,-64.3744 L 343.721,-65.158z"/>
      <path style="fill: #788e96; fill-opacity: 1; stroke: none" fill-rule="evenodd" d="M 340.219 -48.7198 L 340.195,-50.0083 L 340.134,-51.2795 L 340.013,-52.5681 L 339.855,-53.8393 L 339.649,-55.0756 L 339.395,-56.3294 L 339.104,-57.5483 L 338.777,-58.7325 L 338.389,-59.9166 L 337.965,-61.0658 L 337.517,-62.1629 L 337.02,-63.2425 L 336.486,-64.2873 L 335.917,-65.2799 L 335.311,-66.2376 L 334.669,-67.1431 L 334.002,-68.0138 L 333.299,-68.8322 L 332.572,-69.5984 L 331.809,-70.2949 L 331.033,-70.9392 L 330.233,-71.5487 L 329.409,-72.0711 L 328.561,-72.5587 L 327.713,-72.994 L 326.828,-73.3423 L 325.955,-73.6209 L 325.071,-73.8473 L 324.174,-74.0214 L 323.265,-74.1085 L 322.356,-74.1259 L 322.356,-74.1259 L 321.447,-74.1085 L 320.563,-74.0214 L 319.666,-73.8473 L 318.769,-73.6209 L 317.897,-73.3423 L 317.012,-72.994 L 316.151,-72.5587 L 315.315,-72.0711 L 314.503,-71.5487 L 313.704,-70.9392 L 312.928,-70.2949 L 312.164,-69.5984 L 311.437,-68.8322 L 310.734,-68.0138 L 310.068,-67.1431 L 309.414,-66.2376 L 308.808,-65.2799 L 308.25,-64.2873 L 307.717,-63.2425 L 307.208,-62.1629 L 306.76,-61.0658 L 306.335,-59.9166 L 305.96,-58.7325 L 305.62,-57.5483 L 305.317,-56.3294 L 305.087,-55.0756 L 304.869,-53.8393 L 304.712,-52.5681 L 304.602,-51.2795 L 304.53,-50.0083 L 304.506,-48.7198 L 304.506,-48.7198 L 304.53,-47.4137 L 304.602,-46.1426 L 304.712,-44.854 L 304.869,-43.5828 L 305.087,-42.329 L 305.317,-41.0927 L 305.62,-39.8563 L 305.96,-38.6896 L 306.335,-37.5229 L 306.76,-36.3562 L 307.208,-35.2592 L 307.717,-34.1796 L 308.25,-33.1348 L 308.808,-32.1248 L 309.414,-31.1845 L 310.068,-30.2616 L 310.734,-29.3909 L 311.437,-28.5899 L 312.164,-27.8411 L 312.928,-27.1097 L 313.704,-26.4654 L 314.503,-25.8734 L 315.315,-25.3336 L 316.151,-24.8634 L 317.012,-24.4455 L 317.897,-24.0972 L 318.769,-23.8012 L 319.666,-23.5748 L 320.563,-23.4007 L 321.447,-23.2962 L 322.356,-23.2788 L 322.356,-23.2788 L 323.265,-23.2962 L 324.174,-23.4007 L 325.071,-23.5748 L 325.955,-23.8012 L 326.828,-24.0972 L 327.713,-24.4455 L 328.561,-24.8634 L 329.409,-25.3336 L 330.233,-25.8734 L 331.033,-26.4654 L 331.809,-27.1097 L 332.572,-27.8411 L 333.299,-28.5899 L 334.002,-29.3909 L 334.669,-30.2616 L 335.311,-31.1845 L 335.917,-32.1248 L 336.486,-33.1348 L 337.02,-34.1796 L 337.517,-35.2592 L 337.965,-36.3562 L 338.389,-37.5229 L 338.777,-38.6896 L 339.104,-39.8563 L 339.395,-41.0927 L 339.649,-42.329 L 339.855,-43.5828 L 340.013,-44.854 L 340.134,-46.1426 L 340.195,-47.4137 L 340.219,-48.7198z"/>
      <path style="fill: #788e96; fill-opacity: 1; stroke: none" fill-rule="evenodd" d="M 324.78 -64.0087 L 324.744,-65.2973 L 324.61,-66.5859 L 324.38,-67.8745 L 324.053,-69.1282 L 323.641,-70.3994 L 323.12,-71.6184 L 322.538,-72.8547 L 321.859,-74.0214 L 321.072,-75.2055 L 320.235,-76.3548 L 319.302,-77.4693 L 318.296,-78.5489 L 317.206,-79.5763 L 316.042,-80.5863 L 314.818,-81.5266 L 313.522,-82.4495 L 312.14,-83.3202 L 310.734,-84.1386 L 309.256,-84.8874 L 307.717,-85.6013 L 306.129,-86.2456 L 304.506,-86.8377 L 302.821,-87.3949 L 301.137,-87.8476 L 299.391,-88.283 L 297.622,-88.6138 L 295.841,-88.9273 L 294.035,-89.1536 L 292.205,-89.3278 L 290.375,-89.4148 L 288.545,-89.4497 L 288.545,-89.4497 L 286.691,-89.4148 L 284.873,-89.3278 L 283.056,-89.1536 L 281.238,-88.9273 L 279.456,-88.6138 L 277.699,-88.283 L 275.954,-87.8476 L 274.245,-87.3949 L 272.585,-86.8377 L 270.949,-86.2456 L 269.362,-85.6013 L 267.835,-84.8874 L 266.356,-84.1386 L 264.926,-83.3202 L 263.569,-82.4495 L 262.272,-81.5266 L 261.036,-80.5863 L 259.873,-79.5763 L 258.794,-78.5489 L 257.776,-77.4693 L 256.855,-76.3548 L 255.995,-75.2055 L 255.231,-74.0214 L 254.553,-72.8547 L 253.959,-71.6184 L 253.45,-70.3994 L 253.038,-69.1282 L 252.711,-67.8745 L 252.48,-66.5859 L 252.335,-65.2973 L 252.299,-64.0087 L 252.299,-64.0087 L 252.335,-62.7027 L 252.48,-61.4489 L 252.711,-60.1603 L 253.038,-58.8892 L 253.45,-57.6354 L 253.959,-56.3816 L 254.553,-55.1801 L 255.231,-53.9786 L 255.995,-52.7945 L 256.855,-51.6626 L 257.776,-50.5656 L 258.794,-49.4859 L 259.873,-48.4411 L 261.036,-47.4486 L 262.272,-46.4908 L 263.569,-45.5853 L 264.926,-44.7147 L 266.356,-43.8788 L 267.835,-43.1126 L 269.362,-42.4335 L 270.949,-41.7718 L 272.585,-41.1623 L 274.245,-40.6399 L 275.954,-40.1698 L 277.699,-39.7344 L 279.456,-39.3862 L 281.238,-39.0727 L 283.056,-38.8638 L 284.873,-38.7071 L 286.691,-38.6026 L 288.545,-38.5852 L 288.545,-38.5852 L 290.375,-38.6026 L 292.205,-38.7071 L 294.035,-38.8638 L 295.841,-39.0727 L 297.622,-39.3862 L 299.391,-39.7344 L 301.137,-40.1698 L 302.821,-40.6399 L 304.506,-41.1623 L 306.129,-41.7718 L 307.717,-42.4335 L 309.256,-43.1126 L 310.734,-43.8788 L 312.14,-44.7147 L 313.522,-45.5853 L 314.818,-46.4908 L 316.042,-47.4486 L 317.206,-48.4411 L 318.296,-49.4859 L 319.302,-50.5656 L 320.235,-51.6626 L 321.072,-52.7945 L 321.859,-53.9786 L 322.538,-55.1801 L 323.12,-56.3816 L 323.641,-57.6354 L 324.053,-58.8892 L 324.38,-60.1603 L 324.61,-61.4489 L 324.744,-62.7027 L 324.78,-64.0087z"/>
      <path style="fill: #788e96; fill-opacity: 1; stroke: none" fill-rule="evenodd" d="M 294.774 -92.1313 L 318.781,-96.5195 L 318.478,-97.4946 L 318.115,-98.4524 L 317.691,-99.3753 L 317.206,-100.333 L 316.66,-101.239 L 316.055,-102.109 L 315.388,-102.98 L 314.709,-103.798 L 313.946,-104.599 L 313.146,-105.365 L 312.286,-106.114 L 311.401,-106.776 L 310.456,-107.438 L 309.474,-108.082 L 308.456,-108.674 L 307.402,-109.179 L 306.323,-109.701 L 305.208,-110.137 L 304.057,-110.537 L 302.894,-110.903 L 301.706,-111.216 L 300.506,-111.46 L 299.295,-111.687 L 298.071,-111.843 L 296.822,-111.948 L 295.586,-112 L 294.338,-112 L 293.09,-111.983 L 291.842,-111.878 L 290.618,-111.739 L 289.406,-111.547 L 288.194,-111.286 L 286.994,-111.007 L 285.831,-110.659 L 284.692,-110.259 L 283.565,-109.823 L 282.45,-109.371 L 281.407,-108.831 L 280.377,-108.274 L 279.384,-107.647 L 278.426,-107.002 L 277.517,-106.323 L 276.657,-105.592 L 275.833,-104.826 L 275.069,-104.059 L 274.342,-103.224 L 273.664,-102.388 L 273.046,-101.5 L 272.5,-100.612 L 272.003,-99.6887 L 271.555,-98.731 L 271.179,-97.7907 L 270.852,-96.8155 L 270.586,-95.8404 L 294.774,-92.1313z"/>
      <path style="fill: none; stroke-opacity: 1; stroke-width: 0.02; stroke: #364749" d="M 318.769 -96.5543 L 318.466,-97.5295 L 318.103,-98.4872 L 317.666,-99.4449 L 317.182,-100.35 L 316.636,-101.273 L 316.042,-102.144 L 315.388,-102.98 L 314.673,-103.833 L 313.922,-104.599 L 313.122,-105.365 L 312.261,-106.132 L 311.377,-106.828 L 310.432,-107.49 L 309.45,-108.082 L 308.42,-108.691 L 307.39,-109.214 L 306.299,-109.701 L 305.172,-110.154 L 304.033,-110.572 L 302.894,-110.92 L 301.682,-111.216 L 300.494,-111.46 L 299.282,-111.687 L 298.046,-111.843 L 296.81,-111.948 L 295.574,-112 L 294.326,-112 L 293.09,-111.983 L 291.842,-111.878 L 290.618,-111.739 L 289.406,-111.547 L 288.194,-111.303 L 286.994,-111.007 L 285.831,-110.659 L 284.692,-110.259 L 283.565,-109.823 L 282.474,-109.371 L 281.42,-108.848 L 280.377,-108.274 L 279.396,-107.647 L 278.451,-107.002 L 277.542,-106.341 L 276.669,-105.627 L 275.857,-104.878 L 275.069,-104.059 L 274.342,-103.241 L 273.7,-102.405 L 273.058,-101.535 L 272.512,-100.629 L 272.016,-99.7061 L 271.567,-98.7832 L 271.179,-97.8255 L 270.852,-96.8504 L 270.598,-95.8752"/>
      <path style="fill: #788e96; fill-opacity: 1; stroke: none" fill-rule="evenodd" d="M 262.163 -81.8052 L 274.245,-97.0419 L 273.494,-97.6688 L 272.731,-98.2608 L 271.919,-98.8007 L 271.095,-99.3056 L 270.246,-99.7758 L 269.374,-100.176 L 268.489,-100.542 L 267.58,-100.855 L 266.671,-101.117 L 265.738,-101.326 L 264.805,-101.5 L 263.86,-101.622 L 262.902,-101.674 L 261.957,-101.709 L 261,-101.674 L 260.055,-101.552 L 259.109,-101.447 L 258.176,-101.239 L 257.255,-101.012 L 256.334,-100.716 L 255.437,-100.368 L 254.565,-100.002 L 253.704,-99.5668 L 252.868,-99.0967 L 252.044,-98.5743 L 251.256,-98.0171 L 250.493,-97.4076 L 249.766,-96.7633 L 249.063,-96.0842 L 248.396,-95.3528 L 247.766,-94.5866 L 247.172,-93.8204 L 246.615,-93.002 L 246.106,-92.1662 L 245.633,-91.2781 L 245.197,-90.39 L 244.809,-89.4671 L 244.47,-88.5268 L 244.167,-87.569 L 243.913,-86.5939 L 243.707,-85.6187 L 243.549,-84.6262 L 243.44,-83.5988 L 243.379,-82.6236 L 243.367,-81.6136 L 243.404,-80.6037 L 243.476,-79.6111 L 243.61,-78.6011 L 262.163,-81.8052z"/>
      <path style="fill: none; stroke-opacity: 1; stroke-width: 0.02; stroke: #364749" d="M 274.185 -97.0941 L 273.433,-97.721 L 272.658,-98.2957 L 271.87,-98.8355 L 271.034,-99.3405 L 270.186,-99.7932 L 269.313,-100.194 L 268.428,-100.559 L 267.52,-100.873 L 266.611,-101.117 L 265.678,-101.343 L 264.744,-101.517 L 263.799,-101.622 L 262.842,-101.674 L 261.897,-101.709 L 260.951,-101.656 L 259.994,-101.552 L 259.049,-101.43 L 258.116,-101.239 L 257.195,-100.995 L 256.286,-100.681 L 255.389,-100.368 L 254.504,-99.9673 L 253.668,-99.5494 L 252.82,-99.0619 L 252.008,-98.5395 L 251.22,-97.9648 L 250.457,-97.3728 L 249.742,-96.7459 L 249.039,-96.0493 L 248.372,-95.318 L 247.742,-94.5692 L 247.148,-93.7856 L 246.603,-92.9672 L 246.082,-92.1313 L 245.621,-91.2258 L 245.185,-90.3552 L 244.797,-89.4323 L 244.458,-88.4919 L 244.155,-87.5168 L 243.913,-86.5765 L 243.694,-85.5665 L 243.549,-84.5739 L 243.44,-83.5814 L 243.379,-82.6062 L 243.367,-81.5788 L 243.404,-80.5863 L 243.488,-79.5763 L 243.61,-78.5837"/>
      <path style="fill: #788e96; fill-opacity: 1; stroke: none" fill-rule="evenodd" d="M 258.782 -46.2296 L 239.32,-46.752 L 239.32,-45.864 L 239.356,-44.9585 L 239.453,-44.053 L 239.586,-43.1649 L 239.78,-42.2768 L 240.023,-41.4061 L 240.313,-40.5355 L 240.641,-39.6822 L 241.016,-38.8638 L 241.44,-38.0453 L 241.913,-37.2269 L 242.422,-36.4607 L 242.979,-35.712 L 243.561,-35.0154 L 244.203,-34.3015 L 244.87,-33.6398 L 245.573,-33.0303 L 246.3,-32.4382 L 247.076,-31.8636 L 247.863,-31.3586 L 248.699,-30.871 L 249.536,-30.3835 L 250.408,-30.0004 L 251.317,-29.6173 L 252.226,-29.2864 L 253.147,-29.0252 L 254.092,-28.7814 L 255.05,-28.5899 L 256.019,-28.4506 L 256.989,-28.3113 L 257.97,-28.2764 L 258.952,-28.259 L 259.921,-28.2939 L 260.903,-28.3635 L 261.872,-28.4854 L 262.842,-28.6247 L 263.787,-28.8511 L 264.72,-29.1123 L 265.653,-29.3909 L 266.562,-29.7566 L 267.447,-30.1397 L 268.319,-30.5576 L 269.156,-31.0103 L 269.968,-31.5153 L 270.755,-32.0551 L 271.519,-32.6298 L 258.782,-46.2296z"/>
      <path style="fill: none; stroke-opacity: 1; stroke-width: 0.02; stroke: #364749" d="M 239.32 -46.752 L 239.308,-45.864 L 239.356,-44.9585 L 239.453,-44.0878 L 239.598,-43.1823 L 239.78,-42.2942 L 240.023,-41.4061 L 240.301,-40.5355 L 240.641,-39.6996 L 241.016,-38.8638 L 241.44,-38.0628 L 241.913,-37.2443 L 242.398,-36.4781 L 242.955,-35.7468 L 243.549,-35.0154 L 244.179,-34.3537 L 244.834,-33.6746 L 245.549,-33.0477 L 246.264,-32.4382 L 247.039,-31.881 L 247.839,-31.3586 L 248.651,-30.871 L 249.499,-30.4357 L 250.372,-30.0178 L 251.269,-29.6521 L 252.177,-29.3212 L 253.098,-29.0426 L 254.044,-28.7814 L 255.001,-28.6073 L 255.958,-28.4506 L 256.928,-28.3461 L 257.91,-28.2764 L 258.891,-28.259 L 259.861,-28.2764 L 260.83,-28.3635 L 261.8,-28.468 L 262.769,-28.6247 L 263.714,-28.8511 L 264.66,-29.0775 L 265.593,-29.3909 L 266.49,-29.7217 L 267.374,-30.1048 L 268.247,-30.5228 L 269.071,-30.9929 L 269.895,-31.4631 L 270.683,-32.0029 L 271.446,-32.5601"/>
      <path style="fill: #788e96; fill-opacity: 1; stroke: none" fill-rule="evenodd" d="M 320.732 -85.0615 L 337.868,-80.0116 L 338.147,-80.7604 L 338.377,-81.5266 L 338.571,-82.2928 L 338.704,-83.059 L 338.801,-83.8251 L 338.85,-84.6436 L 338.85,-85.4272 L 338.801,-86.2108 L 338.716,-86.977 L 338.571,-87.7432 L 338.389,-88.5442 L 338.171,-89.2929 L 337.892,-90.0591 L 337.577,-90.7905 L 337.214,-91.5044 L 336.802,-92.201 L 336.353,-92.9149 L 335.868,-93.5766 L 335.347,-94.2209 L 334.778,-94.8478 L 334.184,-95.4399 L 333.554,-95.9971 L 332.875,-96.5543 L 332.184,-97.0593 L 331.457,-97.5295 L 330.694,-97.9648 L 329.918,-98.4001 L 329.106,-98.7832 L 328.27,-99.1315 L 327.434,-99.4449 L 326.586,-99.7061 L 325.689,-99.9325 L 324.804,-100.141 L 323.907,-100.298 L 322.998,-100.42 L 322.09,-100.472 L 321.169,-100.542 L 320.235,-100.525 L 319.327,-100.472 L 318.406,-100.403 L 317.509,-100.298 L 316.6,-100.124 L 315.715,-99.9325 L 314.831,-99.6887 L 320.732,-85.0615z"/>
      <path style="fill: none; stroke-opacity: 1; stroke-width: 0.02; stroke: #364749" d="M 336.22 -77.1732 L 337.856,-79.9768 L 338.135,-80.743 L 338.377,-81.4917 L 338.559,-82.2579 L 338.704,-83.0415 L 338.801,-83.8077 L 338.85,-84.5739 L 338.862,-85.3923 L 338.801,-86.1759 L 338.716,-86.9596 L 338.571,-87.7432 L 338.413,-88.4919 L 338.171,-89.2581 L 337.892,-90.0069 L 337.589,-90.7557 L 337.226,-91.487 L 336.826,-92.1836 L 336.377,-92.8801 L 335.893,-93.5418 L 335.372,-94.1861 L 334.814,-94.813 L 334.22,-95.405 L 333.59,-95.9797 L 332.924,-96.5195 L 332.209,-97.0419 L 331.494,-97.5295 L 330.73,-97.9648 L 329.967,-98.3827 L 329.155,-98.7658 L 328.343,-99.1141 L 327.494,-99.4275 L 326.634,-99.7061 L 325.749,-99.9325 L 324.865,-100.141 L 323.956,-100.298 L 323.047,-100.403 L 322.126,-100.472 L 321.205,-100.542 L 320.284,-100.542 L 319.387,-100.472 L 318.466,-100.403 L 317.545,-100.298 L 316.648,-100.141 L 315.764,-99.9325 L 314.867,-99.7061"/>
      <path style="fill: #788e96; fill-opacity: 1; stroke: none" fill-rule="evenodd" d="M 323.168 -64.5833 L 342.437,-58.2275 L 342.837,-59.0459 L 343.176,-59.8643 L 343.455,-60.735 L 343.673,-61.6057 L 343.842,-62.4763 L 343.952,-63.3644 L 344,-64.2699 L 343.988,-65.1406 L 343.927,-66.0287 L 343.806,-66.9167 L 343.624,-67.7874 L 343.382,-68.6407 L 343.091,-69.5113 L 342.74,-70.3298 L 342.34,-71.1656 L 341.891,-71.9492 L 341.382,-72.7676 L 340.825,-73.5164 L 340.219,-74.2478 L 323.168,-64.5833z"/>
      <path style="fill: none; stroke-opacity: 1; stroke-width: 0.02; stroke: #364749" d="M 339.94 -55.3194 L 342.425,-58.1752 L 342.812,-58.9937 L 343.164,-59.8643 L 343.443,-60.7176 L 343.673,-61.6057 L 343.842,-62.4763 L 343.952,-63.347 L 344,-64.2699 L 344,-65.1406 L 343.915,-66.0461 L 343.794,-66.9167 L 343.624,-67.8048 L 343.382,-68.6755 L 343.079,-69.5288 L 342.74,-70.382 L 342.316,-71.2004 L 341.867,-72.0189 L 341.334,-72.8025 L 340.789,-73.5687 L 340.171,-74.3174 L 336.22,-77.1732"/>
      <path style="fill: #788e96; fill-opacity: 1; stroke: none" fill-rule="evenodd" d="M 322.356 -47.762 L 316.285,-23.5922 L 317.182,-23.1917 L 318.078,-22.8609 L 318.999,-22.5823 L 319.92,-22.3733 L 320.841,-22.2166 L 321.787,-22.1643 L 322.72,-22.1469 L 323.653,-22.2166 L 324.598,-22.3211 L 325.519,-22.53 L 326.44,-22.7912 L 327.349,-23.1221 L 328.234,-23.4878 L 329.106,-23.9579 L 329.979,-24.4629 L 330.827,-25.0201 L 331.651,-25.647 L 332.439,-26.3436 L 333.214,-27.0923 L 333.954,-27.8759 L 334.669,-28.7292 L 335.347,-29.6173 L 335.99,-30.575 L 336.596,-31.5676 L 337.177,-32.595 L 337.71,-33.6746 L 338.195,-34.7716 L 338.656,-35.9209 L 339.068,-37.0876 L 339.443,-38.2891 L 339.758,-39.5081 L 340.049,-40.7618 L 340.28,-42.0156 L 340.461,-43.3042 L 340.607,-44.5928 L 340.692,-45.8988 L 340.74,-47.2048 L 340.74,-48.5108 L 340.68,-49.8168 L 340.583,-51.1054 L 340.437,-52.394 L 340.255,-53.6652 L 340.013,-54.9363 L 322.356,-47.762z"/>
      <path style="fill: none; stroke-opacity: 1; stroke-width: 0.02; stroke: #364749" d="M 316.333 -23.5574 L 317.206,-23.1743 L 318.115,-22.826 L 319.048,-22.5474 L 319.981,-22.3559 L 320.902,-22.2166 L 321.835,-22.1469 L 322.78,-22.1121 L 323.701,-22.2166 L 324.634,-22.3211 L 325.568,-22.53 L 326.489,-22.7912 L 327.385,-23.1221 L 328.27,-23.5226 L 329.167,-23.9579 L 330.015,-24.4803 L 330.863,-25.0375 L 331.688,-25.6818 L 332.475,-26.361 L 333.239,-27.1097 L 333.99,-27.9282 L 334.693,-28.7814 L 335.372,-29.6695 L 336.014,-30.5924 L 336.632,-31.6198 L 337.214,-32.6472 L 337.735,-33.7094 L 338.232,-34.8413 L 338.68,-35.9732 L 339.092,-37.1224 L 339.456,-38.324 L 339.783,-39.5777 L 340.061,-40.8315 L 340.28,-42.0853 L 340.461,-43.339 L 340.607,-44.645 L 340.692,-45.9336 L 340.74,-47.2396 L 340.74,-48.563 L 340.68,-49.8516 L 340.583,-51.1576 L 340.437,-52.4636 L 340.231,-53.7348 L 340.001,-54.9712"/>
      <path style="fill: #788e96; fill-opacity: 1; stroke: none" fill-rule="evenodd" d="M 245.258 -61.536 L 244.325,-77.922 L 243.658,-77.8349 L 242.992,-77.7305 L 242.325,-77.5563 L 241.671,-77.3474 L 241.028,-77.1036 L 240.398,-76.825 L 239.768,-76.4941 L 239.162,-76.1284 L 238.58,-75.7279 L 237.999,-75.2752 L 237.441,-74.7876 L 236.908,-74.2826 L 236.387,-73.7428 L 235.902,-73.1507 L 235.442,-72.5587 L 235.005,-71.9318 L 234.581,-71.2701 L 234.206,-70.5736 L 233.842,-69.877 L 233.515,-69.1282 L 233.224,-68.3621 L 232.957,-67.5959 L 232.715,-66.8297 L 232.521,-66.0287 L 232.351,-65.2102 L 232.218,-64.3918 L 232.109,-63.5734 L 232.048,-62.7375 L 232.012,-61.9017 L 232.024,-61.0658 L 232.048,-60.23 L 232.121,-59.3942 L 232.23,-58.5583 L 232.364,-57.7399 L 232.533,-56.9215 L 232.739,-56.1379 L 232.982,-55.3543 L 233.248,-54.5881 L 233.551,-53.8393 L 233.878,-53.0905 L 234.242,-52.394 L 234.63,-51.7149 L 235.042,-51.0531 L 235.49,-50.4089 L 235.963,-49.8168 L 236.46,-49.2422 L 236.969,-48.7023 L 237.514,-48.1974 L 238.071,-47.7272 L 238.641,-47.257 L 239.235,-46.8913 L 245.258,-61.536z"/>
      <path style="fill: none; stroke-opacity: 1; stroke-width: 0.02; stroke: #364749" d="M 244.337 -77.922 L 243.682,-77.8349 L 243.016,-77.7305 L 242.374,-77.5737 L 241.731,-77.3648 L 241.101,-77.1384 L 240.471,-76.8598 L 239.853,-76.5289 L 239.259,-76.1807 L 238.677,-75.7976 L 238.108,-75.3622 L 237.562,-74.8921 L 237.029,-74.4045 L 236.52,-73.8821 L 236.023,-73.3249 L 235.563,-72.7154 L 235.127,-72.1233 L 234.715,-71.479 L 234.315,-70.7999 L 233.963,-70.1034 L 233.636,-69.4069 L 233.333,-68.6755 L 233.054,-67.9267 L 232.8,-67.1605 L 232.594,-66.3943 L 232.412,-65.5933 L 232.267,-64.7749 L 232.145,-63.9739 L 232.073,-63.1729 L 232.024,-62.337 L 232.012,-61.5012 L 232.024,-60.7002 L 232.085,-59.8643 L 232.158,-59.0459 L 232.267,-58.2449 L 232.424,-57.4439 L 232.594,-56.6603 L 232.812,-55.8767 L 233.066,-55.0931 L 233.333,-54.3617 L 233.636,-53.6129 L 233.975,-52.899 L 234.339,-52.2198 L 234.727,-51.5407 L 235.127,-50.9138 L 235.575,-50.287 L 236.048,-49.7123 L 236.532,-49.1551 L 237.041,-48.6327 L 237.575,-48.1277 L 238.12,-47.675 L 238.689,-47.2396 L 239.271,-46.8217"/>
      <path style="fill: #788e96; fill-opacity: 1; stroke: none" fill-rule="evenodd" d="M 294.362 -35.1373 L 266.78,-33.2393 L 266.95,-32.2815 L 267.192,-31.3238 L 267.507,-30.3835 L 267.883,-29.478 L 268.332,-28.5376 L 268.853,-27.6496 L 269.422,-26.7789 L 270.064,-25.9256 L 270.767,-25.1072 L 271.519,-24.2714 L 272.343,-23.5226 L 273.203,-22.7564 L 274.148,-22.0424 L 275.13,-21.3459 L 276.16,-20.7016 L 277.214,-20.1096 L 278.354,-19.5349 L 279.517,-18.9951 L 280.705,-18.5075 L 281.916,-18.0548 L 283.189,-17.6369 L 284.486,-17.2712 L 285.807,-16.9577 L 287.14,-16.6617 L 288.497,-16.4353 L 289.866,-16.2612 L 291.236,-16.1219 L 292.641,-16.0522 L 294.023,-16 L 295.417,-16.0174 L 296.81,-16.0871 L 298.204,-16.209 L 299.561,-16.3309 L 300.931,-16.5572 L 302.288,-16.8184 L 303.609,-17.097 L 304.918,-17.4627 L 306.19,-17.8458 L 307.438,-18.2812 L 308.65,-18.7339 L 309.826,-19.2737 L 310.965,-19.8135 L 312.055,-20.423 L 313.11,-21.0499 L 314.103,-21.729 L 315.061,-22.4255 L 315.97,-23.1569 L 316.818,-23.9231 L 317.594,-24.7067 L 318.333,-25.5425 L 318.999,-26.361 L 319.617,-27.2142 L 320.151,-28.1023 L 320.623,-29.0252 L 294.362,-35.1373z"/>
      <path style="fill: none; stroke-opacity: 1; stroke-width: 0.02; stroke: #364749" d="M 266.78 -33.2044 L 266.95,-32.2641 L 267.192,-31.3238 L 267.507,-30.366 L 267.883,-29.4431 L 268.332,-28.5202 L 268.853,-27.6496 L 269.434,-26.7789 L 270.064,-25.9082 L 270.767,-25.1072 L 271.519,-24.2714 L 272.343,-23.5226 L 273.203,-22.7564 L 274.161,-22.0424 L 275.118,-21.3459 L 276.16,-20.7016 L 277.214,-20.1096 L 278.354,-19.5349 L 279.493,-18.9951 L 280.705,-18.5075 L 281.916,-18.0548 L 283.177,-17.6369 L 284.461,-17.2712 L 285.782,-16.9577 L 287.115,-16.6965 L 288.485,-16.4353 L 289.842,-16.2786 L 291.224,-16.1219 L 292.593,-16.0697 L 294.011,-16 L 295.392,-16.0174 L 296.786,-16.0871 L 298.18,-16.209 L 299.549,-16.3309 L 300.906,-16.5572 L 302.251,-16.8184 L 303.572,-17.097 L 304.869,-17.4279 L 306.142,-17.8458 L 307.402,-18.2637 L 308.602,-18.7339 L 309.777,-19.2563 L 310.928,-19.7961 L 312.019,-20.4056 L 313.073,-21.0151 L 314.079,-21.7116 L 315.012,-22.3907 L 315.921,-23.1395 L 316.757,-23.8883 L 317.569,-24.6893 L 318.296,-25.4729 L 318.975,-26.3436 L 319.557,-27.1968 L 320.126,-28.0849 L 320.611,-28.973"/>
    </g>
    <g>
      <polyline style="fill: none; stroke-opacity: 1; stroke-width: 2; stroke: #000000" points="267.344,324.24 267.344,335.36 268,335.36 268,482.014 "/>
      <polygon style="fill: #000000; fill-opacity: 1; stroke-opacity: 1; stroke-width: 2; stroke: #000000" fill-rule="evenodd" points="268,489.514 263,479.514 268,482.014 273,479.514 "/>
    </g>
    <g>
      <polyline style="fill: none; stroke-opacity: 1; stroke-width: 2; stroke: #000000" points="267.344,324.24 267.344,334.75 379,334.75 379,472.014 "/>
      <polygon style="fill: #000000; fill-opacity: 1; stroke-opacity: 1; stroke-width: 2; stroke: #000000" fill-rule="evenodd" points="379,479.514 374,469.514 379,472.014 384,469.514 "/>
    </g>
    <g>
      <polygon style="fill: #ffffff; fill-opacity: 1; stroke-opacity: 1; stroke-width: 2; stroke: #000000" fill-rule="evenodd" points="401,87 484,87 496,99 496,121 401,121 "/>
      <polyline style="fill: none; stroke-opacity: 1; stroke-width: 1; stroke: #000000" points="484,87 484,99 496,99 "/>
      <text font-size="12.8" style="fill: #000000; fill-opacity: 1; stroke: none;text-anchor:start;font-family:monospace;font-style:normal;font-weight:normal" x="408" y="111.9">
        <tspan x="408" y="111.9">ISP Device</tspan>
      </text>
    </g>
    <g>
      <polyline style="fill: none; stroke-opacity: 1; stroke-width: 2; stroke-dasharray: 8; stroke: #000000" points="401.018,104 361.509,104 361.509,104 320.705,104 "/>
      <polyline style="fill: none; stroke-opacity: 1; stroke-width: 2; stroke: #000000" points="333.353,99 317.353,104 333.353,109 "/>
    </g>
    <g>
      <polygon style="fill: #ffffff; fill-opacity: 1; stroke-opacity: 1; stroke-width: 2; stroke: #000000" fill-rule="evenodd" points="422.9,-90.9 582.9,-90.9 594.9,-78.9 594.9,-24.9 422.9,-24.9 "/>
      <polyline style="fill: none; stroke-opacity: 1; stroke-width: 1; stroke: #000000" points="582.9,-90.9 582.9,-78.9 594.9,-78.9 "/>
      <text font-size="12.8" style="fill: #000000; fill-opacity: 1; stroke: none;text-anchor:start;font-family:monospace;font-style:normal;font-weight:normal" x="429.9" y="-66">
        <tspan x="429.9" y="-66">ISP's Network</tspan>
        <tspan x="429.9" y="-50">(Can be an upstream </tspan>
        <tspan xml:space="preserve" x="429.9" y="-34"> double NAT or not)</tspan>
      </text>
    </g>
    <g>
      <polyline style="fill: none; stroke-opacity: 1; stroke-width: 2; stroke-dasharray: 8; stroke: #000000" points="422.909,-57.9 387.454,-57.9 387.454,-58.9937 350.705,-58.9937 "/>
      <polyline style="fill: none; stroke-opacity: 1; stroke-width: 2; stroke: #000000" points="363.353,-63.9937 347.353,-58.9937 363.353,-53.9937 "/>
    </g>
    <g>
      <polygon style="fill: #ffffff; fill-opacity: 1; stroke-opacity: 1; stroke-width: 2; stroke: #000000" fill-rule="evenodd" points="404.9,275.1 518.7,275.1 530.7,287.1 530.7,309.1 404.9,309.1 "/>
      <polyline style="fill: none; stroke-opacity: 1; stroke-width: 1; stroke: #000000" points="518.7,275.1 518.7,287.1 530.7,287.1 "/>
      <text font-size="12.8" style="fill: #000000; fill-opacity: 1; stroke: none;text-anchor:start;font-family:monospace;font-style:normal;font-weight:normal" x="411.9" y="300">
        <tspan x="411.9" y="300">OpenWrt Router</tspan>
      </text>
    </g>
    <g>
      <polyline style="fill: none; stroke-opacity: 1; stroke-width: 2; stroke-dasharray: 8; stroke: #000000" points="404.894,292.1 364.622,292.1 364.622,291.564 322.551,291.564 "/>
      <polyline style="fill: none; stroke-opacity: 1; stroke-width: 2; stroke: #000000" points="335.199,286.564 319.199,291.564 335.199,296.564 "/>
    </g>
    <g>
      <polygon style="fill: #ffffff; fill-opacity: 1; stroke-opacity: 1; stroke-width: 2; stroke: #000000" fill-rule="evenodd" points="490.954,409.1 704.854,409.1 716.854,421.1 716.854,443.1 490.954,443.1 "/>
      <polyline style="fill: none; stroke-opacity: 1; stroke-width: 1; stroke: #000000" points="704.854,409.1 704.854,421.1 716.854,421.1 "/>
      <text font-size="12.8" style="fill: #000000; fill-opacity: 1; stroke: none;text-anchor:start;font-family:monospace;font-style:normal;font-weight:normal" x="497.954" y="434">
        <tspan x="497.954" y="434">Your devices / Your Network</tspan>
      </text>
    </g>
    <g>
      <polyline style="fill: none; stroke-opacity: 1; stroke-width: 2; stroke-dasharray: 8; stroke: #000000" points="490.956,426.1 450.676,426.1 450.676,425.564 408.605,425.564 "/>
      <polyline style="fill: none; stroke-opacity: 1; stroke-width: 2; stroke: #000000" points="421.253,420.564 405.253,425.564 421.253,430.564 "/>
    </g>
    <g>
      <polyline style="fill: none; stroke-opacity: 1; stroke-width: 2; stroke: #000000" points="649,-88 649,97.5 649,97.5 649,273.264 "/>
      <polygon style="fill: #000000; fill-opacity: 1; stroke-opacity: 1; stroke-width: 2; stroke: #000000" fill-rule="evenodd" points="649,280.764 644,270.764 649,273.264 654,270.764 "/>
    </g>
    <text font-size="12.8" style="fill: #000000; fill-opacity: 1; stroke: none;text-anchor:start;font-family:sans-serif;font-style:normal;font-weight:normal" x="672" y="106">
      <tspan x="672" y="106">Toward your network</tspan>
      <tspan x="672" y="122">/ your devices is </tspan>
      <tspan x="672" y="138">Down Stream</tspan>
    </text>
  </g>
</svg>
