<?xml version="1.0" encoding="UTF-8" standalone="no"?>
<!DOCTYPE svg PUBLIC "-//W3C//DTD SVG 1.0//EN" "http://www.w3.org/TR/2001/PR-SVG-20010719/DTD/svg10.dtd">
<svg width="26cm" height="31cm" viewBox="89 25 504 605" xmlns="http://www.w3.org/2000/svg" xmlns:xlink="http://www.w3.org/1999/xlink">
  <g id="Background">
    <g>
      <path style="fill: none; stroke-opacity: 1; stroke-width: 0.8; stroke: #00aed9" d="M 286.659 409.492 L 286.659,366.349"/>
      <path style="fill: none; stroke-opacity: 1; stroke-width: 4; stroke: #00aed9" d="M 286.659 408.796 L 286.659,379.202"/>
      <path style="fill: #000000; fill-opacity: 1; stroke: none" fill-rule="evenodd" d="M 287.912 370.494 L 285.274,370.494 L 285.274,365.22 L 287.912,365.22 L 287.912,370.494z"/>
      <path style="fill: none; stroke-opacity: 1; stroke-width: 2; stroke: #00aed9" d="M 287.912 370.494 L 285.274,370.494 L 285.274,365.22 L 287.912,365.22 L 287.912,370.494"/>
      <path style="fill: none; stroke-opacity: 1; stroke-width: 0.8; stroke: #00aed9" d="M 222.708 409.492 L 222.708,366.349"/>
      <path style="fill: none; stroke-opacity: 1; stroke-width: 4; stroke: #00aed9" d="M 222.708 408.796 L 222.708,379.202"/>
      <path style="fill: #000000; fill-opacity: 1; stroke: none" fill-rule="evenodd" d="M 223.961 370.494 L 221.324,370.494 L 221.324,365.22 L 223.961,365.22 L 223.961,370.494z"/>
      <path style="fill: none; stroke-opacity: 1; stroke-width: 2; stroke: #00aed9" d="M 223.961 370.494 L 221.324,370.494 L 221.324,365.22 L 223.961,365.22 L 223.961,370.494"/>
      <path style="fill: #00aed9; fill-opacity: 1; stroke: none" fill-rule="evenodd" d="M 304.547 414.97 C 304.547,425.386 282.832,433.831 256.044,433.831 C 229.256,433.831 207.542,425.386 207.542,414.97 L 207.542,442.596 C 207.542,453.016 229.256,461.46 256.044,461.46 C 282.832,461.46 304.547,453.016 304.547,442.596 L 304.547,414.97z"/>
      <path style="fill: none; stroke-opacity: 1; stroke-width: 0.8; stroke: #ffffff" d="M 304.547 414.97 C 304.547,425.386 282.832,433.831 256.044,433.831 C 229.256,433.831 207.542,425.386 207.542,414.97 L 207.542,442.596 C 207.542,453.016 229.256,461.46 256.044,461.46 C 282.832,461.46 304.547,453.016 304.547,442.596 L 304.547,414.97"/>
      <path style="fill: #00aed9; fill-opacity: 1; stroke: none" fill-rule="evenodd" d="M 256.044 433.831 C 282.832,433.831 304.547,425.386 304.547,414.97 C 304.547,404.55 282.832,396.106 256.044,396.106 C 229.256,396.106 207.542,404.55 207.542,414.97 C 207.542,425.386 229.256,433.831 256.044,433.831z"/>
      <path style="fill: none; stroke-opacity: 1; stroke-width: 0.8; stroke: #ffffff" d="M 256.044 433.831 C 282.832,433.831 304.547,425.386 304.547,414.97 C 304.547,404.55 282.832,396.106 256.044,396.106 C 229.256,396.106 207.542,404.55 207.542,414.97 C 207.542,425.386 229.256,433.831 256.044,433.831"/>
      <path style="fill: #ffffff; fill-opacity: 1; stroke: none" fill-rule="evenodd" d="M 244.968 407.594 L 248.974,413.601 L 233.832,417.1 L 237.139,414.347 L 213.734,410.347 L 219.607,405.945 L 242.189,409.769 L 244.968,407.594z"/>
      <path style="fill: #ffffff; fill-opacity: 1; stroke: none" fill-rule="evenodd" d="M 266.279 422.161 L 263.544,415.969 L 277.202,413.24 L 274.834,415.36 L 297.6,419.25 L 292.141,423.619 L 269.507,419.371 L 266.279,422.161z"/>
      <path style="fill: #ffffff; fill-opacity: 1; stroke: none" fill-rule="evenodd" d="M 258.808 404.313 L 274.109,400.125 L 274.288,406.684 L 270.467,405.953 L 262.996,412.145 L 255.873,411.106 L 263.579,405.049 L 258.808,404.313z"/>
      <path style="fill: #ffffff; fill-opacity: 1; stroke: none" fill-rule="evenodd" d="M 252.252 427.81 L 237.685,430.539 L 237.139,423.804 L 241.324,424.711 L 249.343,417.863 L 256.443,419.065 L 247.882,426.534 L 252.252,427.81z"/>
    </g>
    <g>
      <path style="fill: #b7b79d; fill-opacity: 1; stroke: none" fill-rule="evenodd" d="M 230.848 201.189 L 230.848,224.965 L 283.021,224.965 L 283.021,201.189 L 230.848,201.189z"/>
      <path style="fill: none; stroke-opacity: 1; stroke-width: 0.02; stroke: #494936" d="M 230.848 201.189 L 230.848,224.623 L 283.021,224.623 L 283.021,201.189 L 230.848,201.189"/>
      <path style="fill: #7a7a5a; fill-opacity: 1; stroke: none" fill-rule="evenodd" d="M 283.021 224.965 L 283.021,201.189 L 299.382,184.965 L 299.382,208.73 L 283.021,224.965z"/>
      <path style="fill: none; stroke-opacity: 1; stroke-width: 0.02; stroke: #494936" d="M 283.021 224.623 L 283.021,201.189 L 299.188,185.159 L 299.188,208.936 L 283.352,224.623 L 283.021,224.623"/>
      <path style="fill: #c9c9b6; fill-opacity: 1; stroke: none" fill-rule="evenodd" d="M 230.848 201.189 L 246.855,184.965 L 299.382,184.965 L 283.021,201.189 L 230.848,201.189z"/>
      <path style="fill: none; stroke-opacity: 1; stroke-width: 0.02; stroke: #494936" d="M 230.848 201.189 L 246.855,184.965 L 299.188,184.965 L 299.188,185.159 L 283.021,201.189 L 230.848,201.189"/>
      <path style="fill: #ff000c; fill-opacity: 1; stroke: none" fill-rule="evenodd" d="M 241.504 213.237 L 241.504,213.077 L 241.47,212.894 L 241.458,212.723 L 241.413,212.564 L 241.39,212.392 L 241.333,212.221 L 241.287,212.062 L 241.219,211.902 L 241.15,211.742 L 241.07,211.582 L 240.968,211.434 L 240.888,211.297 L 240.785,211.172 L 240.683,211.046 L 240.557,210.898 L 240.432,210.772 L 240.306,210.67 L 240.169,210.544 L 240.032,210.453 L 239.895,210.35 L 239.747,210.282 L 239.587,210.191 L 239.416,210.133 L 239.256,210.065 L 239.097,209.997 L 238.937,209.951 L 238.766,209.905 L 238.606,209.882 L 238.412,209.871 L 238.252,209.848 L 238.081,209.848 L 238.081,209.848 L 237.899,209.848 L 237.739,209.871 L 237.545,209.882 L 237.385,209.905 L 237.226,209.951 L 237.043,209.997 L 236.895,210.065 L 236.724,210.133 L 236.564,210.191 L 236.404,210.282 L 236.267,210.35 L 236.119,210.453 L 235.982,210.544 L 235.845,210.67 L 235.708,210.772 L 235.594,210.898 L 235.48,211.046 L 235.366,211.172 L 235.263,211.297 L 235.183,211.434 L 235.081,211.582 L 235.012,211.742 L 234.921,211.902 L 234.875,212.062 L 234.818,212.221 L 234.761,212.392 L 234.727,212.564 L 234.693,212.723 L 234.681,212.894 L 234.659,213.077 L 234.659,213.237 L 234.659,213.237 L 234.659,213.419 L 234.681,213.579 L 234.693,213.75 L 234.727,213.933 L 234.761,214.092 L 234.818,214.252 L 234.875,214.412 L 234.921,214.572 L 235.012,214.731 L 235.081,214.891 L 235.183,215.039 L 235.263,215.176 L 235.366,215.325 L 235.48,215.45 L 235.594,215.576 L 235.708,215.701 L 235.845,215.815 L 235.982,215.929 L 236.119,216.021 L 236.267,216.123 L 236.404,216.214 L 236.564,216.283 L 236.724,216.351 L 236.895,216.431 L 237.043,216.465 L 237.226,216.534 L 237.385,216.568 L 237.545,216.591 L 237.739,216.625 L 237.899,216.637 L 238.081,216.637 L 238.081,216.637 L 238.252,216.637 L 238.412,216.625 L 238.606,216.591 L 238.766,216.568 L 238.937,216.534 L 239.097,216.465 L 239.256,216.431 L 239.416,216.351 L 239.587,216.283 L 239.747,216.214 L 239.895,216.123 L 240.032,216.021 L 240.169,215.929 L 240.306,215.815 L 240.432,215.701 L 240.557,215.576 L 240.683,215.45 L 240.785,215.325 L 240.888,215.176 L 240.968,215.039 L 241.07,214.891 L 241.15,214.731 L 241.219,214.572 L 241.287,214.412 L 241.333,214.252 L 241.39,214.092 L 241.413,213.933 L 241.458,213.75 L 241.47,213.579 L 241.504,213.419 L 241.504,213.237z"/>
      <path style="fill: none; stroke-opacity: 1; stroke-width: 0.02; stroke: #550000" d="M 241.128 212.883 L 241.128,212.701 L 241.116,212.541 L 241.093,212.358 L 241.07,212.199 L 241.036,212.027 L 240.979,211.868 L 240.911,211.708 L 240.877,211.537 L 240.785,211.4 L 240.694,211.217 L 240.614,211.08 L 240.523,210.932 L 240.409,210.795 L 240.317,210.67 L 240.215,210.544 L 240.078,210.419 L 239.941,210.293 L 239.815,210.191 L 239.667,210.099 L 239.53,209.997 L 239.393,209.905 L 239.234,209.814 L 239.074,209.757 L 238.903,209.689 L 238.743,209.654 L 238.583,209.597 L 238.401,209.563 L 238.23,209.529 L 238.047,209.495 L 237.887,209.472 L 237.705,209.472 L 237.705,209.472 L 237.545,209.472 L 237.363,209.495 L 237.191,209.529 L 237.02,209.563 L 236.838,209.597 L 236.689,209.654 L 236.518,209.689 L 236.347,209.757 L 236.187,209.814 L 236.051,209.905 L 235.902,209.997 L 235.754,210.099 L 235.617,210.191 L 235.48,210.293 L 235.366,210.419 L 235.229,210.544 L 235.115,210.67 L 235.012,210.795 L 234.898,210.932 L 234.807,211.08 L 234.704,211.217 L 234.624,211.4 L 234.556,211.537 L 234.51,211.708 L 234.453,211.868 L 234.408,212.027 L 234.373,212.199 L 234.339,212.358 L 234.305,212.541 L 234.282,212.701 L 234.282,212.883 L 234.282,212.883 L 234.282,213.043 L 234.305,213.214 L 234.339,213.396 L 234.373,213.556 L 234.408,213.739 L 234.453,213.898 L 234.51,214.058 L 234.556,214.218 L 234.624,214.378 L 234.704,214.537 L 234.807,214.674 L 234.898,214.823 L 235.012,214.959 L 235.115,215.085 L 235.229,215.233 L 235.366,215.359 L 235.48,215.45 L 235.617,215.576 L 235.754,215.655 L 235.902,215.77 L 236.051,215.838 L 236.187,215.929 L 236.347,215.998 L 236.518,216.055 L 236.689,216.123 L 236.838,216.157 L 237.02,216.214 L 237.191,216.226 L 237.363,216.272 L 237.545,216.272 L 237.705,216.272 L 237.705,216.272 L 237.887,216.272 L 238.047,216.272 L 238.23,216.226 L 238.401,216.214 L 238.583,216.157 L 238.743,216.123 L 238.903,216.055 L 239.074,215.998 L 239.234,215.929 L 239.393,215.838 L 239.53,215.77 L 239.667,215.655 L 239.815,215.576 L 239.941,215.45 L 240.078,215.359 L 240.215,215.233 L 240.317,215.085 L 240.409,214.959 L 240.523,214.823 L 240.614,214.674 L 240.694,214.537 L 240.785,214.378 L 240.877,214.218 L 240.911,214.058 L 240.979,213.898 L 241.036,213.739 L 241.07,213.556 L 241.093,213.396 L 241.116,213.214 L 241.128,213.043 L 241.128,212.883"/>
      <path style="fill: #ff000c; fill-opacity: 1; stroke: none" fill-rule="evenodd" d="M 251.019 213.237 L 251.019,213.077 L 251.008,212.894 L 250.996,212.723 L 250.951,212.564 L 250.928,212.392 L 250.882,212.221 L 250.814,212.062 L 250.768,211.902 L 250.7,211.742 L 250.631,211.582 L 250.529,211.434 L 250.449,211.297 L 250.357,211.172 L 250.243,211.046 L 250.152,210.898 L 250.027,210.772 L 249.89,210.67 L 249.776,210.544 L 249.65,210.453 L 249.502,210.35 L 249.365,210.282 L 249.217,210.191 L 249.068,210.133 L 248.92,210.065 L 248.772,209.997 L 248.6,209.951 L 248.452,209.905 L 248.292,209.882 L 248.133,209.871 L 247.962,209.848 L 247.802,209.848 L 247.802,209.848 L 247.642,209.848 L 247.46,209.871 L 247.311,209.882 L 247.151,209.905 L 246.992,209.951 L 246.821,209.997 L 246.672,210.065 L 246.535,210.133 L 246.387,210.191 L 246.239,210.282 L 246.09,210.35 L 245.954,210.453 L 245.817,210.544 L 245.691,210.67 L 245.577,210.772 L 245.452,210.898 L 245.349,211.046 L 245.246,211.172 L 245.143,211.297 L 245.064,211.434 L 244.961,211.582 L 244.892,211.742 L 244.824,211.902 L 244.778,212.062 L 244.721,212.221 L 244.676,212.392 L 244.619,212.564 L 244.607,212.723 L 244.596,212.894 L 244.573,213.077 L 244.573,213.237 L 244.573,213.237 L 244.573,213.419 L 244.596,213.579 L 244.607,213.75 L 244.619,213.933 L 244.676,214.092 L 244.721,214.252 L 244.778,214.412 L 244.824,214.572 L 244.892,214.731 L 244.961,214.891 L 245.064,215.039 L 245.143,215.176 L 245.246,215.325 L 245.349,215.45 L 245.452,215.576 L 245.577,215.701 L 245.691,215.815 L 245.817,215.929 L 245.954,216.021 L 246.09,216.123 L 246.239,216.214 L 246.387,216.283 L 246.535,216.351 L 246.672,216.431 L 246.821,216.465 L 246.992,216.534 L 247.151,216.568 L 247.311,216.591 L 247.46,216.625 L 247.642,216.637 L 247.802,216.637 L 247.802,216.637 L 247.962,216.637 L 248.133,216.625 L 248.292,216.591 L 248.452,216.568 L 248.6,216.534 L 248.772,216.465 L 248.92,216.431 L 249.068,216.351 L 249.217,216.283 L 249.365,216.214 L 249.502,216.123 L 249.65,216.021 L 249.776,215.929 L 249.89,215.815 L 250.027,215.701 L 250.152,215.576 L 250.243,215.45 L 250.357,215.325 L 250.449,215.176 L 250.529,215.039 L 250.631,214.891 L 250.7,214.731 L 250.768,214.572 L 250.814,214.412 L 250.882,214.252 L 250.928,214.092 L 250.951,213.933 L 250.996,213.75 L 251.008,213.579 L 251.019,213.419 L 251.019,213.237z"/>
      <path style="fill: none; stroke-opacity: 1; stroke-width: 0.02; stroke: #550000" d="M 250.665 212.883 L 250.665,212.701 L 250.643,212.541 L 250.643,212.358 L 250.597,212.199 L 250.563,212.027 L 250.517,211.868 L 250.46,211.708 L 250.426,211.537 L 250.346,211.4 L 250.289,211.217 L 250.209,211.08 L 250.129,210.932 L 250.027,210.795 L 249.947,210.67 L 249.821,210.544 L 249.719,210.419 L 249.593,210.293 L 249.49,210.191 L 249.353,210.099 L 249.228,209.997 L 249.102,209.905 L 248.954,209.814 L 248.817,209.757 L 248.68,209.689 L 248.532,209.654 L 248.384,209.597 L 248.224,209.563 L 248.076,209.529 L 247.916,209.495 L 247.779,209.472 L 247.608,209.472 L 247.608,209.472 L 247.46,209.472 L 247.311,209.495 L 247.151,209.529 L 247.003,209.563 L 246.855,209.597 L 246.718,209.654 L 246.535,209.689 L 246.398,209.757 L 246.262,209.814 L 246.136,209.905 L 246.011,209.997 L 245.885,210.099 L 245.748,210.191 L 245.611,210.293 L 245.509,210.419 L 245.394,210.544 L 245.292,210.67 L 245.189,210.795 L 245.109,210.932 L 245.029,211.08 L 244.95,211.217 L 244.881,211.4 L 244.801,211.537 L 244.744,211.708 L 244.71,211.868 L 244.664,212.027 L 244.619,212.199 L 244.596,212.358 L 244.584,212.541 L 244.573,212.701 L 244.573,212.883 L 244.573,212.883 L 244.573,213.043 L 244.584,213.214 L 244.596,213.396 L 244.619,213.556 L 244.664,213.739 L 244.71,213.898 L 244.744,214.058 L 244.801,214.218 L 244.881,214.378 L 244.95,214.537 L 245.029,214.674 L 245.109,214.823 L 245.189,214.959 L 245.292,215.085 L 245.394,215.233 L 245.509,215.359 L 245.611,215.45 L 245.748,215.576 L 245.885,215.655 L 246.011,215.77 L 246.136,215.838 L 246.262,215.929 L 246.398,215.998 L 246.535,216.055 L 246.718,216.123 L 246.855,216.157 L 247.003,216.214 L 247.151,216.226 L 247.311,216.272 L 247.46,216.272 L 247.608,216.272 L 247.608,216.272 L 247.779,216.272 L 247.916,216.272 L 248.076,216.226 L 248.224,216.214 L 248.384,216.157 L 248.532,216.123 L 248.68,216.055 L 248.817,215.998 L 248.954,215.929 L 249.102,215.838 L 249.228,215.77 L 249.353,215.655 L 249.49,215.576 L 249.593,215.45 L 249.719,215.359 L 249.821,215.233 L 249.947,215.085 L 250.027,214.959 L 250.129,214.823 L 250.209,214.674 L 250.289,214.537 L 250.346,214.378 L 250.426,214.218 L 250.46,214.058 L 250.517,213.898 L 250.563,213.739 L 250.597,213.556 L 250.643,213.396 L 250.643,213.214 L 250.665,213.043 L 250.665,212.883"/>
      <path style="fill: #ff000c; fill-opacity: 1; stroke: none" fill-rule="evenodd" d="M 260.911 213.237 L 260.911,213.077 L 260.877,212.894 L 260.865,212.723 L 260.842,212.564 L 260.797,212.392 L 260.751,212.221 L 260.705,212.062 L 260.637,211.902 L 260.557,211.742 L 260.489,211.582 L 260.375,211.434 L 260.295,211.297 L 260.203,211.172 L 260.078,211.046 L 259.975,210.898 L 259.85,210.772 L 259.724,210.67 L 259.576,210.544 L 259.439,210.453 L 259.302,210.35 L 259.154,210.282 L 258.994,210.191 L 258.846,210.133 L 258.663,210.065 L 258.515,209.997 L 258.344,209.951 L 258.184,209.905 L 258.013,209.882 L 257.83,209.871 L 257.659,209.848 L 257.488,209.848 L 257.488,209.848 L 257.306,209.848 L 257.146,209.871 L 256.975,209.882 L 256.804,209.905 L 256.644,209.951 L 256.473,209.997 L 256.302,210.065 L 256.142,210.133 L 255.993,210.191 L 255.834,210.282 L 255.663,210.35 L 255.526,210.453 L 255.389,210.544 L 255.263,210.67 L 255.138,210.772 L 255.012,210.898 L 254.875,211.046 L 254.784,211.172 L 254.693,211.297 L 254.59,211.434 L 254.499,211.582 L 254.419,211.742 L 254.351,211.902 L 254.282,212.062 L 254.225,212.221 L 254.168,212.392 L 254.145,212.564 L 254.1,212.723 L 254.088,212.894 L 254.065,213.077 L 254.065,213.237 L 254.065,213.237 L 254.065,213.419 L 254.088,213.579 L 254.1,213.75 L 254.145,213.933 L 254.168,214.092 L 254.225,214.252 L 254.282,214.412 L 254.351,214.572 L 254.419,214.731 L 254.499,214.891 L 254.59,215.039 L 254.693,215.176 L 254.784,215.325 L 254.875,215.45 L 255.012,215.576 L 255.138,215.701 L 255.263,215.815 L 255.389,215.929 L 255.526,216.021 L 255.663,216.123 L 255.834,216.214 L 255.993,216.283 L 256.142,216.351 L 256.302,216.431 L 256.473,216.465 L 256.644,216.534 L 256.804,216.568 L 256.975,216.591 L 257.146,216.625 L 257.306,216.637 L 257.488,216.637 L 257.488,216.637 L 257.659,216.637 L 257.83,216.625 L 258.013,216.591 L 258.184,216.568 L 258.344,216.534 L 258.515,216.465 L 258.663,216.431 L 258.846,216.351 L 258.994,216.283 L 259.154,216.214 L 259.302,216.123 L 259.439,216.021 L 259.576,215.929 L 259.724,215.815 L 259.85,215.701 L 259.975,215.576 L 260.078,215.45 L 260.203,215.325 L 260.295,215.176 L 260.375,215.039 L 260.489,214.891 L 260.557,214.731 L 260.637,214.572 L 260.705,214.412 L 260.751,214.252 L 260.797,214.092 L 260.842,213.933 L 260.865,213.75 L 260.877,213.579 L 260.911,213.419 L 260.911,213.237z"/>
      <path style="fill: none; stroke-opacity: 1; stroke-width: 0.02; stroke: #550000" d="M 260.557 212.883 L 260.557,212.701 L 260.546,212.541 L 260.511,212.358 L 260.477,212.199 L 260.432,212.027 L 260.375,211.868 L 260.34,211.708 L 260.283,211.537 L 260.215,211.4 L 260.124,211.217 L 260.044,211.08 L 259.941,210.932 L 259.838,210.795 L 259.724,210.67 L 259.61,210.544 L 259.485,210.419 L 259.359,210.293 L 259.222,210.191 L 259.085,210.099 L 258.937,209.997 L 258.789,209.905 L 258.64,209.814 L 258.481,209.757 L 258.309,209.689 L 258.15,209.654 L 257.99,209.597 L 257.807,209.563 L 257.648,209.529 L 257.477,209.495 L 257.306,209.472 L 257.134,209.472 L 257.134,209.472 L 256.952,209.472 L 256.792,209.495 L 256.621,209.529 L 256.438,209.563 L 256.267,209.597 L 256.096,209.654 L 255.936,209.689 L 255.788,209.757 L 255.617,209.814 L 255.446,209.905 L 255.309,209.997 L 255.172,210.099 L 255.024,210.191 L 254.887,210.293 L 254.761,210.419 L 254.636,210.544 L 254.522,210.67 L 254.419,210.795 L 254.316,210.932 L 254.225,211.08 L 254.145,211.217 L 254.054,211.4 L 253.963,211.537 L 253.917,211.708 L 253.86,211.868 L 253.803,212.027 L 253.769,212.199 L 253.734,212.358 L 253.723,212.541 L 253.712,212.701 L 253.712,212.883 L 253.712,212.883 L 253.712,213.043 L 253.723,213.214 L 253.734,213.396 L 253.769,213.556 L 253.803,213.739 L 253.86,213.898 L 253.917,214.058 L 253.963,214.218 L 254.054,214.378 L 254.145,214.537 L 254.225,214.674 L 254.316,214.823 L 254.419,214.959 L 254.522,215.085 L 254.636,215.233 L 254.761,215.359 L 254.887,215.45 L 255.024,215.576 L 255.172,215.655 L 255.309,215.77 L 255.446,215.838 L 255.617,215.929 L 255.788,215.998 L 255.936,216.055 L 256.096,216.123 L 256.267,216.157 L 256.438,216.214 L 256.621,216.226 L 256.792,216.272 L 256.952,216.272 L 257.134,216.272 L 257.134,216.272 L 257.306,216.272 L 257.477,216.272 L 257.648,216.226 L 257.807,216.214 L 257.99,216.157 L 258.15,216.123 L 258.309,216.055 L 258.481,215.998 L 258.64,215.929 L 258.789,215.838 L 258.937,215.77 L 259.085,215.655 L 259.222,215.576 L 259.359,215.45 L 259.485,215.359 L 259.61,215.233 L 259.724,215.085 L 259.838,214.959 L 259.941,214.823 L 260.044,214.674 L 260.124,214.537 L 260.215,214.378 L 260.283,214.218 L 260.34,214.058 L 260.375,213.898 L 260.432,213.739 L 260.477,213.556 L 260.511,213.396 L 260.546,213.214 L 260.557,213.043 L 260.557,212.883"/>
      <path style="fill: #ff000c; fill-opacity: 1; stroke: none" fill-rule="evenodd" d="M 270.426 213.237 L 270.426,213.077 L 270.414,212.894 L 270.403,212.723 L 270.357,212.564 L 270.323,212.392 L 270.278,212.221 L 270.221,212.062 L 270.163,211.902 L 270.106,211.742 L 270.027,211.582 L 269.935,211.434 L 269.855,211.297 L 269.764,211.172 L 269.639,211.046 L 269.547,210.898 L 269.422,210.772 L 269.308,210.67 L 269.171,210.544 L 269.045,210.453 L 268.908,210.35 L 268.772,210.282 L 268.623,210.191 L 268.475,210.133 L 268.327,210.065 L 268.178,209.997 L 268.007,209.951 L 267.859,209.905 L 267.699,209.882 L 267.539,209.871 L 267.357,209.848 L 267.209,209.848 L 267.209,209.848 L 267.049,209.848 L 266.866,209.871 L 266.718,209.882 L 266.558,209.905 L 266.398,209.951 L 266.227,209.997 L 266.068,210.065 L 265.931,210.133 L 265.782,210.191 L 265.634,210.282 L 265.497,210.35 L 265.36,210.453 L 265.223,210.544 L 265.086,210.67 L 264.972,210.772 L 264.858,210.898 L 264.756,211.046 L 264.641,211.172 L 264.55,211.297 L 264.459,211.434 L 264.368,211.582 L 264.288,211.742 L 264.231,211.902 L 264.174,212.062 L 264.128,212.221 L 264.071,212.392 L 264.037,212.564 L 264.003,212.723 L 263.991,212.894 L 263.968,213.077 L 263.968,213.237 L 263.968,213.237 L 263.968,213.419 L 263.991,213.579 L 264.003,213.75 L 264.037,213.933 L 264.071,214.092 L 264.128,214.252 L 264.174,214.412 L 264.231,214.572 L 264.288,214.731 L 264.368,214.891 L 264.459,215.039 L 264.55,215.176 L 264.641,215.325 L 264.756,215.45 L 264.858,215.576 L 264.972,215.701 L 265.086,215.815 L 265.223,215.929 L 265.36,216.021 L 265.497,216.123 L 265.634,216.214 L 265.782,216.283 L 265.931,216.351 L 266.068,216.431 L 266.227,216.465 L 266.398,216.534 L 266.558,216.568 L 266.718,216.591 L 266.866,216.625 L 267.049,216.637 L 267.209,216.637 L 267.209,216.637 L 267.357,216.637 L 267.539,216.625 L 267.699,216.591 L 267.859,216.568 L 268.007,216.534 L 268.178,216.465 L 268.327,216.431 L 268.475,216.351 L 268.623,216.283 L 268.772,216.214 L 268.908,216.123 L 269.045,216.021 L 269.171,215.929 L 269.308,215.815 L 269.422,215.701 L 269.547,215.576 L 269.639,215.45 L 269.764,215.325 L 269.855,215.176 L 269.935,215.039 L 270.027,214.891 L 270.106,214.731 L 270.163,214.572 L 270.221,214.412 L 270.278,214.252 L 270.323,214.092 L 270.357,213.933 L 270.403,213.75 L 270.414,213.579 L 270.426,213.419 L 270.426,213.237z"/>
      <path style="fill: none; stroke-opacity: 1; stroke-width: 0.02; stroke: #550000" d="M 270.072 212.883 L 270.072,212.701 L 270.061,212.541 L 270.049,212.358 L 270.027,212.199 L 269.981,212.027 L 269.935,211.868 L 269.901,211.708 L 269.833,211.537 L 269.776,211.4 L 269.684,211.217 L 269.616,211.08 L 269.525,210.932 L 269.433,210.795 L 269.342,210.67 L 269.251,210.544 L 269.137,210.419 L 269,210.293 L 268.908,210.191 L 268.772,210.099 L 268.635,209.997 L 268.509,209.905 L 268.349,209.814 L 268.224,209.757 L 268.098,209.689 L 267.927,209.654 L 267.779,209.597 L 267.642,209.563 L 267.494,209.529 L 267.345,209.495 L 267.186,209.472 L 267.037,209.472 L 267.037,209.472 L 266.866,209.472 L 266.718,209.495 L 266.57,209.529 L 266.41,209.563 L 266.262,209.597 L 266.125,209.654 L 265.965,209.689 L 265.828,209.757 L 265.703,209.814 L 265.543,209.905 L 265.417,209.997 L 265.28,210.099 L 265.143,210.191 L 265.052,210.293 L 264.927,210.419 L 264.801,210.544 L 264.71,210.67 L 264.619,210.795 L 264.516,210.932 L 264.436,211.08 L 264.356,211.217 L 264.288,211.4 L 264.219,211.537 L 264.151,211.708 L 264.128,211.868 L 264.071,212.027 L 264.037,212.199 L 264.003,212.358 L 263.991,212.541 L 263.98,212.701 L 263.98,212.883 L 263.98,212.883 L 263.98,213.043 L 263.991,213.214 L 264.003,213.396 L 264.037,213.556 L 264.071,213.739 L 264.128,213.898 L 264.151,214.058 L 264.219,214.218 L 264.288,214.378 L 264.356,214.537 L 264.436,214.674 L 264.516,214.823 L 264.619,214.959 L 264.71,215.085 L 264.801,215.233 L 264.927,215.359 L 265.052,215.45 L 265.143,215.576 L 265.28,215.655 L 265.417,215.77 L 265.543,215.838 L 265.703,215.929 L 265.828,215.998 L 265.965,216.055 L 266.125,216.123 L 266.262,216.157 L 266.41,216.214 L 266.57,216.226 L 266.718,216.272 L 266.866,216.272 L 267.037,216.272 L 267.037,216.272 L 267.186,216.272 L 267.345,216.272 L 267.494,216.226 L 267.642,216.214 L 267.779,216.157 L 267.927,216.123 L 268.098,216.055 L 268.224,215.998 L 268.349,215.929 L 268.509,215.838 L 268.635,215.77 L 268.772,215.655 L 268.908,215.576 L 269,215.45 L 269.137,215.359 L 269.251,215.233 L 269.342,215.085 L 269.433,214.959 L 269.525,214.823 L 269.616,214.674 L 269.684,214.537 L 269.776,214.378 L 269.833,214.218 L 269.901,214.058 L 269.935,213.898 L 269.981,213.739 L 270.027,213.556 L 270.049,213.396 L 270.061,213.214 L 270.072,213.043 L 270.072,212.883"/>
      <path style="fill: #ff000c; fill-opacity: 1; stroke: none" fill-rule="evenodd" d="M 280.34 213.237 L 280.34,213.077 L 280.317,212.894 L 280.295,212.723 L 280.26,212.564 L 280.226,212.392 L 280.181,212.221 L 280.124,212.062 L 280.055,211.902 L 279.975,211.742 L 279.907,211.582 L 279.815,211.434 L 279.724,211.297 L 279.622,211.172 L 279.519,211.046 L 279.405,210.898 L 279.268,210.772 L 279.131,210.67 L 279.005,210.544 L 278.869,210.453 L 278.732,210.35 L 278.583,210.282 L 278.412,210.191 L 278.264,210.133 L 278.104,210.065 L 277.944,209.997 L 277.773,209.951 L 277.614,209.905 L 277.442,209.882 L 277.26,209.871 L 277.089,209.848 L 276.906,209.848 L 276.906,209.848 L 276.746,209.848 L 276.564,209.871 L 276.393,209.882 L 276.21,209.905 L 276.051,209.951 L 275.891,209.997 L 275.731,210.065 L 275.56,210.133 L 275.412,210.191 L 275.252,210.282 L 275.104,210.35 L 274.967,210.453 L 274.83,210.544 L 274.693,210.67 L 274.556,210.772 L 274.419,210.898 L 274.316,211.046 L 274.202,211.172 L 274.111,211.297 L 274.02,211.434 L 273.917,211.582 L 273.849,211.742 L 273.769,211.902 L 273.7,212.062 L 273.643,212.221 L 273.598,212.392 L 273.563,212.564 L 273.541,212.723 L 273.518,212.894 L 273.483,213.077 L 273.483,213.237 L 273.483,213.237 L 273.483,213.419 L 273.518,213.579 L 273.541,213.75 L 273.563,213.933 L 273.598,214.092 L 273.643,214.252 L 273.7,214.412 L 273.769,214.572 L 273.849,214.731 L 273.917,214.891 L 274.02,215.039 L 274.111,215.176 L 274.202,215.325 L 274.316,215.45 L 274.419,215.576 L 274.556,215.701 L 274.693,215.815 L 274.83,215.929 L 274.967,216.021 L 275.104,216.123 L 275.252,216.214 L 275.412,216.283 L 275.56,216.351 L 275.731,216.431 L 275.891,216.465 L 276.051,216.534 L 276.21,216.568 L 276.393,216.591 L 276.564,216.625 L 276.746,216.637 L 276.906,216.637 L 276.906,216.637 L 277.089,216.637 L 277.26,216.625 L 277.442,216.591 L 277.614,216.568 L 277.773,216.534 L 277.944,216.465 L 278.104,216.431 L 278.264,216.351 L 278.412,216.283 L 278.583,216.214 L 278.732,216.123 L 278.869,216.021 L 279.005,215.929 L 279.131,215.815 L 279.268,215.701 L 279.405,215.576 L 279.519,215.45 L 279.622,215.325 L 279.724,215.176 L 279.815,215.039 L 279.907,214.891 L 279.975,214.731 L 280.055,214.572 L 280.124,214.412 L 280.181,214.252 L 280.226,214.092 L 280.26,213.933 L 280.295,213.75 L 280.317,213.579 L 280.34,213.419 L 280.34,213.237z"/>
      <path style="fill: none; stroke-opacity: 1; stroke-width: 0.02; stroke: #550000" d="M 279.964 212.883 L 279.964,212.701 L 279.952,212.541 L 279.907,212.358 L 279.895,212.199 L 279.861,212.027 L 279.815,211.868 L 279.747,211.708 L 279.69,211.537 L 279.61,211.4 L 279.542,211.217 L 279.45,211.08 L 279.336,210.932 L 279.245,210.795 L 279.154,210.67 L 279.04,210.544 L 278.914,210.419 L 278.766,210.293 L 278.629,210.191 L 278.492,210.099 L 278.344,209.997 L 278.207,209.905 L 278.058,209.814 L 277.899,209.757 L 277.739,209.689 L 277.556,209.654 L 277.408,209.597 L 277.237,209.563 L 277.055,209.529 L 276.883,209.495 L 276.701,209.472 L 276.541,209.472 L 276.541,209.472 L 276.37,209.472 L 276.187,209.495 L 276.016,209.529 L 275.845,209.563 L 275.674,209.597 L 275.526,209.654 L 275.343,209.689 L 275.183,209.757 L 275.024,209.814 L 274.875,209.905 L 274.727,209.997 L 274.567,210.099 L 274.442,210.191 L 274.316,210.293 L 274.191,210.419 L 274.054,210.544 L 273.928,210.67 L 273.837,210.795 L 273.734,210.932 L 273.632,211.08 L 273.552,211.217 L 273.461,211.4 L 273.392,211.537 L 273.335,211.708 L 273.278,211.868 L 273.232,212.027 L 273.198,212.199 L 273.164,212.358 L 273.13,212.541 L 273.118,212.701 L 273.118,212.883 L 273.118,212.883 L 273.118,213.043 L 273.13,213.214 L 273.164,213.396 L 273.198,213.556 L 273.232,213.739 L 273.278,213.898 L 273.335,214.058 L 273.392,214.218 L 273.461,214.378 L 273.552,214.537 L 273.632,214.674 L 273.734,214.823 L 273.837,214.959 L 273.928,215.085 L 274.054,215.233 L 274.191,215.359 L 274.316,215.45 L 274.442,215.576 L 274.567,215.655 L 274.727,215.77 L 274.875,215.838 L 275.024,215.929 L 275.183,215.998 L 275.343,216.055 L 275.526,216.123 L 275.674,216.157 L 275.845,216.214 L 276.016,216.226 L 276.187,216.272 L 276.37,216.272 L 276.541,216.272 L 276.541,216.272 L 276.701,216.272 L 276.883,216.272 L 277.055,216.226 L 277.237,216.214 L 277.408,216.157 L 277.556,216.123 L 277.739,216.055 L 277.899,215.998 L 278.058,215.929 L 278.207,215.838 L 278.344,215.77 L 278.492,215.655 L 278.629,215.576 L 278.766,215.45 L 278.914,215.359 L 279.04,215.233 L 279.154,215.085 L 279.245,214.959 L 279.336,214.823 L 279.45,214.674 L 279.542,214.537 L 279.61,214.378 L 279.69,214.218 L 279.747,214.058 L 279.815,213.898 L 279.861,213.739 L 279.895,213.556 L 279.907,213.396 L 279.952,213.214 L 279.964,213.043 L 279.964,212.883"/>
    </g>
    <g>
      <polyline style="fill: none; stroke-opacity: 1; stroke-width: 2; stroke: #000000" points="256.044,461.46 256.044,471.97 182.7,471.97 182.7,611.234 "/>
      <polygon style="fill: #000000; fill-opacity: 1; stroke-opacity: 1; stroke-width: 2; stroke: #000000" fill-rule="evenodd" points="182.7,618.734 177.7,608.734 182.7,611.234 187.7,608.734 "/>
    </g>
    <polyline style="fill: none; stroke-opacity: 1; stroke-width: 2; stroke: #000000" points="283.352,224.965 283.352,310.338 255.727,310.338 255.727,395.711 "/>
    <g>
      <polyline style="fill: none; stroke-opacity: 1; stroke-width: 2; stroke: #000000" points="256.044,461.46 256.044,471.97 96.7,471.97 96.7,603.484 "/>
      <polygon style="fill: #000000; fill-opacity: 1; stroke-opacity: 1; stroke-width: 2; stroke: #000000" fill-rule="evenodd" points="96.7,610.984 91.7,600.984 96.7,603.484 101.7,600.984 "/>
    </g>
    <polyline style="fill: none; stroke-opacity: 1; stroke-width: 2; stroke: #000000" points="271.876,121.22 271.876,176.22 273.118,176.22 273.118,184.965 "/>
    <g>
      <path style="fill: #788e96; fill-opacity: 1; stroke: none" fill-rule="evenodd" d="M 307.542 44.9145 L 307.505,43.9046 L 307.421,42.8946 L 307.263,41.902 L 307.045,40.9269 L 306.766,39.9517 L 306.427,38.994 L 306.027,38.0537 L 305.579,37.1308 L 305.057,36.2253 L 304.476,35.3372 L 303.858,34.4839 L 303.179,33.6481 L 302.452,32.8471 L 301.664,32.0635 L 300.84,31.3321 L 299.98,30.6181 L 299.059,29.9564 L 298.101,29.347 L 297.108,28.7201 L 296.066,28.1803 L 294.999,27.6753 L 293.921,27.2051 L 292.806,26.7872 L 291.654,26.4215 L 290.491,26.1081 L 289.303,25.8295 L 288.104,25.6031 L 286.892,25.429 L 285.668,25.2897 L 284.432,25.22 L 283.183,25.22 L 283.183,25.22 L 281.972,25.22 L 280.735,25.2897 L 279.512,25.429 L 278.3,25.6031 L 277.1,25.8295 L 275.912,26.1081 L 274.749,26.4215 L 273.598,26.7872 L 272.483,27.2051 L 271.368,27.6753 L 270.314,28.1803 L 269.296,28.7201 L 268.302,29.347 L 267.344,29.9564 L 266.423,30.6181 L 265.563,31.3321 L 264.727,32.0635 L 263.951,32.8471 L 263.224,33.6481 L 262.533,34.4839 L 261.903,35.3372 L 261.346,36.2253 L 260.825,37.1308 L 260.364,38.0537 L 259.976,38.994 L 259.637,39.9517 L 259.358,40.9269 L 259.14,41.902 L 258.983,42.8946 L 258.886,43.9046 L 258.849,44.9145 L 258.849,44.9145 L 258.886,45.8897 L 258.983,46.8997 L 259.14,47.8748 L 259.358,48.85 L 259.637,49.8251 L 259.976,50.7829 L 260.364,51.7232 L 260.825,52.6635 L 261.346,53.569 L 261.903,54.4571 L 262.533,55.3103 L 263.224,56.1462 L 263.951,56.9472 L 264.727,57.7134 L 265.563,58.4622 L 266.423,59.1761 L 267.344,59.8378 L 268.302,60.4821 L 269.296,61.0567 L 270.314,61.614 L 271.368,62.119 L 272.483,62.5891 L 273.598,62.9896 L 274.749,63.3727 L 275.912,63.6862 L 277.1,63.9648 L 278.3,64.1912 L 279.512,64.3653 L 280.735,64.5046 L 281.972,64.5743 L 283.183,64.6091 L 283.183,64.6091 L 284.432,64.5743 L 285.668,64.5046 L 286.892,64.3653 L 288.104,64.1912 L 289.303,63.9648 L 290.491,63.6862 L 291.654,63.3727 L 292.806,62.9896 L 293.921,62.5891 L 294.999,62.119 L 296.066,61.614 L 297.108,61.0567 L 298.101,60.4821 L 299.059,59.8378 L 299.98,59.1761 L 300.84,58.4622 L 301.664,57.7134 L 302.452,56.9472 L 303.179,56.1462 L 303.858,55.3103 L 304.476,54.4571 L 305.057,53.569 L 305.579,52.6635 L 306.027,51.7232 L 306.427,50.7829 L 306.766,49.8251 L 307.045,48.85 L 307.263,47.8748 L 307.421,46.8997 L 307.505,45.8897 L 307.542,44.9145z"/>
      <path style="fill: #788e96; fill-opacity: 1; stroke: none" fill-rule="evenodd" d="M 269.38 55.2233 L 269.356,54.2133 L 269.283,53.2207 L 269.174,52.2282 L 269.005,51.253 L 268.787,50.2779 L 268.532,49.3201 L 268.217,48.3972 L 267.866,47.4395 L 267.478,46.5514 L 267.041,45.6459 L 266.557,44.8101 L 266.036,43.9568 L 265.466,43.1732 L 264.884,42.407 L 264.254,41.6582 L 263.563,40.9443 L 262.885,40.2652 L 262.133,39.6383 L 261.382,39.0462 L 260.594,38.5064 L 259.77,38.0014 L 258.934,37.5313 L 258.074,37.1133 L 257.201,36.7477 L 256.304,36.4168 L 255.396,36.1556 L 254.487,35.9292 L 253.541,35.7725 L 252.608,35.6158 L 251.663,35.5461 L 250.718,35.5113 L 250.718,35.5113 L 249.785,35.5461 L 248.839,35.6158 L 247.906,35.7725 L 246.961,35.9292 L 246.04,36.1556 L 245.143,36.4168 L 244.246,36.7477 L 243.362,37.1133 L 242.501,37.5313 L 241.665,38.0014 L 240.853,38.5064 L 240.066,39.0462 L 239.302,39.6383 L 238.563,40.2652 L 237.872,40.9443 L 237.193,41.6582 L 236.563,42.407 L 235.969,43.1732 L 235.412,43.9568 L 234.879,44.8101 L 234.406,45.6459 L 233.97,46.5514 L 233.57,47.4395 L 233.231,48.3972 L 232.916,49.3201 L 232.649,50.2779 L 232.443,51.253 L 232.273,52.2282 L 232.164,53.2207 L 232.079,54.2133 L 232.067,55.2233 L 232.067,55.2233 L 232.079,56.2332 L 232.164,57.2084 L 232.273,58.201 L 232.443,59.1761 L 232.649,60.1513 L 232.916,61.1264 L 233.231,62.0493 L 233.57,62.9896 L 233.97,63.8777 L 234.406,64.7832 L 234.879,65.6365 L 235.412,66.4723 L 235.969,67.2733 L 236.563,68.0395 L 237.193,68.7709 L 237.872,69.5022 L 238.563,70.164 L 239.302,70.8082 L 240.066,71.3829 L 240.853,71.9227 L 241.665,72.4451 L 242.501,72.8979 L 243.362,73.3158 L 244.246,73.6815 L 245.143,74.0123 L 246.04,74.2909 L 246.961,74.5173 L 247.906,74.674 L 248.839,74.8133 L 249.785,74.883 L 250.718,74.9178 L 250.718,74.9178 L 251.663,74.883 L 252.608,74.8133 L 253.541,74.674 L 254.487,74.5173 L 255.396,74.2909 L 256.304,74.0123 L 257.201,73.6815 L 258.074,73.3158 L 258.934,72.8979 L 259.77,72.4451 L 260.594,71.9227 L 261.382,71.3829 L 262.133,70.8082 L 262.885,70.164 L 263.563,69.5022 L 264.254,68.7709 L 264.884,68.0395 L 265.466,67.2733 L 266.036,66.4723 L 266.557,65.6365 L 267.041,64.7832 L 267.478,63.8777 L 267.866,62.9896 L 268.217,62.0493 L 268.532,61.1264 L 268.787,60.1513 L 269.005,59.1761 L 269.174,58.201 L 269.283,57.2084 L 269.356,56.2332 L 269.38,55.2233z"/>
      <path style="fill: #788e96; fill-opacity: 1; stroke: none" fill-rule="evenodd" d="M 245.858 75.3183 L 245.834,74.5173 L 245.798,73.6815 L 245.713,72.8804 L 245.592,72.0794 L 245.446,71.2784 L 245.276,70.5122 L 245.07,69.7286 L 244.84,68.9798 L 244.574,68.2311 L 244.271,67.5171 L 243.956,66.8206 L 243.604,66.1415 L 243.216,65.4797 L 242.816,64.8355 L 242.392,64.2434 L 241.944,63.6688 L 241.471,63.1115 L 240.974,62.6065 L 240.465,62.119 L 239.932,61.6836 L 239.375,61.2657 L 238.817,60.8826 L 238.236,60.5343 L 237.642,60.2557 L 237.048,59.9771 L 236.43,59.7507 L 235.812,59.5592 L 235.182,59.4199 L 234.552,59.3328 L 233.921,59.2806 L 233.279,59.2458 L 233.279,59.2458 L 232.637,59.2806 L 232.007,59.3328 L 231.376,59.4199 L 230.746,59.5592 L 230.128,59.7507 L 229.51,59.9771 L 228.916,60.2557 L 228.323,60.5343 L 227.741,60.8826 L 227.171,61.2657 L 226.626,61.6836 L 226.093,62.119 L 225.584,62.6065 L 225.087,63.1115 L 224.614,63.6688 L 224.166,64.2434 L 223.742,64.8355 L 223.33,65.4797 L 222.954,66.1415 L 222.603,66.8206 L 222.288,67.5171 L 221.985,68.2311 L 221.718,68.9798 L 221.488,69.7286 L 221.282,70.5122 L 221.112,71.2784 L 220.967,72.0794 L 220.845,72.8804 L 220.761,73.6815 L 220.724,74.5173 L 220.7,75.3183 L 220.7,75.3183 L 220.724,76.1193 L 220.761,76.9378 L 220.845,77.7388 L 220.967,78.5398 L 221.112,79.3408 L 221.282,80.1244 L 221.488,80.8906 L 221.718,81.6568 L 221.985,82.3881 L 222.288,83.1195 L 222.603,83.816 L 222.954,84.4952 L 223.33,85.1743 L 223.742,85.7838 L 224.166,86.3758 L 224.614,86.9505 L 225.087,87.5077 L 225.584,88.0127 L 226.093,88.5002 L 226.626,88.953 L 227.171,89.3709 L 227.741,89.754 L 228.323,90.0849 L 228.916,90.3983 L 229.51,90.6421 L 230.128,90.8685 L 230.746,91.06 L 231.376,91.1993 L 232.007,91.3038 L 232.637,91.356 L 233.279,91.3909 L 233.279,91.3909 L 233.921,91.356 L 234.552,91.3038 L 235.182,91.1993 L 235.812,91.06 L 236.43,90.8685 L 237.048,90.6421 L 237.642,90.3983 L 238.236,90.0849 L 238.817,89.754 L 239.375,89.3709 L 239.932,88.953 L 240.465,88.5002 L 240.974,88.0127 L 241.471,87.5077 L 241.944,86.9505 L 242.392,86.3758 L 242.816,85.7838 L 243.216,85.1743 L 243.604,84.4952 L 243.956,83.816 L 244.271,83.1195 L 244.574,82.3881 L 244.84,81.6568 L 245.07,80.8906 L 245.276,80.1244 L 245.446,79.3408 L 245.592,78.5398 L 245.713,77.7388 L 245.798,76.9378 L 245.834,76.1193 L 245.858,75.3183z"/>
      <path style="fill: #788e96; fill-opacity: 1; stroke: none" fill-rule="evenodd" d="M 266.145 90.7988 L 266.133,89.9281 L 266.048,89.0575 L 265.914,88.1694 L 265.757,87.2987 L 265.539,86.4455 L 265.284,85.6096 L 264.969,84.7564 L 264.618,83.9379 L 264.218,83.1543 L 263.769,82.3707 L 263.273,81.6045 L 262.764,80.8732 L 262.182,80.1766 L 261.588,79.4627 L 260.934,78.8184 L 260.267,78.2089 L 259.552,77.5995 L 258.813,77.0422 L 258.037,76.5198 L 257.238,76.0497 L 256.401,75.6143 L 255.553,75.179 L 254.681,74.8133 L 253.784,74.4825 L 252.887,74.2039 L 251.966,73.9775 L 251.033,73.7511 L 250.088,73.5944 L 249.13,73.4899 L 248.173,73.4377 L 247.215,73.4203 L 247.215,73.4203 L 246.258,73.4377 L 245.301,73.4899 L 244.343,73.5944 L 243.41,73.7511 L 242.465,73.9775 L 241.544,74.2039 L 240.647,74.4825 L 239.75,74.8133 L 238.878,75.179 L 238.03,75.6143 L 237.193,76.0497 L 236.394,76.5198 L 235.618,77.0422 L 234.879,77.5995 L 234.164,78.2089 L 233.497,78.8184 L 232.843,79.4627 L 232.249,80.1766 L 231.679,80.8732 L 231.146,81.6045 L 230.661,82.3707 L 230.213,83.1543 L 229.813,83.9379 L 229.462,84.7564 L 229.147,85.6096 L 228.88,86.4455 L 228.674,87.2987 L 228.504,88.1694 L 228.383,89.0575 L 228.298,89.9281 L 228.286,90.7988 L 228.286,90.7988 L 228.298,91.7043 L 228.383,92.575 L 228.504,93.4631 L 228.674,94.3337 L 228.88,95.187 L 229.147,96.0228 L 229.462,96.8587 L 229.813,97.6945 L 230.213,98.4607 L 230.661,99.2443 L 231.146,100.01 L 231.679,100.759 L 232.249,101.456 L 232.843,102.17 L 233.497,102.814 L 234.164,103.424 L 234.879,104.016 L 235.618,104.573 L 236.394,105.113 L 237.193,105.583 L 238.03,106.018 L 238.878,106.436 L 239.75,106.802 L 240.647,107.133 L 241.544,107.411 L 242.465,107.655 L 243.41,107.847 L 244.343,108.038 L 245.301,108.143 L 246.258,108.195 L 247.215,108.212 L 247.215,108.212 L 248.173,108.195 L 249.13,108.143 L 250.088,108.038 L 251.033,107.847 L 251.966,107.655 L 252.887,107.411 L 253.784,107.133 L 254.681,106.802 L 255.553,106.436 L 256.401,106.018 L 257.238,105.583 L 258.037,105.113 L 258.813,104.573 L 259.552,104.016 L 260.267,103.424 L 260.934,102.814 L 261.588,102.17 L 262.182,101.456 L 262.764,100.759 L 263.273,100.01 L 263.769,99.2443 L 264.218,98.4607 L 264.618,97.6945 L 264.969,96.8587 L 265.284,96.0228 L 265.539,95.187 L 265.757,94.3337 L 265.914,93.4631 L 266.048,92.575 L 266.133,91.7043 L 266.145,90.7988z"/>
      <path style="fill: #788e96; fill-opacity: 1; stroke: none" fill-rule="evenodd" d="M 311.589 99.8015 L 311.565,98.7567 L 311.444,97.7119 L 311.274,96.6845 L 311.02,95.6397 L 310.681,94.6472 L 310.305,93.6198 L 309.844,92.6272 L 309.311,91.6521 L 308.705,90.6943 L 308.051,89.7714 L 307.324,88.8833 L 306.536,88.0127 L 305.688,87.1594 L 304.779,86.341 L 303.821,85.5748 L 302.803,84.826 L 301.749,84.1295 L 300.634,83.4678 L 299.471,82.8409 L 298.283,82.2663 L 297.047,81.7439 L 295.787,81.2737 L 294.478,80.8384 L 293.145,80.4378 L 291.788,80.0896 L 290.406,79.811 L 289.025,79.5672 L 287.607,79.3756 L 286.189,79.2537 L 284.759,79.1667 L 283.329,79.1493 L 283.329,79.1493 L 281.899,79.1667 L 280.457,79.2537 L 279.051,79.3756 L 277.633,79.5672 L 276.252,79.811 L 274.858,80.0896 L 273.513,80.4378 L 272.18,80.8384 L 270.871,81.2737 L 269.611,81.7439 L 268.375,82.2663 L 267.175,82.8409 L 266.024,83.4678 L 264.909,84.1295 L 263.854,84.826 L 262.836,85.5748 L 261.879,86.341 L 260.97,87.1594 L 260.122,88.0127 L 259.334,88.8833 L 258.607,89.7714 L 257.953,90.6943 L 257.347,91.6521 L 256.813,92.6272 L 256.353,93.6198 L 255.965,94.6472 L 255.638,95.6397 L 255.383,96.6845 L 255.202,97.7119 L 255.093,98.7567 L 255.056,99.8015 L 255.056,99.8015 L 255.093,100.864 L 255.202,101.891 L 255.383,102.936 L 255.638,103.963 L 255.965,104.991 L 256.353,105.983 L 256.813,106.976 L 257.347,107.951 L 257.953,108.909 L 258.607,109.832 L 259.334,110.755 L 260.122,111.625 L 260.97,112.444 L 261.879,113.262 L 262.836,114.046 L 263.854,114.794 L 264.909,115.491 L 266.024,116.153 L 267.175,116.762 L 268.375,117.337 L 269.611,117.877 L 270.871,118.347 L 272.18,118.817 L 273.513,119.165 L 274.858,119.513 L 276.252,119.81 L 277.633,120.036 L 279.051,120.227 L 280.457,120.349 L 281.899,120.454 L 283.329,120.471 L 283.329,120.471 L 284.759,120.454 L 286.189,120.349 L 287.607,120.227 L 289.025,120.036 L 290.406,119.81 L 291.788,119.513 L 293.145,119.165 L 294.478,118.817 L 295.787,118.347 L 297.047,117.877 L 298.283,117.337 L 299.471,116.762 L 300.634,116.153 L 301.749,115.491 L 302.803,114.794 L 303.821,114.046 L 304.779,113.262 L 305.688,112.444 L 306.536,111.625 L 307.324,110.755 L 308.051,109.832 L 308.705,108.909 L 309.311,107.951 L 309.844,106.976 L 310.305,105.983 L 310.681,104.991 L 311.02,103.963 L 311.274,102.936 L 311.444,101.891 L 311.565,100.864 L 311.589,99.8015z"/>
      <path style="fill: #788e96; fill-opacity: 1; stroke: none" fill-rule="evenodd" d="M 327.295 52.1585 L 327.271,51.3923 L 327.198,50.6087 L 327.089,49.8251 L 326.919,49.0589 L 326.713,48.2927 L 326.459,47.5265 L 326.168,46.7778 L 325.829,46.0638 L 325.441,45.3499 L 325.017,44.6533 L 324.544,43.9742 L 324.047,43.3299 L 323.502,42.6856 L 322.92,42.0762 L 322.302,41.5015 L 321.66,40.9443 L 320.969,40.4045 L 320.266,39.9169 L 319.515,39.4642 L 318.752,39.0288 L 317.952,38.6283 L 317.14,38.28 L 316.316,37.9492 L 315.455,37.6532 L 314.583,37.4094 L 313.71,37.183 L 312.801,36.9914 L 311.892,36.8521 L 310.983,36.7477 L 310.075,36.6954 L 309.166,36.678 L 309.166,36.678 L 308.245,36.6954 L 307.336,36.7477 L 306.415,36.8521 L 305.518,36.9914 L 304.621,37.183 L 303.737,37.4094 L 302.864,37.6532 L 302.016,37.9492 L 301.18,38.28 L 300.368,38.6283 L 299.568,39.0288 L 298.792,39.4642 L 298.065,39.9169 L 297.35,40.4045 L 296.671,40.9443 L 296.029,41.5015 L 295.411,42.0762 L 294.829,42.6856 L 294.284,43.3299 L 293.787,43.9742 L 293.315,44.6533 L 292.878,45.3499 L 292.503,46.0638 L 292.163,46.7778 L 291.86,47.5265 L 291.618,48.2927 L 291.412,49.0589 L 291.242,49.8251 L 291.121,50.6087 L 291.061,51.3923 L 291.036,52.1585 L 291.036,52.1585 L 291.061,52.9595 L 291.121,53.7257 L 291.242,54.5093 L 291.412,55.2755 L 291.618,56.0417 L 291.86,56.7905 L 292.163,57.5392 L 292.503,58.2706 L 292.878,58.9846 L 293.315,59.6811 L 293.787,60.3602 L 294.284,61.0219 L 294.829,61.6314 L 295.411,62.2583 L 296.029,62.8329 L 296.671,63.4076 L 297.35,63.9125 L 298.065,64.4001 L 298.792,64.8703 L 299.568,65.3056 L 300.368,65.7061 L 301.18,66.0718 L 302.016,66.3852 L 302.864,66.6813 L 303.737,66.9425 L 304.621,67.1514 L 305.518,67.343 L 306.415,67.4823 L 307.336,67.5694 L 308.245,67.6216 L 309.166,67.6564 L 309.166,67.6564 L 310.075,67.6216 L 310.983,67.5694 L 311.892,67.4823 L 312.801,67.343 L 313.71,67.1514 L 314.583,66.9425 L 315.455,66.6813 L 316.316,66.3852 L 317.14,66.0718 L 317.952,65.7061 L 318.752,65.3056 L 319.515,64.8703 L 320.266,64.4001 L 320.969,63.9125 L 321.66,63.4076 L 322.302,62.8329 L 322.92,62.2583 L 323.502,61.6314 L 324.047,61.0219 L 324.544,60.3602 L 325.017,59.6811 L 325.441,58.9846 L 325.829,58.2706 L 326.168,57.5392 L 326.459,56.7905 L 326.713,56.0417 L 326.919,55.2755 L 327.089,54.5093 L 327.198,53.7257 L 327.271,52.9595 L 327.295,52.1585z"/>
      <path style="fill: #788e96; fill-opacity: 1; stroke: none" fill-rule="evenodd" d="M 332.421 72.062 L 332.409,71.2784 L 332.349,70.4948 L 332.227,69.7286 L 332.07,68.9624 L 331.864,68.1962 L 331.609,67.4475 L 331.318,66.6813 L 330.979,65.9499 L 330.591,65.236 L 330.179,64.5394 L 329.695,63.8603 L 329.21,63.1986 L 328.665,62.5717 L 328.095,61.9622 L 327.489,61.3702 L 326.847,60.8304 L 326.168,60.2906 L 325.453,59.8204 L 324.726,59.3328 L 323.962,58.8975 L 323.175,58.5144 L 322.375,58.1487 L 321.539,57.8179 L 320.703,57.5392 L 319.842,57.2606 L 318.958,57.0517 L 318.073,56.8775 L 317.176,56.7382 L 316.267,56.6337 L 315.358,56.5815 L 314.449,56.5641 L 314.449,56.5641 L 313.541,56.5815 L 312.632,56.6337 L 311.723,56.7382 L 310.826,56.8775 L 309.929,57.0517 L 309.069,57.2606 L 308.208,57.5392 L 307.348,57.8179 L 306.536,58.1487 L 305.724,58.5144 L 304.924,58.8975 L 304.173,59.3328 L 303.446,59.8204 L 302.731,60.2906 L 302.052,60.8304 L 301.422,61.3702 L 300.804,61.9622 L 300.234,62.5717 L 299.689,63.1986 L 299.192,63.8603 L 298.719,64.5394 L 298.307,65.236 L 297.932,65.9499 L 297.58,66.6813 L 297.277,67.4475 L 297.035,68.1962 L 296.817,68.9624 L 296.671,69.7286 L 296.562,70.4948 L 296.49,71.2784 L 296.465,72.062 L 296.465,72.062 L 296.49,72.8456 L 296.562,73.6118 L 296.671,74.4128 L 296.817,75.179 L 297.035,75.9452 L 297.277,76.694 L 297.58,77.4602 L 297.932,78.1741 L 298.307,78.8881 L 298.719,79.5846 L 299.192,80.2463 L 299.689,80.908 L 300.234,81.5349 L 300.804,82.1444 L 301.422,82.7364 L 302.052,83.2936 L 302.731,83.816 L 303.446,84.321 L 304.173,84.7738 L 304.924,85.2091 L 305.724,85.627 L 306.536,85.9753 L 307.348,86.2887 L 308.208,86.6022 L 309.069,86.846 L 309.929,87.0549 L 310.826,87.2465 L 311.723,87.3858 L 312.632,87.4729 L 313.541,87.5251 L 314.449,87.5773 L 314.449,87.5773 L 315.358,87.5251 L 316.267,87.4729 L 317.176,87.3858 L 318.073,87.2465 L 318.958,87.0549 L 319.842,86.846 L 320.703,86.6022 L 321.539,86.2887 L 322.375,85.9753 L 323.175,85.627 L 323.962,85.2091 L 324.726,84.7738 L 325.453,84.321 L 326.168,83.816 L 326.847,83.2936 L 327.489,82.7364 L 328.095,82.1444 L 328.665,81.5349 L 329.21,80.908 L 329.695,80.2463 L 330.179,79.5846 L 330.591,78.8881 L 330.979,78.1741 L 331.318,77.4602 L 331.609,76.694 L 331.864,75.9452 L 332.07,75.179 L 332.227,74.4128 L 332.349,73.6118 L 332.409,72.8456 L 332.421,72.062z"/>
      <path style="fill: #788e96; fill-opacity: 1; stroke: none" fill-rule="evenodd" d="M 328.919 88.5002 L 328.895,87.2117 L 328.834,85.9405 L 328.713,84.6519 L 328.555,83.3807 L 328.349,82.1444 L 328.095,80.8906 L 327.804,79.6717 L 327.477,78.4875 L 327.089,77.3034 L 326.665,76.1542 L 326.217,75.0571 L 325.72,73.9775 L 325.186,72.9327 L 324.617,71.9401 L 324.011,70.9824 L 323.369,70.0769 L 322.702,69.2062 L 321.999,68.3878 L 321.272,67.6216 L 320.509,66.9251 L 319.733,66.2808 L 318.933,65.6713 L 318.109,65.1489 L 317.261,64.6613 L 316.413,64.226 L 315.528,63.8777 L 314.655,63.5991 L 313.771,63.3727 L 312.874,63.1986 L 311.965,63.1115 L 311.056,63.0941 L 311.056,63.0941 L 310.147,63.1115 L 309.263,63.1986 L 308.366,63.3727 L 307.469,63.5991 L 306.597,63.8777 L 305.712,64.226 L 304.851,64.6613 L 304.015,65.1489 L 303.203,65.6713 L 302.404,66.2808 L 301.628,66.9251 L 300.864,67.6216 L 300.137,68.3878 L 299.434,69.2062 L 298.768,70.0769 L 298.114,70.9824 L 297.508,71.9401 L 296.95,72.9327 L 296.417,73.9775 L 295.908,75.0571 L 295.46,76.1542 L 295.035,77.3034 L 294.66,78.4875 L 294.32,79.6717 L 294.017,80.8906 L 293.787,82.1444 L 293.569,83.3807 L 293.412,84.6519 L 293.302,85.9405 L 293.23,87.2117 L 293.206,88.5002 L 293.206,88.5002 L 293.23,89.8063 L 293.302,91.0774 L 293.412,92.366 L 293.569,93.6372 L 293.787,94.891 L 294.017,96.1273 L 294.32,97.3637 L 294.66,98.5304 L 295.035,99.6971 L 295.46,100.864 L 295.908,101.961 L 296.417,103.04 L 296.95,104.085 L 297.508,105.095 L 298.114,106.036 L 298.768,106.958 L 299.434,107.829 L 300.137,108.63 L 300.864,109.379 L 301.628,110.11 L 302.404,110.755 L 303.203,111.347 L 304.015,111.886 L 304.851,112.357 L 305.712,112.775 L 306.597,113.123 L 307.469,113.419 L 308.366,113.645 L 309.263,113.819 L 310.147,113.924 L 311.056,113.941 L 311.056,113.941 L 311.965,113.924 L 312.874,113.819 L 313.771,113.645 L 314.655,113.419 L 315.528,113.123 L 316.413,112.775 L 317.261,112.357 L 318.109,111.886 L 318.933,111.347 L 319.733,110.755 L 320.509,110.11 L 321.272,109.379 L 321.999,108.63 L 322.702,107.829 L 323.369,106.958 L 324.011,106.036 L 324.617,105.095 L 325.186,104.085 L 325.72,103.04 L 326.217,101.961 L 326.665,100.864 L 327.089,99.6971 L 327.477,98.5304 L 327.804,97.3637 L 328.095,96.1273 L 328.349,94.891 L 328.555,93.6372 L 328.713,92.366 L 328.834,91.0774 L 328.895,89.8063 L 328.919,88.5002z"/>
      <path style="fill: #788e96; fill-opacity: 1; stroke: none" fill-rule="evenodd" d="M 313.48 73.2113 L 313.444,71.9227 L 313.31,70.6341 L 313.08,69.3455 L 312.753,68.0918 L 312.341,66.8206 L 311.82,65.6016 L 311.238,64.3653 L 310.559,63.1986 L 309.772,62.0145 L 308.935,60.8652 L 308.002,59.7507 L 306.996,58.6711 L 305.906,57.6437 L 304.742,56.6337 L 303.518,55.6934 L 302.222,54.7705 L 300.84,53.8998 L 299.434,53.0814 L 297.956,52.3326 L 296.417,51.6187 L 294.829,50.9744 L 293.206,50.3823 L 291.521,49.8251 L 289.837,49.3724 L 288.091,48.937 L 286.322,48.6062 L 284.541,48.2927 L 282.735,48.0664 L 280.905,47.8922 L 279.075,47.8052 L 277.245,47.7703 L 277.245,47.7703 L 275.391,47.8052 L 273.573,47.8922 L 271.756,48.0664 L 269.938,48.2927 L 268.156,48.6062 L 266.399,48.937 L 264.654,49.3724 L 262.945,49.8251 L 261.285,50.3823 L 259.649,50.9744 L 258.062,51.6187 L 256.535,52.3326 L 255.056,53.0814 L 253.626,53.8998 L 252.269,54.7705 L 250.972,55.6934 L 249.736,56.6337 L 248.573,57.6437 L 247.494,58.6711 L 246.476,59.7507 L 245.555,60.8652 L 244.695,62.0145 L 243.931,63.1986 L 243.253,64.3653 L 242.659,65.6016 L 242.15,66.8206 L 241.738,68.0918 L 241.411,69.3455 L 241.18,70.6341 L 241.035,71.9227 L 240.999,73.2113 L 240.999,73.2113 L 241.035,74.5173 L 241.18,75.7711 L 241.411,77.0597 L 241.738,78.3308 L 242.15,79.5846 L 242.659,80.8384 L 243.253,82.0399 L 243.931,83.2414 L 244.695,84.4255 L 245.555,85.5574 L 246.476,86.6544 L 247.494,87.7341 L 248.573,88.7789 L 249.736,89.7714 L 250.972,90.7292 L 252.269,91.6347 L 253.626,92.5053 L 255.056,93.3412 L 256.535,94.1074 L 258.062,94.7865 L 259.649,95.4482 L 261.285,96.0577 L 262.945,96.5801 L 264.654,97.0502 L 266.399,97.4856 L 268.156,97.8338 L 269.938,98.1473 L 271.756,98.3562 L 273.573,98.5129 L 275.391,98.6174 L 277.245,98.6348 L 277.245,98.6348 L 279.075,98.6174 L 280.905,98.5129 L 282.735,98.3562 L 284.541,98.1473 L 286.322,97.8338 L 288.091,97.4856 L 289.837,97.0502 L 291.521,96.5801 L 293.206,96.0577 L 294.829,95.4482 L 296.417,94.7865 L 297.956,94.1074 L 299.434,93.3412 L 300.84,92.5053 L 302.222,91.6347 L 303.518,90.7292 L 304.742,89.7714 L 305.906,88.7789 L 306.996,87.7341 L 308.002,86.6544 L 308.935,85.5574 L 309.772,84.4255 L 310.559,83.2414 L 311.238,82.0399 L 311.82,80.8384 L 312.341,79.5846 L 312.753,78.3308 L 313.08,77.0597 L 313.31,75.7711 L 313.444,74.5173 L 313.48,73.2113z"/>
      <path style="fill: #788e96; fill-opacity: 1; stroke: none" fill-rule="evenodd" d="M 283.474 45.0887 L 307.481,40.7005 L 307.178,39.7254 L 306.815,38.7676 L 306.391,37.8447 L 305.906,36.887 L 305.36,35.9815 L 304.755,35.1108 L 304.088,34.2401 L 303.409,33.4217 L 302.646,32.6207 L 301.846,31.8545 L 300.986,31.1057 L 300.101,30.444 L 299.156,29.7823 L 298.174,29.138 L 297.156,28.546 L 296.102,28.041 L 295.023,27.5186 L 293.908,27.0832 L 292.757,26.6827 L 291.594,26.317 L 290.406,26.0036 L 289.206,25.7598 L 287.995,25.5334 L 286.771,25.3767 L 285.522,25.2722 L 284.286,25.22 L 283.038,25.22 L 281.79,25.2374 L 280.542,25.3419 L 279.318,25.4812 L 278.106,25.6727 L 276.894,25.9339 L 275.694,26.2126 L 274.531,26.5608 L 273.392,26.9613 L 272.265,27.3967 L 271.15,27.8494 L 270.107,28.3892 L 269.077,28.9465 L 268.084,29.5733 L 267.126,30.2176 L 266.217,30.8968 L 265.357,31.6281 L 264.533,32.3943 L 263.769,33.1605 L 263.042,33.9963 L 262.364,34.8322 L 261.746,35.7203 L 261.2,36.6084 L 260.703,37.5313 L 260.255,38.489 L 259.879,39.4293 L 259.552,40.4045 L 259.286,41.3796 L 283.474,45.0887z"/>
      <path style="fill: none; stroke-opacity: 1; stroke-width: 0.02; stroke: #364749" d="M 307.469 40.6657 L 307.166,39.6905 L 306.803,38.7328 L 306.366,37.7751 L 305.882,36.8696 L 305.336,35.9466 L 304.742,35.076 L 304.088,34.2401 L 303.373,33.3869 L 302.622,32.6207 L 301.822,31.8545 L 300.961,31.0883 L 300.077,30.3918 L 299.132,29.7301 L 298.15,29.138 L 297.12,28.5285 L 296.09,28.0061 L 294.999,27.5186 L 293.872,27.0658 L 292.733,26.6479 L 291.594,26.2996 L 290.382,26.0036 L 289.194,25.7598 L 287.982,25.5334 L 286.746,25.3767 L 285.51,25.2722 L 284.274,25.22 L 283.026,25.22 L 281.79,25.2374 L 280.542,25.3419 L 279.318,25.4812 L 278.106,25.6727 L 276.894,25.9165 L 275.694,26.2126 L 274.531,26.5608 L 273.392,26.9613 L 272.265,27.3967 L 271.174,27.8494 L 270.12,28.3718 L 269.077,28.9465 L 268.096,29.5733 L 267.151,30.2176 L 266.242,30.8794 L 265.369,31.5933 L 264.557,32.3421 L 263.769,33.1605 L 263.042,33.9789 L 262.4,34.8148 L 261.758,35.6854 L 261.212,36.5909 L 260.716,37.5139 L 260.267,38.4368 L 259.879,39.3945 L 259.552,40.3696 L 259.298,41.3448"/>
      <path style="fill: #788e96; fill-opacity: 1; stroke: none" fill-rule="evenodd" d="M 250.863 55.4148 L 262.945,40.1781 L 262.194,39.5512 L 261.431,38.9592 L 260.619,38.4193 L 259.795,37.9144 L 258.946,37.4442 L 258.074,37.0437 L 257.189,36.678 L 256.28,36.3646 L 255.371,36.1034 L 254.438,35.8944 L 253.505,35.7203 L 252.56,35.5984 L 251.602,35.5461 L 250.657,35.5113 L 249.7,35.5461 L 248.755,35.668 L 247.809,35.7725 L 246.876,35.9815 L 245.955,36.2078 L 245.034,36.5039 L 244.137,36.8521 L 243.265,37.2178 L 242.404,37.6532 L 241.568,38.1233 L 240.744,38.6457 L 239.956,39.2029 L 239.193,39.8124 L 238.466,40.4567 L 237.763,41.1358 L 237.096,41.8672 L 236.466,42.6334 L 235.872,43.3996 L 235.315,44.218 L 234.806,45.0538 L 234.333,45.9419 L 233.897,46.83 L 233.509,47.7529 L 233.17,48.6932 L 232.867,49.651 L 232.613,50.6261 L 232.407,51.6013 L 232.249,52.5938 L 232.14,53.6212 L 232.079,54.5964 L 232.067,55.6064 L 232.104,56.6163 L 232.176,57.6089 L 232.31,58.6189 L 250.863,55.4148z"/>
      <path style="fill: none; stroke-opacity: 1; stroke-width: 0.02; stroke: #364749" d="M 262.885 40.1259 L 262.133,39.499 L 261.358,38.9243 L 260.57,38.3845 L 259.734,37.8795 L 258.886,37.4268 L 258.013,37.0263 L 257.128,36.6606 L 256.22,36.3472 L 255.311,36.1034 L 254.378,35.877 L 253.444,35.7029 L 252.499,35.5984 L 251.542,35.5461 L 250.597,35.5113 L 249.651,35.5636 L 248.694,35.668 L 247.749,35.7899 L 246.816,35.9815 L 245.895,36.2253 L 244.986,36.5387 L 244.089,36.8521 L 243.204,37.2527 L 242.368,37.6706 L 241.52,38.1581 L 240.708,38.6805 L 239.92,39.2552 L 239.157,39.8472 L 238.442,40.4741 L 237.739,41.1707 L 237.072,41.902 L 236.442,42.6508 L 235.848,43.4344 L 235.303,44.2528 L 234.782,45.0887 L 234.321,45.9942 L 233.885,46.8648 L 233.497,47.7877 L 233.158,48.7281 L 232.855,49.7032 L 232.613,50.6435 L 232.394,51.6535 L 232.249,52.6461 L 232.14,53.6386 L 232.079,54.6138 L 232.067,55.6412 L 232.104,56.6337 L 232.188,57.6437 L 232.31,58.6363"/>
      <path style="fill: #788e96; fill-opacity: 1; stroke: none" fill-rule="evenodd" d="M 247.482 90.9904 L 228.02,90.468 L 228.02,91.356 L 228.056,92.2615 L 228.153,93.167 L 228.286,94.0551 L 228.48,94.9432 L 228.723,95.8139 L 229.013,96.6845 L 229.341,97.5378 L 229.716,98.3562 L 230.14,99.1747 L 230.613,99.9931 L 231.122,100.759 L 231.679,101.508 L 232.261,102.205 L 232.903,102.919 L 233.57,103.58 L 234.273,104.19 L 235,104.782 L 235.776,105.356 L 236.563,105.861 L 237.399,106.349 L 238.236,106.837 L 239.108,107.22 L 240.017,107.603 L 240.926,107.934 L 241.847,108.195 L 242.792,108.439 L 243.75,108.63 L 244.719,108.769 L 245.689,108.909 L 246.67,108.944 L 247.652,108.961 L 248.621,108.926 L 249.603,108.856 L 250.572,108.735 L 251.542,108.595 L 252.487,108.369 L 253.42,108.108 L 254.353,107.829 L 255.262,107.463 L 256.147,107.08 L 257.019,106.662 L 257.856,106.21 L 258.668,105.705 L 259.455,105.165 L 260.219,104.59 L 247.482,90.9904z"/>
      <path style="fill: none; stroke-opacity: 1; stroke-width: 0.02; stroke: #364749" d="M 228.02 90.468 L 228.008,91.356 L 228.056,92.2615 L 228.153,93.1322 L 228.298,94.0377 L 228.48,94.9258 L 228.723,95.8139 L 229.001,96.6845 L 229.341,97.5204 L 229.716,98.3562 L 230.14,99.1572 L 230.613,99.9757 L 231.098,100.742 L 231.655,101.473 L 232.249,102.205 L 232.879,102.866 L 233.534,103.545 L 234.249,104.172 L 234.964,104.782 L 235.739,105.339 L 236.539,105.861 L 237.351,106.349 L 238.199,106.784 L 239.072,107.202 L 239.969,107.568 L 240.877,107.899 L 241.798,108.177 L 242.744,108.439 L 243.701,108.613 L 244.658,108.769 L 245.628,108.874 L 246.61,108.944 L 247.591,108.961 L 248.561,108.944 L 249.53,108.856 L 250.5,108.752 L 251.469,108.595 L 252.414,108.369 L 253.36,108.143 L 254.293,107.829 L 255.19,107.498 L 256.074,107.115 L 256.947,106.697 L 257.771,106.227 L 258.595,105.757 L 259.383,105.217 L 260.146,104.66"/>
      <path style="fill: #788e96; fill-opacity: 1; stroke: none" fill-rule="evenodd" d="M 309.432 52.1585 L 326.568,57.2084 L 326.847,56.4596 L 327.077,55.6934 L 327.271,54.9272 L 327.404,54.161 L 327.501,53.3949 L 327.55,52.5764 L 327.55,51.7928 L 327.501,51.0092 L 327.416,50.243 L 327.271,49.4768 L 327.089,48.6758 L 326.871,47.9271 L 326.592,47.1609 L 326.277,46.4295 L 325.914,45.7156 L 325.502,45.019 L 325.053,44.3051 L 324.568,43.6434 L 324.047,42.9991 L 323.478,42.3722 L 322.884,41.7801 L 322.254,41.2229 L 321.575,40.6657 L 320.884,40.1607 L 320.157,39.6905 L 319.394,39.2552 L 318.618,38.8199 L 317.806,38.4368 L 316.97,38.0885 L 316.134,37.7751 L 315.286,37.5139 L 314.389,37.2875 L 313.504,37.0785 L 312.607,36.9218 L 311.698,36.7999 L 310.79,36.7477 L 309.869,36.678 L 308.935,36.6954 L 308.027,36.7477 L 307.106,36.8173 L 306.209,36.9218 L 305.3,37.0959 L 304.415,37.2875 L 303.531,37.5313 L 309.432,52.1585z"/>
      <path style="fill: none; stroke-opacity: 1; stroke-width: 0.02; stroke: #364749" d="M 324.92 60.0468 L 326.556,57.2432 L 326.835,56.477 L 327.077,55.7283 L 327.259,54.9621 L 327.404,54.1785 L 327.501,53.4123 L 327.55,52.6461 L 327.562,51.8277 L 327.501,51.0441 L 327.416,50.2604 L 327.271,49.4768 L 327.113,48.7281 L 326.871,47.9619 L 326.592,47.2131 L 326.289,46.4643 L 325.926,45.733 L 325.526,45.0364 L 325.077,44.3399 L 324.593,43.6782 L 324.072,43.0339 L 323.514,42.407 L 322.92,41.815 L 322.29,41.2403 L 321.624,40.7005 L 320.909,40.1781 L 320.194,39.6905 L 319.43,39.2552 L 318.667,38.8373 L 317.855,38.4542 L 317.043,38.1059 L 316.194,37.7925 L 315.334,37.5139 L 314.449,37.2875 L 313.565,37.0785 L 312.656,36.9218 L 311.747,36.8173 L 310.826,36.7477 L 309.905,36.678 L 308.984,36.678 L 308.087,36.7477 L 307.166,36.8173 L 306.245,36.9218 L 305.348,37.0785 L 304.464,37.2875 L 303.567,37.5139"/>
      <path style="fill: #788e96; fill-opacity: 1; stroke: none" fill-rule="evenodd" d="M 311.868 72.6367 L 331.137,78.9925 L 331.537,78.1741 L 331.876,77.3557 L 332.155,76.485 L 332.373,75.6143 L 332.542,74.7437 L 332.652,73.8556 L 332.7,72.9501 L 332.688,72.0794 L 332.627,71.1913 L 332.506,70.3033 L 332.324,69.4326 L 332.082,68.5793 L 331.791,67.7087 L 331.44,66.8902 L 331.04,66.0544 L 330.591,65.2708 L 330.082,64.4524 L 329.525,63.7036 L 328.919,62.9722 L 311.868,72.6367z"/>
      <path style="fill: none; stroke-opacity: 1; stroke-width: 0.02; stroke: #364749" d="M 328.64 81.9006 L 331.125,79.0448 L 331.512,78.2263 L 331.864,77.3557 L 332.143,76.5024 L 332.373,75.6143 L 332.542,74.7437 L 332.652,73.873 L 332.7,72.9501 L 332.7,72.0794 L 332.615,71.1739 L 332.494,70.3033 L 332.324,69.4152 L 332.082,68.5445 L 331.779,67.6912 L 331.44,66.838 L 331.016,66.0196 L 330.567,65.2011 L 330.034,64.4175 L 329.489,63.6513 L 328.871,62.9026 L 324.92,60.0468"/>
      <path style="fill: #788e96; fill-opacity: 1; stroke: none" fill-rule="evenodd" d="M 311.056 89.458 L 304.985,113.628 L 305.882,114.028 L 306.778,114.359 L 307.699,114.638 L 308.62,114.847 L 309.541,115.003 L 310.487,115.056 L 311.42,115.073 L 312.353,115.003 L 313.298,114.899 L 314.219,114.69 L 315.14,114.429 L 316.049,114.098 L 316.934,113.732 L 317.806,113.262 L 318.679,112.757 L 319.527,112.2 L 320.351,111.573 L 321.139,110.876 L 321.914,110.128 L 322.654,109.344 L 323.369,108.491 L 324.047,107.603 L 324.69,106.645 L 325.296,105.652 L 325.877,104.625 L 326.41,103.545 L 326.895,102.448 L 327.356,101.299 L 327.768,100.132 L 328.143,98.9309 L 328.458,97.7119 L 328.749,96.4582 L 328.98,95.2044 L 329.161,93.9158 L 329.307,92.6272 L 329.392,91.3212 L 329.44,90.0152 L 329.44,88.7092 L 329.38,87.4032 L 329.283,86.1146 L 329.137,84.826 L 328.955,83.5548 L 328.713,82.2837 L 311.056,89.458z"/>
      <path style="fill: none; stroke-opacity: 1; stroke-width: 0.02; stroke: #364749" d="M 305.033 113.663 L 305.906,114.046 L 306.815,114.394 L 307.748,114.673 L 308.681,114.864 L 309.602,115.003 L 310.535,115.073 L 311.48,115.108 L 312.401,115.003 L 313.334,114.899 L 314.268,114.69 L 315.189,114.429 L 316.085,114.098 L 316.97,113.697 L 317.867,113.262 L 318.715,112.74 L 319.563,112.182 L 320.388,111.538 L 321.175,110.859 L 321.939,110.11 L 322.69,109.292 L 323.393,108.439 L 324.072,107.55 L 324.714,106.628 L 325.332,105.6 L 325.914,104.573 L 326.435,103.511 L 326.932,102.379 L 327.38,101.247 L 327.792,100.098 L 328.156,98.896 L 328.483,97.6423 L 328.761,96.3885 L 328.98,95.1347 L 329.161,93.881 L 329.307,92.575 L 329.392,91.2864 L 329.44,89.9804 L 329.44,88.657 L 329.38,87.3684 L 329.283,86.0624 L 329.137,84.7564 L 328.931,83.4852 L 328.701,82.2488"/>
      <path style="fill: #788e96; fill-opacity: 1; stroke: none" fill-rule="evenodd" d="M 233.958 75.684 L 233.025,59.298 L 232.358,59.3851 L 231.692,59.4895 L 231.025,59.6637 L 230.371,59.8726 L 229.728,60.1164 L 229.098,60.395 L 228.468,60.7259 L 227.862,61.0916 L 227.28,61.4921 L 226.699,61.9448 L 226.141,62.4324 L 225.608,62.9374 L 225.087,63.4772 L 224.602,64.0693 L 224.142,64.6613 L 223.705,65.2882 L 223.281,65.9499 L 222.906,66.6464 L 222.542,67.343 L 222.215,68.0918 L 221.924,68.8579 L 221.657,69.6241 L 221.415,70.3903 L 221.221,71.1913 L 221.051,72.0098 L 220.918,72.8282 L 220.809,73.6466 L 220.748,74.4825 L 220.712,75.3183 L 220.724,76.1542 L 220.748,76.99 L 220.821,77.8258 L 220.93,78.6617 L 221.064,79.4801 L 221.233,80.2985 L 221.439,81.0821 L 221.682,81.8657 L 221.948,82.6319 L 222.251,83.3807 L 222.578,84.1295 L 222.942,84.826 L 223.33,85.5051 L 223.742,86.1669 L 224.19,86.8111 L 224.663,87.4032 L 225.16,87.9778 L 225.669,88.5177 L 226.214,89.0226 L 226.771,89.4928 L 227.341,89.963 L 227.935,90.3287 L 233.958,75.684z"/>
      <path style="fill: none; stroke-opacity: 1; stroke-width: 0.02; stroke: #364749" d="M 233.037 59.298 L 232.382,59.3851 L 231.716,59.4895 L 231.074,59.6463 L 230.431,59.8552 L 229.801,60.0816 L 229.171,60.3602 L 228.553,60.6911 L 227.959,61.0393 L 227.377,61.4224 L 226.808,61.8578 L 226.262,62.3279 L 225.729,62.8155 L 225.22,63.3379 L 224.723,63.8951 L 224.263,64.5046 L 223.827,65.0967 L 223.415,65.741 L 223.015,66.4201 L 222.663,67.1166 L 222.336,67.8131 L 222.033,68.5445 L 221.754,69.2933 L 221.5,70.0595 L 221.294,70.8257 L 221.112,71.6267 L 220.967,72.4451 L 220.845,73.2461 L 220.773,74.0471 L 220.724,74.883 L 220.712,75.7188 L 220.724,76.5198 L 220.785,77.3557 L 220.858,78.1741 L 220.967,78.9751 L 221.124,79.7761 L 221.294,80.5597 L 221.512,81.3433 L 221.766,82.1269 L 222.033,82.8583 L 222.336,83.6071 L 222.675,84.321 L 223.039,85.0002 L 223.427,85.6793 L 223.827,86.3062 L 224.275,86.933 L 224.748,87.5077 L 225.232,88.0649 L 225.741,88.5873 L 226.275,89.0923 L 226.82,89.545 L 227.389,89.9804 L 227.971,90.3983"/>
      <path style="fill: #788e96; fill-opacity: 1; stroke: none" fill-rule="evenodd" d="M 283.062 102.083 L 255.48,103.981 L 255.65,104.938 L 255.892,105.896 L 256.207,106.837 L 256.583,107.742 L 257.032,108.682 L 257.553,109.57 L 258.122,110.441 L 258.764,111.294 L 259.467,112.113 L 260.219,112.949 L 261.043,113.697 L 261.903,114.464 L 262.848,115.178 L 263.83,115.874 L 264.86,116.518 L 265.914,117.11 L 267.054,117.685 L 268.217,118.225 L 269.405,118.712 L 270.616,119.165 L 271.889,119.583 L 273.186,119.949 L 274.507,120.262 L 275.84,120.558 L 277.197,120.785 L 278.566,120.959 L 279.936,121.098 L 281.341,121.168 L 282.723,121.22 L 284.117,121.203 L 285.51,121.133 L 286.904,121.011 L 288.261,120.889 L 289.631,120.663 L 290.988,120.402 L 292.309,120.123 L 293.618,119.757 L 294.89,119.374 L 296.138,118.939 L 297.35,118.486 L 298.526,117.946 L 299.665,117.406 L 300.755,116.797 L 301.81,116.17 L 302.803,115.491 L 303.761,114.794 L 304.67,114.063 L 305.518,113.297 L 306.294,112.513 L 307.033,111.677 L 307.699,110.859 L 308.317,110.006 L 308.851,109.118 L 309.323,108.195 L 283.062,102.083z"/>
      <path style="fill: none; stroke-opacity: 1; stroke-width: 0.02; stroke: #364749" d="M 255.48 104.016 L 255.65,104.956 L 255.892,105.896 L 256.207,106.854 L 256.583,107.777 L 257.032,108.7 L 257.553,109.57 L 258.134,110.441 L 258.764,111.312 L 259.467,112.113 L 260.219,112.949 L 261.043,113.697 L 261.903,114.464 L 262.861,115.178 L 263.818,115.874 L 264.86,116.518 L 265.914,117.11 L 267.054,117.685 L 268.193,118.225 L 269.405,118.712 L 270.616,119.165 L 271.877,119.583 L 273.161,119.949 L 274.482,120.262 L 275.815,120.523 L 277.185,120.785 L 278.542,120.941 L 279.924,121.098 L 281.293,121.15 L 282.711,121.22 L 284.092,121.203 L 285.486,121.133 L 286.88,121.011 L 288.249,120.889 L 289.606,120.663 L 290.951,120.402 L 292.272,120.123 L 293.569,119.792 L 294.842,119.374 L 296.102,118.956 L 297.302,118.486 L 298.477,117.964 L 299.628,117.424 L 300.719,116.814 L 301.773,116.205 L 302.779,115.508 L 303.712,114.829 L 304.621,114.081 L 305.457,113.332 L 306.269,112.531 L 306.996,111.747 L 307.675,110.876 L 308.257,110.023 L 308.826,109.135 L 309.311,108.247"/>
    </g>
    <g>
      <polyline style="fill: none; stroke-opacity: 1; stroke-width: 2; stroke: #000000" points="256.044,461.46 256.044,472.58 256.7,472.58 256.7,619.234 "/>
      <polygon style="fill: #000000; fill-opacity: 1; stroke-opacity: 1; stroke-width: 2; stroke: #000000" fill-rule="evenodd" points="256.7,626.734 251.7,616.734 256.7,619.234 261.7,616.734 "/>
    </g>
    <g>
      <polyline style="fill: none; stroke-opacity: 1; stroke-width: 2; stroke: #000000" points="256.044,461.46 256.044,471.97 367.7,471.97 367.7,609.234 "/>
      <polygon style="fill: #000000; fill-opacity: 1; stroke-opacity: 1; stroke-width: 2; stroke: #000000" fill-rule="evenodd" points="367.7,616.734 362.7,606.734 367.7,609.234 372.7,606.734 "/>
    </g>
    <g>
      <polygon style="fill: #ffffff; fill-opacity: 1; stroke-opacity: 1; stroke-width: 2; stroke: #000000" fill-rule="evenodd" points="374.144,187.45 580.344,187.45 592.344,199.45 592.344,237.45 374.144,237.45 "/>
      <polyline style="fill: none; stroke-opacity: 1; stroke-width: 1; stroke: #000000" points="580.344,187.45 580.344,199.45 592.344,199.45 "/>
      <text font-size="12.8" style="fill: #000000; fill-opacity: 1; stroke: none;text-anchor:start;font-family:monospace;font-style:normal;font-weight:normal" x="381.144" y="212.35">
        <tspan x="381.144" y="212.35">ISP builtin/external modem</tspan>
        <tspan x="381.144" y="228.35">(no NAT)</tspan>
      </text>
    </g>
    <g>
      <polyline style="fill: none; stroke-opacity: 1; stroke-width: 2; stroke-dasharray: 8; stroke: #000000" points="374.152,212.45 340.767,212.45 340.767,196.945 306.087,196.945 "/>
      <polyline style="fill: none; stroke-opacity: 1; stroke-width: 2; stroke: #000000" points="318.735,191.945 302.735,196.945 318.735,201.945 "/>
    </g>
    <g>
      <polygon style="fill: #ffffff; fill-opacity: 1; stroke-opacity: 1; stroke-width: 2; stroke: #000000" fill-rule="evenodd" points="411.6,46.32 571.6,46.32 583.6,58.32 583.6,112.32 411.6,112.32 "/>
      <polyline style="fill: none; stroke-opacity: 1; stroke-width: 1; stroke: #000000" points="571.6,46.32 571.6,58.32 583.6,58.32 "/>
      <text font-size="12.8" style="fill: #000000; fill-opacity: 1; stroke: none;text-anchor:start;font-family:monospace;font-style:normal;font-weight:normal" x="418.6" y="71.22">
        <tspan x="418.6" y="71.22">ISP's Network</tspan>
        <tspan x="418.6" y="87.22">(Can be an upstream </tspan>
        <tspan xml:space="preserve" x="418.6" y="103.22"> double NAT or not)</tspan>
      </text>
    </g>
    <g>
      <polyline style="fill: none; stroke-opacity: 1; stroke-width: 2; stroke-dasharray: 8; stroke: #000000" points="411.609,79.32 376.154,79.32 376.154,78.2263 339.405,78.2263 "/>
      <polyline style="fill: none; stroke-opacity: 1; stroke-width: 2; stroke: #000000" points="352.053,73.2263 336.053,78.2263 352.053,83.2263 "/>
    </g>
    <g>
      <polygon style="fill: #ffffff; fill-opacity: 1; stroke-opacity: 1; stroke-width: 2; stroke: #000000" fill-rule="evenodd" points="393.6,412.32 507.4,412.32 519.4,424.32 519.4,462.32 393.6,462.32 "/>
      <polyline style="fill: none; stroke-opacity: 1; stroke-width: 1; stroke: #000000" points="507.4,412.32 507.4,424.32 519.4,424.32 "/>
      <text font-size="12.8" style="fill: #000000; fill-opacity: 1; stroke: none;text-anchor:start;font-family:monospace;font-style:normal;font-weight:normal" x="400.6" y="437.22">
        <tspan x="400.6" y="437.22">OpenWrt Router</tspan>
        <tspan x="400.6" y="453.22">(NAT)</tspan>
      </text>
    </g>
    <g>
      <polyline style="fill: none; stroke-opacity: 1; stroke-width: 2; stroke-dasharray: 8; stroke: #000000" points="393.594,437.32 353.322,437.32 353.322,428.784 311.251,428.784 "/>
      <polyline style="fill: none; stroke-opacity: 1; stroke-width: 2; stroke: #000000" points="323.899,423.784 307.899,428.784 323.899,433.784 "/>
    </g>
    <g>
      <polygon style="fill: #ffffff; fill-opacity: 1; stroke-opacity: 1; stroke-width: 2; stroke: #000000" fill-rule="evenodd" points="479.654,546.32 539.554,546.32 551.554,558.32 551.554,580.32 479.654,580.32 "/>
      <polyline style="fill: none; stroke-opacity: 1; stroke-width: 1; stroke: #000000" points="539.554,546.32 539.554,558.32 551.554,558.32 "/>
      <text font-size="12.8" style="fill: #000000; fill-opacity: 1; stroke: none;text-anchor:start;font-family:monospace;font-style:normal;font-weight:normal" x="486.654" y="571.22">
        <tspan x="486.654" y="571.22">Clients</tspan>
      </text>
    </g>
    <g>
      <polyline style="fill: none; stroke-opacity: 1; stroke-width: 2; stroke-dasharray: 8; stroke: #000000" points="479.686,563.32 439.376,563.32 439.376,562.784 397.305,562.784 "/>
      <polyline style="fill: none; stroke-opacity: 1; stroke-width: 2; stroke: #000000" points="409.953,557.784 393.953,562.784 409.953,567.784 "/>
    </g>
    <text font-size="12.8" style="fill: #000000; fill-opacity: 1; stroke: none;text-anchor:start;font-family:sans-serif;font-style:normal;font-weight:normal" x="908.872" y="434.918">
      <tspan x="908.872" y="434.918"></tspan>
    </text>
  </g>
</svg>
