<?xml version="1.0" encoding="UTF-8" standalone="no"?>
<!DOCTYPE svg PUBLIC "-//W3C//DTD SVG 1.0//EN" "http://www.w3.org/TR/2001/PR-SVG-20010719/DTD/svg10.dtd">
<svg width="38cm" height="32cm" viewBox="-37 53 760 632" xmlns="http://www.w3.org/2000/svg" xmlns:xlink="http://www.w3.org/1999/xlink">
  <g id="Background">
    <g>
      <path style="fill: none; stroke-opacity: 1; stroke-width: 0.8; stroke: #00aed9" d="M 206.976 438.692 L 206.976,395.549"/>
      <path style="fill: none; stroke-opacity: 1; stroke-width: 4; stroke: #00aed9" d="M 206.976 437.996 L 206.976,408.402"/>
      <path style="fill: #000000; fill-opacity: 1; stroke: none" fill-rule="evenodd" d="M 208.229 399.694 L 205.592,399.694 L 205.592,394.42 L 208.229,394.42 L 208.229,399.694z"/>
      <path style="fill: none; stroke-opacity: 1; stroke-width: 2; stroke: #00aed9" d="M 208.229 399.694 L 205.592,399.694 L 205.592,394.42 L 208.229,394.42 L 208.229,399.694"/>
      <path style="fill: none; stroke-opacity: 1; stroke-width: 0.8; stroke: #00aed9" d="M 143.026 438.692 L 143.026,395.549"/>
      <path style="fill: none; stroke-opacity: 1; stroke-width: 4; stroke: #00aed9" d="M 143.026 437.996 L 143.026,408.402"/>
      <path style="fill: #000000; fill-opacity: 1; stroke: none" fill-rule="evenodd" d="M 144.278 399.694 L 141.641,399.694 L 141.641,394.42 L 144.278,394.42 L 144.278,399.694z"/>
      <path style="fill: none; stroke-opacity: 1; stroke-width: 2; stroke: #00aed9" d="M 144.278 399.694 L 141.641,399.694 L 141.641,394.42 L 144.278,394.42 L 144.278,399.694"/>
      <path style="fill: #00aed9; fill-opacity: 1; stroke: none" fill-rule="evenodd" d="M 224.864 444.17 C 224.864,454.586 203.15,463.031 176.362,463.031 C 149.574,463.031 127.86,454.586 127.86,444.17 L 127.86,471.796 C 127.86,482.216 149.574,490.66 176.362,490.66 C 203.15,490.66 224.864,482.216 224.864,471.796 L 224.864,444.17z"/>
      <path style="fill: none; stroke-opacity: 1; stroke-width: 0.8; stroke: #ffffff" d="M 224.864 444.17 C 224.864,454.586 203.15,463.031 176.362,463.031 C 149.574,463.031 127.86,454.586 127.86,444.17 L 127.86,471.796 C 127.86,482.216 149.574,490.66 176.362,490.66 C 203.15,490.66 224.864,482.216 224.864,471.796 L 224.864,444.17"/>
      <path style="fill: #00aed9; fill-opacity: 1; stroke: none" fill-rule="evenodd" d="M 176.362 463.031 C 203.15,463.031 224.864,454.586 224.864,444.17 C 224.864,433.75 203.15,425.306 176.362,425.306 C 149.574,425.306 127.86,433.75 127.86,444.17 C 127.86,454.586 149.574,463.031 176.362,463.031z"/>
      <path style="fill: none; stroke-opacity: 1; stroke-width: 0.8; stroke: #ffffff" d="M 176.362 463.031 C 203.15,463.031 224.864,454.586 224.864,444.17 C 224.864,433.75 203.15,425.306 176.362,425.306 C 149.574,425.306 127.86,433.75 127.86,444.17 C 127.86,454.586 149.574,463.031 176.362,463.031"/>
      <path style="fill: #ffffff; fill-opacity: 1; stroke: none" fill-rule="evenodd" d="M 165.286 436.794 L 169.292,442.801 L 154.149,446.3 L 157.456,443.547 L 134.052,439.547 L 139.925,435.145 L 162.506,438.969 L 165.286,436.794z"/>
      <path style="fill: #ffffff; fill-opacity: 1; stroke: none" fill-rule="evenodd" d="M 186.597 451.361 L 183.862,445.169 L 197.52,442.44 L 195.152,444.56 L 217.918,448.45 L 212.459,452.819 L 189.825,448.571 L 186.597,451.361z"/>
      <path style="fill: #ffffff; fill-opacity: 1; stroke: none" fill-rule="evenodd" d="M 179.126 433.513 L 194.426,429.325 L 194.606,435.884 L 190.784,435.153 L 183.313,441.345 L 176.19,440.306 L 183.896,434.249 L 179.126,433.513z"/>
      <path style="fill: #ffffff; fill-opacity: 1; stroke: none" fill-rule="evenodd" d="M 172.57 457.01 L 158.002,459.739 L 157.456,453.004 L 161.641,453.911 L 169.661,447.063 L 176.76,448.265 L 168.2,455.734 L 172.57,457.01z"/>
    </g>
    <g>
      <path style="fill: #b7b79d; fill-opacity: 1; stroke: none" fill-rule="evenodd" d="M 151.166 230.39 L 151.166,254.166 L 203.339,254.166 L 203.339,230.39 L 151.166,230.39z"/>
      <path style="fill: none; stroke-opacity: 1; stroke-width: 0.02; stroke: #494936" d="M 151.166 230.39 L 151.166,253.824 L 203.339,253.824 L 203.339,230.39 L 151.166,230.39"/>
      <path style="fill: #7a7a5a; fill-opacity: 1; stroke: none" fill-rule="evenodd" d="M 203.339 254.166 L 203.339,230.39 L 219.7,214.166 L 219.7,237.931 L 203.339,254.166z"/>
      <path style="fill: none; stroke-opacity: 1; stroke-width: 0.02; stroke: #494936" d="M 203.339 253.824 L 203.339,230.39 L 219.506,214.36 L 219.506,238.136 L 203.67,253.824 L 203.339,253.824"/>
      <path style="fill: #c9c9b6; fill-opacity: 1; stroke: none" fill-rule="evenodd" d="M 151.166 230.39 L 167.173,214.166 L 219.7,214.166 L 203.339,230.39 L 151.166,230.39z"/>
      <path style="fill: none; stroke-opacity: 1; stroke-width: 0.02; stroke: #494936" d="M 151.166 230.39 L 167.173,214.166 L 219.506,214.166 L 219.506,214.36 L 203.339,230.39 L 151.166,230.39"/>
      <path style="fill: #ff000c; fill-opacity: 1; stroke: none" fill-rule="evenodd" d="M 161.822 242.438 L 161.822,242.278 L 161.788,242.095 L 161.776,241.924 L 161.731,241.764 L 161.708,241.593 L 161.651,241.422 L 161.605,241.262 L 161.537,241.103 L 161.468,240.943 L 161.388,240.783 L 161.286,240.635 L 161.206,240.498 L 161.103,240.373 L 161,240.247 L 160.875,240.099 L 160.749,239.973 L 160.624,239.871 L 160.487,239.745 L 160.35,239.654 L 160.213,239.551 L 160.065,239.483 L 159.905,239.391 L 159.734,239.334 L 159.574,239.266 L 159.415,239.197 L 159.255,239.152 L 159.084,239.106 L 158.924,239.083 L 158.73,239.072 L 158.57,239.049 L 158.399,239.049 L 158.399,239.049 L 158.217,239.049 L 158.057,239.072 L 157.863,239.083 L 157.703,239.106 L 157.543,239.152 L 157.361,239.197 L 157.213,239.266 L 157.041,239.334 L 156.882,239.391 L 156.722,239.483 L 156.585,239.551 L 156.437,239.654 L 156.3,239.745 L 156.163,239.871 L 156.026,239.973 L 155.912,240.099 L 155.798,240.247 L 155.684,240.373 L 155.581,240.498 L 155.501,240.635 L 155.399,240.783 L 155.33,240.943 L 155.239,241.103 L 155.193,241.262 L 155.136,241.422 L 155.079,241.593 L 155.045,241.764 L 155.011,241.924 L 154.999,242.095 L 154.976,242.278 L 154.976,242.438 L 154.976,242.438 L 154.976,242.62 L 154.999,242.78 L 155.011,242.951 L 155.045,243.133 L 155.079,243.293 L 155.136,243.453 L 155.193,243.613 L 155.239,243.772 L 155.33,243.932 L 155.399,244.092 L 155.501,244.24 L 155.581,244.377 L 155.684,244.525 L 155.798,244.651 L 155.912,244.776 L 156.026,244.902 L 156.163,245.016 L 156.3,245.13 L 156.437,245.221 L 156.585,245.324 L 156.722,245.415 L 156.882,245.484 L 157.041,245.552 L 157.213,245.632 L 157.361,245.666 L 157.543,245.735 L 157.703,245.769 L 157.863,245.792 L 158.057,245.826 L 158.217,245.837 L 158.399,245.837 L 158.399,245.837 L 158.57,245.837 L 158.73,245.826 L 158.924,245.792 L 159.084,245.769 L 159.255,245.735 L 159.415,245.666 L 159.574,245.632 L 159.734,245.552 L 159.905,245.484 L 160.065,245.415 L 160.213,245.324 L 160.35,245.221 L 160.487,245.13 L 160.624,245.016 L 160.749,244.902 L 160.875,244.776 L 161,244.651 L 161.103,244.525 L 161.206,244.377 L 161.286,244.24 L 161.388,244.092 L 161.468,243.932 L 161.537,243.772 L 161.605,243.613 L 161.651,243.453 L 161.708,243.293 L 161.731,243.133 L 161.776,242.951 L 161.788,242.78 L 161.822,242.62 L 161.822,242.438z"/>
      <path style="fill: none; stroke-opacity: 1; stroke-width: 0.02; stroke: #550000" d="M 161.445 242.084 L 161.445,241.901 L 161.434,241.742 L 161.411,241.559 L 161.388,241.399 L 161.354,241.228 L 161.297,241.068 L 161.229,240.909 L 161.194,240.738 L 161.103,240.601 L 161.012,240.418 L 160.932,240.281 L 160.841,240.133 L 160.727,239.996 L 160.635,239.871 L 160.533,239.745 L 160.396,239.62 L 160.259,239.494 L 160.133,239.391 L 159.985,239.3 L 159.848,239.197 L 159.711,239.106 L 159.551,239.015 L 159.392,238.958 L 159.221,238.889 L 159.061,238.855 L 158.901,238.798 L 158.719,238.764 L 158.547,238.73 L 158.365,238.695 L 158.205,238.673 L 158.023,238.673 L 158.023,238.673 L 157.863,238.673 L 157.68,238.695 L 157.509,238.73 L 157.338,238.764 L 157.156,238.798 L 157.007,238.855 L 156.836,238.889 L 156.665,238.958 L 156.505,239.015 L 156.368,239.106 L 156.22,239.197 L 156.072,239.3 L 155.935,239.391 L 155.798,239.494 L 155.684,239.62 L 155.547,239.745 L 155.433,239.871 L 155.33,239.996 L 155.216,240.133 L 155.125,240.281 L 155.022,240.418 L 154.942,240.601 L 154.874,240.738 L 154.828,240.909 L 154.771,241.068 L 154.725,241.228 L 154.691,241.399 L 154.657,241.559 L 154.623,241.742 L 154.6,241.901 L 154.6,242.084 L 154.6,242.084 L 154.6,242.244 L 154.623,242.415 L 154.657,242.597 L 154.691,242.757 L 154.725,242.94 L 154.771,243.099 L 154.828,243.259 L 154.874,243.419 L 154.942,243.578 L 155.022,243.738 L 155.125,243.875 L 155.216,244.023 L 155.33,244.16 L 155.433,244.286 L 155.547,244.434 L 155.684,244.56 L 155.798,244.651 L 155.935,244.776 L 156.072,244.856 L 156.22,244.97 L 156.368,245.039 L 156.505,245.13 L 156.665,245.199 L 156.836,245.256 L 157.007,245.324 L 157.156,245.358 L 157.338,245.415 L 157.509,245.427 L 157.68,245.472 L 157.863,245.472 L 158.023,245.472 L 158.023,245.472 L 158.205,245.472 L 158.365,245.472 L 158.547,245.427 L 158.719,245.415 L 158.901,245.358 L 159.061,245.324 L 159.221,245.256 L 159.392,245.199 L 159.551,245.13 L 159.711,245.039 L 159.848,244.97 L 159.985,244.856 L 160.133,244.776 L 160.259,244.651 L 160.396,244.56 L 160.533,244.434 L 160.635,244.286 L 160.727,244.16 L 160.841,244.023 L 160.932,243.875 L 161.012,243.738 L 161.103,243.578 L 161.194,243.419 L 161.229,243.259 L 161.297,243.099 L 161.354,242.94 L 161.388,242.757 L 161.411,242.597 L 161.434,242.415 L 161.445,242.244 L 161.445,242.084"/>
      <path style="fill: #ff000c; fill-opacity: 1; stroke: none" fill-rule="evenodd" d="M 171.337 242.438 L 171.337,242.278 L 171.326,242.095 L 171.314,241.924 L 171.268,241.764 L 171.246,241.593 L 171.2,241.422 L 171.132,241.262 L 171.086,241.103 L 171.017,240.943 L 170.949,240.783 L 170.846,240.635 L 170.766,240.498 L 170.675,240.373 L 170.561,240.247 L 170.47,240.099 L 170.344,239.973 L 170.207,239.871 L 170.093,239.745 L 169.968,239.654 L 169.82,239.551 L 169.683,239.483 L 169.534,239.391 L 169.386,239.334 L 169.238,239.266 L 169.089,239.197 L 168.918,239.152 L 168.77,239.106 L 168.61,239.083 L 168.45,239.072 L 168.279,239.049 L 168.12,239.049 L 168.12,239.049 L 167.96,239.049 L 167.777,239.072 L 167.629,239.083 L 167.469,239.106 L 167.31,239.152 L 167.138,239.197 L 166.99,239.266 L 166.853,239.334 L 166.705,239.391 L 166.557,239.483 L 166.408,239.551 L 166.271,239.654 L 166.134,239.745 L 166.009,239.871 L 165.895,239.973 L 165.769,240.099 L 165.667,240.247 L 165.564,240.373 L 165.461,240.498 L 165.381,240.635 L 165.279,240.783 L 165.21,240.943 L 165.142,241.103 L 165.096,241.262 L 165.039,241.422 L 164.994,241.593 L 164.936,241.764 L 164.925,241.924 L 164.914,242.095 L 164.891,242.278 L 164.891,242.438 L 164.891,242.438 L 164.891,242.62 L 164.914,242.78 L 164.925,242.951 L 164.936,243.133 L 164.994,243.293 L 165.039,243.453 L 165.096,243.613 L 165.142,243.772 L 165.21,243.932 L 165.279,244.092 L 165.381,244.24 L 165.461,244.377 L 165.564,244.525 L 165.667,244.651 L 165.769,244.776 L 165.895,244.902 L 166.009,245.016 L 166.134,245.13 L 166.271,245.221 L 166.408,245.324 L 166.557,245.415 L 166.705,245.484 L 166.853,245.552 L 166.99,245.632 L 167.138,245.666 L 167.31,245.735 L 167.469,245.769 L 167.629,245.792 L 167.777,245.826 L 167.96,245.837 L 168.12,245.837 L 168.12,245.837 L 168.279,245.837 L 168.45,245.826 L 168.61,245.792 L 168.77,245.769 L 168.918,245.735 L 169.089,245.666 L 169.238,245.632 L 169.386,245.552 L 169.534,245.484 L 169.683,245.415 L 169.82,245.324 L 169.968,245.221 L 170.093,245.13 L 170.207,245.016 L 170.344,244.902 L 170.47,244.776 L 170.561,244.651 L 170.675,244.525 L 170.766,244.377 L 170.846,244.24 L 170.949,244.092 L 171.017,243.932 L 171.086,243.772 L 171.132,243.613 L 171.2,243.453 L 171.246,243.293 L 171.268,243.133 L 171.314,242.951 L 171.326,242.78 L 171.337,242.62 L 171.337,242.438z"/>
      <path style="fill: none; stroke-opacity: 1; stroke-width: 0.02; stroke: #550000" d="M 170.983 242.084 L 170.983,241.901 L 170.96,241.742 L 170.96,241.559 L 170.915,241.399 L 170.881,241.228 L 170.835,241.068 L 170.778,240.909 L 170.744,240.738 L 170.664,240.601 L 170.607,240.418 L 170.527,240.281 L 170.447,240.133 L 170.344,239.996 L 170.264,239.871 L 170.139,239.745 L 170.036,239.62 L 169.911,239.494 L 169.808,239.391 L 169.671,239.3 L 169.546,239.197 L 169.42,239.106 L 169.272,239.015 L 169.135,238.958 L 168.998,238.889 L 168.85,238.855 L 168.701,238.798 L 168.542,238.764 L 168.393,238.73 L 168.234,238.695 L 168.097,238.673 L 167.926,238.673 L 167.926,238.673 L 167.777,238.673 L 167.629,238.695 L 167.469,238.73 L 167.321,238.764 L 167.173,238.798 L 167.036,238.855 L 166.853,238.889 L 166.716,238.958 L 166.579,239.015 L 166.454,239.106 L 166.328,239.197 L 166.203,239.3 L 166.066,239.391 L 165.929,239.494 L 165.826,239.62 L 165.712,239.745 L 165.61,239.871 L 165.507,239.996 L 165.427,240.133 L 165.347,240.281 L 165.267,240.418 L 165.199,240.601 L 165.119,240.738 L 165.062,240.909 L 165.028,241.068 L 164.982,241.228 L 164.936,241.399 L 164.914,241.559 L 164.902,241.742 L 164.891,241.901 L 164.891,242.084 L 164.891,242.084 L 164.891,242.244 L 164.902,242.415 L 164.914,242.597 L 164.936,242.757 L 164.982,242.94 L 165.028,243.099 L 165.062,243.259 L 165.119,243.419 L 165.199,243.578 L 165.267,243.738 L 165.347,243.875 L 165.427,244.023 L 165.507,244.16 L 165.61,244.286 L 165.712,244.434 L 165.826,244.56 L 165.929,244.651 L 166.066,244.776 L 166.203,244.856 L 166.328,244.97 L 166.454,245.039 L 166.579,245.13 L 166.716,245.199 L 166.853,245.256 L 167.036,245.324 L 167.173,245.358 L 167.321,245.415 L 167.469,245.427 L 167.629,245.472 L 167.777,245.472 L 167.926,245.472 L 167.926,245.472 L 168.097,245.472 L 168.234,245.472 L 168.393,245.427 L 168.542,245.415 L 168.701,245.358 L 168.85,245.324 L 168.998,245.256 L 169.135,245.199 L 169.272,245.13 L 169.42,245.039 L 169.546,244.97 L 169.671,244.856 L 169.808,244.776 L 169.911,244.651 L 170.036,244.56 L 170.139,244.434 L 170.264,244.286 L 170.344,244.16 L 170.447,244.023 L 170.527,243.875 L 170.607,243.738 L 170.664,243.578 L 170.744,243.419 L 170.778,243.259 L 170.835,243.099 L 170.881,242.94 L 170.915,242.757 L 170.96,242.597 L 170.96,242.415 L 170.983,242.244 L 170.983,242.084"/>
      <path style="fill: #ff000c; fill-opacity: 1; stroke: none" fill-rule="evenodd" d="M 181.229 242.438 L 181.229,242.278 L 181.194,242.095 L 181.183,241.924 L 181.16,241.764 L 181.114,241.593 L 181.069,241.422 L 181.023,241.262 L 180.955,241.103 L 180.875,240.943 L 180.806,240.783 L 180.692,240.635 L 180.612,240.498 L 180.521,240.373 L 180.396,240.247 L 180.293,240.099 L 180.168,239.973 L 180.042,239.871 L 179.894,239.745 L 179.757,239.654 L 179.62,239.551 L 179.472,239.483 L 179.312,239.391 L 179.164,239.334 L 178.981,239.266 L 178.833,239.197 L 178.662,239.152 L 178.502,239.106 L 178.331,239.083 L 178.148,239.072 L 177.977,239.049 L 177.806,239.049 L 177.806,239.049 L 177.623,239.049 L 177.464,239.072 L 177.292,239.083 L 177.121,239.106 L 176.962,239.152 L 176.79,239.197 L 176.619,239.266 L 176.46,239.334 L 176.311,239.391 L 176.152,239.483 L 175.98,239.551 L 175.843,239.654 L 175.707,239.745 L 175.581,239.871 L 175.456,239.973 L 175.33,240.099 L 175.193,240.247 L 175.102,240.373 L 175.011,240.498 L 174.908,240.635 L 174.817,240.783 L 174.737,240.943 L 174.668,241.103 L 174.6,241.262 L 174.543,241.422 L 174.486,241.593 L 174.463,241.764 L 174.417,241.924 L 174.406,242.095 L 174.383,242.278 L 174.383,242.438 L 174.383,242.438 L 174.383,242.62 L 174.406,242.78 L 174.417,242.951 L 174.463,243.133 L 174.486,243.293 L 174.543,243.453 L 174.6,243.613 L 174.668,243.772 L 174.737,243.932 L 174.817,244.092 L 174.908,244.24 L 175.011,244.377 L 175.102,244.525 L 175.193,244.651 L 175.33,244.776 L 175.456,244.902 L 175.581,245.016 L 175.707,245.13 L 175.843,245.221 L 175.98,245.324 L 176.152,245.415 L 176.311,245.484 L 176.46,245.552 L 176.619,245.632 L 176.79,245.666 L 176.962,245.735 L 177.121,245.769 L 177.292,245.792 L 177.464,245.826 L 177.623,245.837 L 177.806,245.837 L 177.806,245.837 L 177.977,245.837 L 178.148,245.826 L 178.331,245.792 L 178.502,245.769 L 178.662,245.735 L 178.833,245.666 L 178.981,245.632 L 179.164,245.552 L 179.312,245.484 L 179.472,245.415 L 179.62,245.324 L 179.757,245.221 L 179.894,245.13 L 180.042,245.016 L 180.168,244.902 L 180.293,244.776 L 180.396,244.651 L 180.521,244.525 L 180.612,244.377 L 180.692,244.24 L 180.806,244.092 L 180.875,243.932 L 180.955,243.772 L 181.023,243.613 L 181.069,243.453 L 181.114,243.293 L 181.16,243.133 L 181.183,242.951 L 181.194,242.78 L 181.229,242.62 L 181.229,242.438z"/>
      <path style="fill: none; stroke-opacity: 1; stroke-width: 0.02; stroke: #550000" d="M 180.875 242.084 L 180.875,241.901 L 180.863,241.742 L 180.829,241.559 L 180.795,241.399 L 180.749,241.228 L 180.692,241.068 L 180.658,240.909 L 180.601,240.738 L 180.533,240.601 L 180.441,240.418 L 180.361,240.281 L 180.259,240.133 L 180.156,239.996 L 180.042,239.871 L 179.928,239.745 L 179.802,239.62 L 179.677,239.494 L 179.54,239.391 L 179.403,239.3 L 179.255,239.197 L 179.106,239.106 L 178.958,239.015 L 178.798,238.958 L 178.627,238.889 L 178.468,238.855 L 178.308,238.798 L 178.125,238.764 L 177.966,238.73 L 177.794,238.695 L 177.623,238.673 L 177.452,238.673 L 177.452,238.673 L 177.27,238.673 L 177.11,238.695 L 176.939,238.73 L 176.756,238.764 L 176.585,238.798 L 176.414,238.855 L 176.254,238.889 L 176.106,238.958 L 175.935,239.015 L 175.764,239.106 L 175.627,239.197 L 175.49,239.3 L 175.341,239.391 L 175.205,239.494 L 175.079,239.62 L 174.954,239.745 L 174.84,239.871 L 174.737,239.996 L 174.634,240.133 L 174.543,240.281 L 174.463,240.418 L 174.372,240.601 L 174.28,240.738 L 174.235,240.909 L 174.178,241.068 L 174.121,241.228 L 174.087,241.399 L 174.052,241.559 L 174.041,241.742 L 174.029,241.901 L 174.029,242.084 L 174.029,242.084 L 174.029,242.244 L 174.041,242.415 L 174.052,242.597 L 174.087,242.757 L 174.121,242.94 L 174.178,243.099 L 174.235,243.259 L 174.28,243.419 L 174.372,243.578 L 174.463,243.738 L 174.543,243.875 L 174.634,244.023 L 174.737,244.16 L 174.84,244.286 L 174.954,244.434 L 175.079,244.56 L 175.205,244.651 L 175.341,244.776 L 175.49,244.856 L 175.627,244.97 L 175.764,245.039 L 175.935,245.13 L 176.106,245.199 L 176.254,245.256 L 176.414,245.324 L 176.585,245.358 L 176.756,245.415 L 176.939,245.427 L 177.11,245.472 L 177.27,245.472 L 177.452,245.472 L 177.452,245.472 L 177.623,245.472 L 177.794,245.472 L 177.966,245.427 L 178.125,245.415 L 178.308,245.358 L 178.468,245.324 L 178.627,245.256 L 178.798,245.199 L 178.958,245.13 L 179.106,245.039 L 179.255,244.97 L 179.403,244.856 L 179.54,244.776 L 179.677,244.651 L 179.802,244.56 L 179.928,244.434 L 180.042,244.286 L 180.156,244.16 L 180.259,244.023 L 180.361,243.875 L 180.441,243.738 L 180.533,243.578 L 180.601,243.419 L 180.658,243.259 L 180.692,243.099 L 180.749,242.94 L 180.795,242.757 L 180.829,242.597 L 180.863,242.415 L 180.875,242.244 L 180.875,242.084"/>
      <path style="fill: #ff000c; fill-opacity: 1; stroke: none" fill-rule="evenodd" d="M 190.744 242.438 L 190.744,242.278 L 190.732,242.095 L 190.721,241.924 L 190.675,241.764 L 190.641,241.593 L 190.595,241.422 L 190.538,241.262 L 190.481,241.103 L 190.424,240.943 L 190.344,240.783 L 190.253,240.635 L 190.173,240.498 L 190.082,240.373 L 189.956,240.247 L 189.865,240.099 L 189.74,239.973 L 189.626,239.871 L 189.489,239.745 L 189.363,239.654 L 189.226,239.551 L 189.089,239.483 L 188.941,239.391 L 188.793,239.334 L 188.644,239.266 L 188.496,239.197 L 188.325,239.152 L 188.177,239.106 L 188.017,239.083 L 187.857,239.072 L 187.675,239.049 L 187.526,239.049 L 187.526,239.049 L 187.367,239.049 L 187.184,239.072 L 187.036,239.083 L 186.876,239.106 L 186.716,239.152 L 186.545,239.197 L 186.385,239.266 L 186.249,239.334 L 186.1,239.391 L 185.952,239.483 L 185.815,239.551 L 185.678,239.654 L 185.541,239.745 L 185.404,239.871 L 185.29,239.973 L 185.176,240.099 L 185.073,240.247 L 184.959,240.373 L 184.868,240.498 L 184.777,240.635 L 184.685,240.783 L 184.606,240.943 L 184.549,241.103 L 184.492,241.262 L 184.446,241.422 L 184.389,241.593 L 184.355,241.764 L 184.32,241.924 L 184.309,242.095 L 184.286,242.278 L 184.286,242.438 L 184.286,242.438 L 184.286,242.62 L 184.309,242.78 L 184.32,242.951 L 184.355,243.133 L 184.389,243.293 L 184.446,243.453 L 184.492,243.613 L 184.549,243.772 L 184.606,243.932 L 184.685,244.092 L 184.777,244.24 L 184.868,244.377 L 184.959,244.525 L 185.073,244.651 L 185.176,244.776 L 185.29,244.902 L 185.404,245.016 L 185.541,245.13 L 185.678,245.221 L 185.815,245.324 L 185.952,245.415 L 186.1,245.484 L 186.249,245.552 L 186.385,245.632 L 186.545,245.666 L 186.716,245.735 L 186.876,245.769 L 187.036,245.792 L 187.184,245.826 L 187.367,245.837 L 187.526,245.837 L 187.526,245.837 L 187.675,245.837 L 187.857,245.826 L 188.017,245.792 L 188.177,245.769 L 188.325,245.735 L 188.496,245.666 L 188.644,245.632 L 188.793,245.552 L 188.941,245.484 L 189.089,245.415 L 189.226,245.324 L 189.363,245.221 L 189.489,245.13 L 189.626,245.016 L 189.74,244.902 L 189.865,244.776 L 189.956,244.651 L 190.082,244.525 L 190.173,244.377 L 190.253,244.24 L 190.344,244.092 L 190.424,243.932 L 190.481,243.772 L 190.538,243.613 L 190.595,243.453 L 190.641,243.293 L 190.675,243.133 L 190.721,242.951 L 190.732,242.78 L 190.744,242.62 L 190.744,242.438z"/>
      <path style="fill: none; stroke-opacity: 1; stroke-width: 0.02; stroke: #550000" d="M 190.39 242.084 L 190.39,241.901 L 190.379,241.742 L 190.367,241.559 L 190.344,241.399 L 190.299,241.228 L 190.253,241.068 L 190.219,240.909 L 190.15,240.738 L 190.093,240.601 L 190.002,240.418 L 189.934,240.281 L 189.842,240.133 L 189.751,239.996 L 189.66,239.871 L 189.569,239.745 L 189.454,239.62 L 189.318,239.494 L 189.226,239.391 L 189.089,239.3 L 188.952,239.197 L 188.827,239.106 L 188.667,239.015 L 188.542,238.958 L 188.416,238.889 L 188.245,238.855 L 188.097,238.798 L 187.96,238.764 L 187.812,238.73 L 187.663,238.695 L 187.504,238.673 L 187.355,238.673 L 187.355,238.673 L 187.184,238.673 L 187.036,238.695 L 186.887,238.73 L 186.728,238.764 L 186.579,238.798 L 186.442,238.855 L 186.283,238.889 L 186.146,238.958 L 186.02,239.015 L 185.861,239.106 L 185.735,239.197 L 185.598,239.3 L 185.461,239.391 L 185.37,239.494 L 185.245,239.62 L 185.119,239.745 L 185.028,239.871 L 184.936,239.996 L 184.834,240.133 L 184.754,240.281 L 184.674,240.418 L 184.606,240.601 L 184.537,240.738 L 184.469,240.909 L 184.446,241.068 L 184.389,241.228 L 184.355,241.399 L 184.32,241.559 L 184.309,241.742 L 184.298,241.901 L 184.298,242.084 L 184.298,242.084 L 184.298,242.244 L 184.309,242.415 L 184.32,242.597 L 184.355,242.757 L 184.389,242.94 L 184.446,243.099 L 184.469,243.259 L 184.537,243.419 L 184.606,243.578 L 184.674,243.738 L 184.754,243.875 L 184.834,244.023 L 184.936,244.16 L 185.028,244.286 L 185.119,244.434 L 185.245,244.56 L 185.37,244.651 L 185.461,244.776 L 185.598,244.856 L 185.735,244.97 L 185.861,245.039 L 186.02,245.13 L 186.146,245.199 L 186.283,245.256 L 186.442,245.324 L 186.579,245.358 L 186.728,245.415 L 186.887,245.427 L 187.036,245.472 L 187.184,245.472 L 187.355,245.472 L 187.355,245.472 L 187.504,245.472 L 187.663,245.472 L 187.812,245.427 L 187.96,245.415 L 188.097,245.358 L 188.245,245.324 L 188.416,245.256 L 188.542,245.199 L 188.667,245.13 L 188.827,245.039 L 188.952,244.97 L 189.089,244.856 L 189.226,244.776 L 189.318,244.651 L 189.454,244.56 L 189.569,244.434 L 189.66,244.286 L 189.751,244.16 L 189.842,244.023 L 189.934,243.875 L 190.002,243.738 L 190.093,243.578 L 190.15,243.419 L 190.219,243.259 L 190.253,243.099 L 190.299,242.94 L 190.344,242.757 L 190.367,242.597 L 190.379,242.415 L 190.39,242.244 L 190.39,242.084"/>
      <path style="fill: #ff000c; fill-opacity: 1; stroke: none" fill-rule="evenodd" d="M 200.658 242.438 L 200.658,242.278 L 200.635,242.095 L 200.612,241.924 L 200.578,241.764 L 200.544,241.593 L 200.498,241.422 L 200.441,241.262 L 200.373,241.103 L 200.293,240.943 L 200.225,240.783 L 200.133,240.635 L 200.042,240.498 L 199.939,240.373 L 199.837,240.247 L 199.723,240.099 L 199.586,239.973 L 199.449,239.871 L 199.323,239.745 L 199.186,239.654 L 199.049,239.551 L 198.901,239.483 L 198.73,239.391 L 198.582,239.334 L 198.422,239.266 L 198.262,239.197 L 198.091,239.152 L 197.931,239.106 L 197.76,239.083 L 197.578,239.072 L 197.407,239.049 L 197.224,239.049 L 197.224,239.049 L 197.064,239.049 L 196.882,239.072 L 196.711,239.083 L 196.528,239.106 L 196.368,239.152 L 196.209,239.197 L 196.049,239.266 L 195.878,239.334 L 195.729,239.391 L 195.57,239.483 L 195.421,239.551 L 195.284,239.654 L 195.148,239.745 L 195.011,239.871 L 194.874,239.973 L 194.737,240.099 L 194.634,240.247 L 194.52,240.373 L 194.429,240.498 L 194.338,240.635 L 194.235,240.783 L 194.166,240.943 L 194.087,241.103 L 194.018,241.262 L 193.961,241.422 L 193.915,241.593 L 193.881,241.764 L 193.858,241.924 L 193.836,242.095 L 193.801,242.278 L 193.801,242.438 L 193.801,242.438 L 193.801,242.62 L 193.836,242.78 L 193.858,242.951 L 193.881,243.133 L 193.915,243.293 L 193.961,243.453 L 194.018,243.613 L 194.087,243.772 L 194.166,243.932 L 194.235,244.092 L 194.338,244.24 L 194.429,244.377 L 194.52,244.525 L 194.634,244.651 L 194.737,244.776 L 194.874,244.902 L 195.011,245.016 L 195.148,245.13 L 195.284,245.221 L 195.421,245.324 L 195.57,245.415 L 195.729,245.484 L 195.878,245.552 L 196.049,245.632 L 196.209,245.666 L 196.368,245.735 L 196.528,245.769 L 196.711,245.792 L 196.882,245.826 L 197.064,245.837 L 197.224,245.837 L 197.224,245.837 L 197.407,245.837 L 197.578,245.826 L 197.76,245.792 L 197.931,245.769 L 198.091,245.735 L 198.262,245.666 L 198.422,245.632 L 198.582,245.552 L 198.73,245.484 L 198.901,245.415 L 199.049,245.324 L 199.186,245.221 L 199.323,245.13 L 199.449,245.016 L 199.586,244.902 L 199.723,244.776 L 199.837,244.651 L 199.939,244.525 L 200.042,244.377 L 200.133,244.24 L 200.225,244.092 L 200.293,243.932 L 200.373,243.772 L 200.441,243.613 L 200.498,243.453 L 200.544,243.293 L 200.578,243.133 L 200.612,242.951 L 200.635,242.78 L 200.658,242.62 L 200.658,242.438z"/>
      <path style="fill: none; stroke-opacity: 1; stroke-width: 0.02; stroke: #550000" d="M 200.282 242.084 L 200.282,241.901 L 200.27,241.742 L 200.225,241.559 L 200.213,241.399 L 200.179,241.228 L 200.133,241.068 L 200.065,240.909 L 200.008,240.738 L 199.928,240.601 L 199.859,240.418 L 199.768,240.281 L 199.654,240.133 L 199.563,239.996 L 199.472,239.871 L 199.357,239.745 L 199.232,239.62 L 199.084,239.494 L 198.947,239.391 L 198.81,239.3 L 198.662,239.197 L 198.525,239.106 L 198.376,239.015 L 198.217,238.958 L 198.057,238.889 L 197.874,238.855 L 197.726,238.798 L 197.555,238.764 L 197.372,238.73 L 197.201,238.695 L 197.019,238.673 L 196.859,238.673 L 196.859,238.673 L 196.688,238.673 L 196.505,238.695 L 196.334,238.73 L 196.163,238.764 L 195.992,238.798 L 195.843,238.855 L 195.661,238.889 L 195.501,238.958 L 195.341,239.015 L 195.193,239.106 L 195.045,239.197 L 194.885,239.3 L 194.76,239.391 L 194.634,239.494 L 194.509,239.62 L 194.372,239.745 L 194.246,239.871 L 194.155,239.996 L 194.052,240.133 L 193.95,240.281 L 193.87,240.418 L 193.778,240.601 L 193.71,240.738 L 193.653,240.909 L 193.596,241.068 L 193.55,241.228 L 193.516,241.399 L 193.482,241.559 L 193.448,241.742 L 193.436,241.901 L 193.436,242.084 L 193.436,242.084 L 193.436,242.244 L 193.448,242.415 L 193.482,242.597 L 193.516,242.757 L 193.55,242.94 L 193.596,243.099 L 193.653,243.259 L 193.71,243.419 L 193.778,243.578 L 193.87,243.738 L 193.95,243.875 L 194.052,244.023 L 194.155,244.16 L 194.246,244.286 L 194.372,244.434 L 194.509,244.56 L 194.634,244.651 L 194.76,244.776 L 194.885,244.856 L 195.045,244.97 L 195.193,245.039 L 195.341,245.13 L 195.501,245.199 L 195.661,245.256 L 195.843,245.324 L 195.992,245.358 L 196.163,245.415 L 196.334,245.427 L 196.505,245.472 L 196.688,245.472 L 196.859,245.472 L 196.859,245.472 L 197.019,245.472 L 197.201,245.472 L 197.372,245.427 L 197.555,245.415 L 197.726,245.358 L 197.874,245.324 L 198.057,245.256 L 198.217,245.199 L 198.376,245.13 L 198.525,245.039 L 198.662,244.97 L 198.81,244.856 L 198.947,244.776 L 199.084,244.651 L 199.232,244.56 L 199.357,244.434 L 199.472,244.286 L 199.563,244.16 L 199.654,244.023 L 199.768,243.875 L 199.859,243.738 L 199.928,243.578 L 200.008,243.419 L 200.065,243.259 L 200.133,243.099 L 200.179,242.94 L 200.213,242.757 L 200.225,242.597 L 200.27,242.415 L 200.282,242.244 L 200.282,242.084"/>
    </g>
    <polyline style="fill: none; stroke-opacity: 1; stroke-width: 2; stroke: #000000" points="203.67,254.166 203.67,339.538 176.045,339.538 176.045,424.911 "/>
    <g>
      <path style="fill: #788e96; fill-opacity: 1; stroke: none" fill-rule="evenodd" d="M 225.859 73.1145 L 225.823,72.1046 L 225.738,71.0946 L 225.581,70.102 L 225.363,69.1269 L 225.084,68.1517 L 224.744,67.194 L 224.345,66.2537 L 223.896,65.3308 L 223.375,64.4253 L 222.793,63.5372 L 222.175,62.6839 L 221.497,61.8481 L 220.77,61.0471 L 219.982,60.2635 L 219.158,59.5321 L 218.297,58.8181 L 217.376,58.1564 L 216.419,57.547 L 215.425,56.9201 L 214.383,56.3803 L 213.317,55.8753 L 212.238,55.4051 L 211.123,54.9872 L 209.972,54.6215 L 208.809,54.3081 L 207.621,54.0295 L 206.421,53.8031 L 205.209,53.629 L 203.985,53.4897 L 202.749,53.42 L 201.501,53.42 L 201.501,53.42 L 200.289,53.42 L 199.053,53.4897 L 197.829,53.629 L 196.617,53.8031 L 195.418,54.0295 L 194.23,54.3081 L 193.067,54.6215 L 191.915,54.9872 L 190.8,55.4051 L 189.685,55.8753 L 188.631,56.3803 L 187.613,56.9201 L 186.619,57.547 L 185.662,58.1564 L 184.741,58.8181 L 183.881,59.5321 L 183.044,60.2635 L 182.269,61.0471 L 181.542,61.8481 L 180.851,62.6839 L 180.221,63.5372 L 179.663,64.4253 L 179.142,65.3308 L 178.682,66.2537 L 178.294,67.194 L 177.955,68.1517 L 177.676,69.1269 L 177.458,70.102 L 177.3,71.0946 L 177.203,72.1046 L 177.167,73.1145 L 177.167,73.1145 L 177.203,74.0897 L 177.3,75.0997 L 177.458,76.0748 L 177.676,77.05 L 177.955,78.0251 L 178.294,78.9829 L 178.682,79.9232 L 179.142,80.8635 L 179.663,81.769 L 180.221,82.6571 L 180.851,83.5103 L 181.542,84.3462 L 182.269,85.1472 L 183.044,85.9134 L 183.881,86.6622 L 184.741,87.3761 L 185.662,88.0378 L 186.619,88.6821 L 187.613,89.2567 L 188.631,89.814 L 189.685,90.319 L 190.8,90.7891 L 191.915,91.1896 L 193.067,91.5727 L 194.23,91.8862 L 195.418,92.1648 L 196.617,92.3912 L 197.829,92.5653 L 199.053,92.7046 L 200.289,92.7743 L 201.501,92.8091 L 201.501,92.8091 L 202.749,92.7743 L 203.985,92.7046 L 205.209,92.5653 L 206.421,92.3912 L 207.621,92.1648 L 208.809,91.8862 L 209.972,91.5727 L 211.123,91.1896 L 212.238,90.7891 L 213.317,90.319 L 214.383,89.814 L 215.425,89.2567 L 216.419,88.6821 L 217.376,88.0378 L 218.297,87.3761 L 219.158,86.6622 L 219.982,85.9134 L 220.77,85.1472 L 221.497,84.3462 L 222.175,83.5103 L 222.793,82.6571 L 223.375,81.769 L 223.896,80.8635 L 224.345,79.9232 L 224.744,78.9829 L 225.084,78.0251 L 225.363,77.05 L 225.581,76.0748 L 225.738,75.0997 L 225.823,74.0897 L 225.859,73.1145z"/>
      <path style="fill: #788e96; fill-opacity: 1; stroke: none" fill-rule="evenodd" d="M 187.698 83.4233 L 187.674,82.4133 L 187.601,81.4207 L 187.492,80.4282 L 187.322,79.453 L 187.104,78.4779 L 186.85,77.5201 L 186.535,76.5972 L 186.183,75.6395 L 185.795,74.7514 L 185.359,73.8459 L 184.874,73.0101 L 184.353,72.1568 L 183.784,71.3732 L 183.202,70.607 L 182.572,69.8582 L 181.881,69.1443 L 181.202,68.4652 L 180.451,67.8383 L 179.7,67.2462 L 178.912,66.7064 L 178.088,66.2014 L 177.252,65.7313 L 176.391,65.3133 L 175.519,64.9477 L 174.622,64.6168 L 173.713,64.3556 L 172.804,64.1292 L 171.859,63.9725 L 170.926,63.8158 L 169.981,63.7461 L 169.035,63.7113 L 169.035,63.7113 L 168.102,63.7461 L 167.157,63.8158 L 166.224,63.9725 L 165.279,64.1292 L 164.358,64.3556 L 163.461,64.6168 L 162.564,64.9477 L 161.679,65.3133 L 160.819,65.7313 L 159.983,66.2014 L 159.171,66.7064 L 158.383,67.2462 L 157.62,67.8383 L 156.88,68.4652 L 156.19,69.1443 L 155.511,69.8582 L 154.881,70.607 L 154.287,71.3732 L 153.73,72.1568 L 153.196,73.0101 L 152.724,73.8459 L 152.287,74.7514 L 151.888,75.6395 L 151.548,76.5972 L 151.233,77.5201 L 150.967,78.4779 L 150.761,79.453 L 150.591,80.4282 L 150.482,81.4207 L 150.397,82.4133 L 150.385,83.4233 L 150.385,83.4233 L 150.397,84.4332 L 150.482,85.4084 L 150.591,86.401 L 150.761,87.3761 L 150.967,88.3513 L 151.233,89.3264 L 151.548,90.2493 L 151.888,91.1896 L 152.287,92.0777 L 152.724,92.9832 L 153.196,93.8365 L 153.73,94.6723 L 154.287,95.4733 L 154.881,96.2395 L 155.511,96.9709 L 156.19,97.7022 L 156.88,98.364 L 157.62,99.0082 L 158.383,99.5829 L 159.171,100.123 L 159.983,100.645 L 160.819,101.098 L 161.679,101.516 L 162.564,101.881 L 163.461,102.212 L 164.358,102.491 L 165.279,102.717 L 166.224,102.874 L 167.157,103.013 L 168.102,103.083 L 169.035,103.118 L 169.035,103.118 L 169.981,103.083 L 170.926,103.013 L 171.859,102.874 L 172.804,102.717 L 173.713,102.491 L 174.622,102.212 L 175.519,101.881 L 176.391,101.516 L 177.252,101.098 L 178.088,100.645 L 178.912,100.123 L 179.7,99.5829 L 180.451,99.0082 L 181.202,98.364 L 181.881,97.7022 L 182.572,96.9709 L 183.202,96.2395 L 183.784,95.4733 L 184.353,94.6723 L 184.874,93.8365 L 185.359,92.9832 L 185.795,92.0777 L 186.183,91.1896 L 186.535,90.2493 L 186.85,89.3264 L 187.104,88.3513 L 187.322,87.3761 L 187.492,86.401 L 187.601,85.4084 L 187.674,84.4332 L 187.698,83.4233z"/>
      <path style="fill: #788e96; fill-opacity: 1; stroke: none" fill-rule="evenodd" d="M 164.176 103.518 L 164.152,102.717 L 164.115,101.881 L 164.03,101.08 L 163.909,100.279 L 163.764,99.4784 L 163.594,98.7122 L 163.388,97.9286 L 163.158,97.1798 L 162.891,96.4311 L 162.588,95.7171 L 162.273,95.0206 L 161.922,94.3415 L 161.534,93.6797 L 161.134,93.0355 L 160.71,92.4434 L 160.261,91.8688 L 159.789,91.3115 L 159.292,90.8065 L 158.783,90.319 L 158.25,89.8836 L 157.692,89.4657 L 157.135,89.0826 L 156.553,88.7343 L 155.959,88.4557 L 155.366,88.1771 L 154.748,87.9507 L 154.129,87.7592 L 153.499,87.6199 L 152.869,87.5328 L 152.239,87.4806 L 151.597,87.4458 L 151.597,87.4458 L 150.954,87.4806 L 150.324,87.5328 L 149.694,87.6199 L 149.064,87.7592 L 148.446,87.9507 L 147.828,88.1771 L 147.234,88.4557 L 146.64,88.7343 L 146.059,89.0826 L 145.489,89.4657 L 144.944,89.8836 L 144.41,90.319 L 143.901,90.8065 L 143.405,91.3115 L 142.932,91.8688 L 142.484,92.4434 L 142.059,93.0355 L 141.647,93.6797 L 141.272,94.3415 L 140.92,95.0206 L 140.605,95.7171 L 140.302,96.4311 L 140.036,97.1798 L 139.805,97.9286 L 139.599,98.7122 L 139.43,99.4784 L 139.284,100.279 L 139.163,101.08 L 139.078,101.881 L 139.042,102.717 L 139.018,103.518 L 139.018,103.518 L 139.042,104.319 L 139.078,105.138 L 139.163,105.939 L 139.284,106.74 L 139.43,107.541 L 139.599,108.324 L 139.805,109.091 L 140.036,109.857 L 140.302,110.588 L 140.605,111.32 L 140.92,112.016 L 141.272,112.695 L 141.647,113.374 L 142.059,113.984 L 142.484,114.576 L 142.932,115.15 L 143.405,115.708 L 143.901,116.213 L 144.41,116.7 L 144.944,117.153 L 145.489,117.571 L 146.059,117.954 L 146.64,118.285 L 147.234,118.598 L 147.828,118.842 L 148.446,119.068 L 149.064,119.26 L 149.694,119.399 L 150.324,119.504 L 150.954,119.556 L 151.597,119.591 L 151.597,119.591 L 152.239,119.556 L 152.869,119.504 L 153.499,119.399 L 154.129,119.26 L 154.748,119.068 L 155.366,118.842 L 155.959,118.598 L 156.553,118.285 L 157.135,117.954 L 157.692,117.571 L 158.25,117.153 L 158.783,116.7 L 159.292,116.213 L 159.789,115.708 L 160.261,115.15 L 160.71,114.576 L 161.134,113.984 L 161.534,113.374 L 161.922,112.695 L 162.273,112.016 L 162.588,111.32 L 162.891,110.588 L 163.158,109.857 L 163.388,109.091 L 163.594,108.324 L 163.764,107.541 L 163.909,106.74 L 164.03,105.939 L 164.115,105.138 L 164.152,104.319 L 164.176,103.518z"/>
      <path style="fill: #788e96; fill-opacity: 1; stroke: none" fill-rule="evenodd" d="M 184.462 118.999 L 184.45,118.128 L 184.365,117.257 L 184.232,116.369 L 184.075,115.499 L 183.856,114.645 L 183.602,113.81 L 183.287,112.956 L 182.935,112.138 L 182.535,111.354 L 182.087,110.571 L 181.59,109.805 L 181.081,109.073 L 180.5,108.377 L 179.906,107.663 L 179.251,107.018 L 178.585,106.409 L 177.87,105.799 L 177.131,105.242 L 176.355,104.72 L 175.555,104.25 L 174.719,103.814 L 173.871,103.379 L 172.998,103.013 L 172.101,102.682 L 171.205,102.404 L 170.284,102.177 L 169.35,101.951 L 168.405,101.794 L 167.448,101.69 L 166.49,101.638 L 165.533,101.62 L 165.533,101.62 L 164.576,101.638 L 163.618,101.69 L 162.661,101.794 L 161.728,101.951 L 160.783,102.177 L 159.862,102.404 L 158.965,102.682 L 158.068,103.013 L 157.195,103.379 L 156.347,103.814 L 155.511,104.25 L 154.711,104.72 L 153.936,105.242 L 153.196,105.799 L 152.481,106.409 L 151.815,107.018 L 151.16,107.663 L 150.567,108.377 L 149.997,109.073 L 149.464,109.805 L 148.979,110.571 L 148.531,111.354 L 148.131,112.138 L 147.779,112.956 L 147.464,113.81 L 147.198,114.645 L 146.992,115.499 L 146.822,116.369 L 146.701,117.257 L 146.616,118.128 L 146.604,118.999 L 146.604,118.999 L 146.616,119.904 L 146.701,120.775 L 146.822,121.663 L 146.992,122.534 L 147.198,123.387 L 147.464,124.223 L 147.779,125.059 L 148.131,125.895 L 148.531,126.661 L 148.979,127.444 L 149.464,128.21 L 149.997,128.959 L 150.567,129.656 L 151.16,130.37 L 151.815,131.014 L 152.481,131.624 L 153.196,132.216 L 153.936,132.773 L 154.711,133.313 L 155.511,133.783 L 156.347,134.218 L 157.195,134.636 L 158.068,135.002 L 158.965,135.333 L 159.862,135.611 L 160.783,135.855 L 161.728,136.047 L 162.661,136.238 L 163.618,136.343 L 164.576,136.395 L 165.533,136.412 L 165.533,136.412 L 166.49,136.395 L 167.448,136.343 L 168.405,136.238 L 169.35,136.047 L 170.284,135.855 L 171.205,135.611 L 172.101,135.333 L 172.998,135.002 L 173.871,134.636 L 174.719,134.218 L 175.555,133.783 L 176.355,133.313 L 177.131,132.773 L 177.87,132.216 L 178.585,131.624 L 179.251,131.014 L 179.906,130.37 L 180.5,129.656 L 181.081,128.959 L 181.59,128.21 L 182.087,127.444 L 182.535,126.661 L 182.935,125.895 L 183.287,125.059 L 183.602,124.223 L 183.856,123.387 L 184.075,122.534 L 184.232,121.663 L 184.365,120.775 L 184.45,119.904 L 184.462,118.999z"/>
      <path style="fill: #788e96; fill-opacity: 1; stroke: none" fill-rule="evenodd" d="M 229.907 128.002 L 229.883,126.957 L 229.762,125.912 L 229.592,124.885 L 229.337,123.84 L 228.998,122.847 L 228.622,121.82 L 228.162,120.827 L 227.629,119.852 L 227.023,118.894 L 226.368,117.971 L 225.641,117.083 L 224.854,116.213 L 224.005,115.359 L 223.096,114.541 L 222.139,113.775 L 221.121,113.026 L 220.067,112.329 L 218.952,111.668 L 217.788,111.041 L 216.601,110.466 L 215.365,109.944 L 214.104,109.474 L 212.796,109.038 L 211.463,108.638 L 210.105,108.29 L 208.724,108.011 L 207.342,107.767 L 205.924,107.576 L 204.506,107.454 L 203.076,107.367 L 201.646,107.349 L 201.646,107.349 L 200.216,107.367 L 198.774,107.454 L 197.369,107.576 L 195.951,107.767 L 194.569,108.011 L 193.176,108.29 L 191.83,108.638 L 190.497,109.038 L 189.189,109.474 L 187.928,109.944 L 186.692,110.466 L 185.492,111.041 L 184.341,111.668 L 183.226,112.329 L 182.172,113.026 L 181.154,113.775 L 180.197,114.541 L 179.288,115.359 L 178.439,116.213 L 177.652,117.083 L 176.925,117.971 L 176.27,118.894 L 175.664,119.852 L 175.131,120.827 L 174.67,121.82 L 174.283,122.847 L 173.955,123.84 L 173.701,124.885 L 173.519,125.912 L 173.41,126.957 L 173.374,128.002 L 173.374,128.002 L 173.41,129.064 L 173.519,130.091 L 173.701,131.136 L 173.955,132.163 L 174.283,133.191 L 174.67,134.183 L 175.131,135.176 L 175.664,136.151 L 176.27,137.109 L 176.925,138.032 L 177.652,138.955 L 178.439,139.825 L 179.288,140.644 L 180.197,141.462 L 181.154,142.246 L 182.172,142.994 L 183.226,143.691 L 184.341,144.353 L 185.492,144.962 L 186.692,145.537 L 187.928,146.077 L 189.189,146.547 L 190.497,147.017 L 191.83,147.365 L 193.176,147.713 L 194.569,148.01 L 195.951,148.236 L 197.369,148.427 L 198.774,148.549 L 200.216,148.654 L 201.646,148.671 L 201.646,148.671 L 203.076,148.654 L 204.506,148.549 L 205.924,148.427 L 207.342,148.236 L 208.724,148.01 L 210.105,147.713 L 211.463,147.365 L 212.796,147.017 L 214.104,146.547 L 215.365,146.077 L 216.601,145.537 L 217.788,144.962 L 218.952,144.353 L 220.067,143.691 L 221.121,142.994 L 222.139,142.246 L 223.096,141.462 L 224.005,140.644 L 224.854,139.825 L 225.641,138.955 L 226.368,138.032 L 227.023,137.109 L 227.629,136.151 L 228.162,135.176 L 228.622,134.183 L 228.998,133.191 L 229.337,132.163 L 229.592,131.136 L 229.762,130.091 L 229.883,129.064 L 229.907,128.002z"/>
      <path style="fill: #788e96; fill-opacity: 1; stroke: none" fill-rule="evenodd" d="M 245.613 80.3585 L 245.588,79.5923 L 245.516,78.8087 L 245.407,78.0251 L 245.237,77.2589 L 245.031,76.4927 L 244.777,75.7265 L 244.486,74.9778 L 244.146,74.2638 L 243.759,73.5499 L 243.334,72.8533 L 242.862,72.1742 L 242.365,71.5299 L 241.82,70.8856 L 241.238,70.2762 L 240.62,69.7015 L 239.978,69.1443 L 239.287,68.6045 L 238.584,68.1169 L 237.833,67.6642 L 237.069,67.2288 L 236.269,66.8283 L 235.457,66.48 L 234.633,66.1492 L 233.773,65.8532 L 232.9,65.6094 L 232.028,65.383 L 231.119,65.1914 L 230.21,65.0521 L 229.301,64.9477 L 228.392,64.8954 L 227.483,64.878 L 227.483,64.878 L 226.562,64.8954 L 225.653,64.9477 L 224.732,65.0521 L 223.836,65.1914 L 222.939,65.383 L 222.054,65.6094 L 221.182,65.8532 L 220.333,66.1492 L 219.497,66.48 L 218.685,66.8283 L 217.885,67.2288 L 217.11,67.6642 L 216.383,68.1169 L 215.668,68.6045 L 214.989,69.1443 L 214.347,69.7015 L 213.729,70.2762 L 213.147,70.8856 L 212.602,71.5299 L 212.105,72.1742 L 211.632,72.8533 L 211.196,73.5499 L 210.82,74.2638 L 210.481,74.9778 L 210.178,75.7265 L 209.936,76.4927 L 209.73,77.2589 L 209.56,78.0251 L 209.439,78.8087 L 209.378,79.5923 L 209.354,80.3585 L 209.354,80.3585 L 209.378,81.1595 L 209.439,81.9257 L 209.56,82.7093 L 209.73,83.4755 L 209.936,84.2417 L 210.178,84.9905 L 210.481,85.7392 L 210.82,86.4706 L 211.196,87.1846 L 211.632,87.8811 L 212.105,88.5602 L 212.602,89.2219 L 213.147,89.8314 L 213.729,90.4583 L 214.347,91.0329 L 214.989,91.6076 L 215.668,92.1125 L 216.383,92.6001 L 217.11,93.0703 L 217.885,93.5056 L 218.685,93.9061 L 219.497,94.2718 L 220.333,94.5852 L 221.182,94.8813 L 222.054,95.1425 L 222.939,95.3514 L 223.836,95.543 L 224.732,95.6823 L 225.653,95.7694 L 226.562,95.8216 L 227.483,95.8564 L 227.483,95.8564 L 228.392,95.8216 L 229.301,95.7694 L 230.21,95.6823 L 231.119,95.543 L 232.028,95.3514 L 232.9,95.1425 L 233.773,94.8813 L 234.633,94.5852 L 235.457,94.2718 L 236.269,93.9061 L 237.069,93.5056 L 237.833,93.0703 L 238.584,92.6001 L 239.287,92.1125 L 239.978,91.6076 L 240.62,91.0329 L 241.238,90.4583 L 241.82,89.8314 L 242.365,89.2219 L 242.862,88.5602 L 243.334,87.8811 L 243.759,87.1846 L 244.146,86.4706 L 244.486,85.7392 L 244.777,84.9905 L 245.031,84.2417 L 245.237,83.4755 L 245.407,82.7093 L 245.516,81.9257 L 245.588,81.1595 L 245.613,80.3585z"/>
      <path style="fill: #788e96; fill-opacity: 1; stroke: none" fill-rule="evenodd" d="M 250.739 100.262 L 250.727,99.4784 L 250.666,98.6948 L 250.545,97.9286 L 250.387,97.1624 L 250.181,96.3962 L 249.927,95.6475 L 249.636,94.8813 L 249.297,94.1499 L 248.909,93.436 L 248.497,92.7394 L 248.012,92.0603 L 247.527,91.3986 L 246.982,90.7717 L 246.413,90.1622 L 245.807,89.5702 L 245.164,89.0304 L 244.486,88.4906 L 243.771,88.0204 L 243.044,87.5328 L 242.28,87.0975 L 241.492,86.7144 L 240.693,86.3487 L 239.856,86.0179 L 239.02,85.7392 L 238.16,85.4606 L 237.275,85.2517 L 236.39,85.0775 L 235.494,84.9382 L 234.585,84.8337 L 233.676,84.7815 L 232.767,84.7641 L 232.767,84.7641 L 231.858,84.7815 L 230.949,84.8337 L 230.04,84.9382 L 229.144,85.0775 L 228.247,85.2517 L 227.386,85.4606 L 226.526,85.7392 L 225.666,86.0179 L 224.854,86.3487 L 224.042,86.7144 L 223.242,87.0975 L 222.49,87.5328 L 221.763,88.0204 L 221.048,88.4906 L 220.37,89.0304 L 219.74,89.5702 L 219.121,90.1622 L 218.552,90.7717 L 218.007,91.3986 L 217.51,92.0603 L 217.037,92.7394 L 216.625,93.436 L 216.249,94.1499 L 215.898,94.8813 L 215.595,95.6475 L 215.353,96.3962 L 215.134,97.1624 L 214.989,97.9286 L 214.88,98.6948 L 214.807,99.4784 L 214.783,100.262 L 214.783,100.262 L 214.807,101.046 L 214.88,101.812 L 214.989,102.613 L 215.134,103.379 L 215.353,104.145 L 215.595,104.894 L 215.898,105.66 L 216.249,106.374 L 216.625,107.088 L 217.037,107.785 L 217.51,108.446 L 218.007,109.108 L 218.552,109.735 L 219.121,110.344 L 219.74,110.936 L 220.37,111.494 L 221.048,112.016 L 221.763,112.521 L 222.49,112.974 L 223.242,113.409 L 224.042,113.827 L 224.854,114.175 L 225.666,114.489 L 226.526,114.802 L 227.386,115.046 L 228.247,115.255 L 229.144,115.446 L 230.04,115.586 L 230.949,115.673 L 231.858,115.725 L 232.767,115.777 L 232.767,115.777 L 233.676,115.725 L 234.585,115.673 L 235.494,115.586 L 236.39,115.446 L 237.275,115.255 L 238.16,115.046 L 239.02,114.802 L 239.856,114.489 L 240.693,114.175 L 241.492,113.827 L 242.28,113.409 L 243.044,112.974 L 243.771,112.521 L 244.486,112.016 L 245.164,111.494 L 245.807,110.936 L 246.413,110.344 L 246.982,109.735 L 247.527,109.108 L 248.012,108.446 L 248.497,107.785 L 248.909,107.088 L 249.297,106.374 L 249.636,105.66 L 249.927,104.894 L 250.181,104.145 L 250.387,103.379 L 250.545,102.613 L 250.666,101.812 L 250.727,101.046 L 250.739,100.262z"/>
      <path style="fill: #788e96; fill-opacity: 1; stroke: none" fill-rule="evenodd" d="M 247.237 116.7 L 247.212,115.412 L 247.152,114.14 L 247.031,112.852 L 246.873,111.581 L 246.667,110.344 L 246.413,109.091 L 246.122,107.872 L 245.794,106.688 L 245.407,105.503 L 244.983,104.354 L 244.534,103.257 L 244.037,102.177 L 243.504,101.133 L 242.935,100.14 L 242.329,99.1824 L 241.686,98.2769 L 241.02,97.4062 L 240.317,96.5878 L 239.59,95.8216 L 238.826,95.1251 L 238.051,94.4808 L 237.251,93.8713 L 236.427,93.3489 L 235.579,92.8613 L 234.73,92.426 L 233.846,92.0777 L 232.973,91.7991 L 232.088,91.5727 L 231.192,91.3986 L 230.283,91.3115 L 229.374,91.2941 L 229.374,91.2941 L 228.465,91.3115 L 227.58,91.3986 L 226.683,91.5727 L 225.787,91.7991 L 224.914,92.0777 L 224.03,92.426 L 223.169,92.8613 L 222.333,93.3489 L 221.521,93.8713 L 220.721,94.4808 L 219.946,95.1251 L 219.182,95.8216 L 218.455,96.5878 L 217.752,97.4062 L 217.086,98.2769 L 216.431,99.1824 L 215.825,100.14 L 215.268,101.133 L 214.735,102.177 L 214.226,103.257 L 213.777,104.354 L 213.353,105.503 L 212.977,106.688 L 212.638,107.872 L 212.335,109.091 L 212.105,110.344 L 211.887,111.581 L 211.729,112.852 L 211.62,114.14 L 211.547,115.412 L 211.523,116.7 L 211.523,116.7 L 211.547,118.006 L 211.62,119.277 L 211.729,120.566 L 211.887,121.837 L 212.105,123.091 L 212.335,124.327 L 212.638,125.564 L 212.977,126.73 L 213.353,127.897 L 213.777,129.064 L 214.226,130.161 L 214.735,131.24 L 215.268,132.285 L 215.825,133.295 L 216.431,134.236 L 217.086,135.158 L 217.752,136.029 L 218.455,136.83 L 219.182,137.579 L 219.946,138.31 L 220.721,138.955 L 221.521,139.547 L 222.333,140.086 L 223.169,140.557 L 224.03,140.975 L 224.914,141.323 L 225.787,141.619 L 226.683,141.845 L 227.58,142.019 L 228.465,142.124 L 229.374,142.141 L 229.374,142.141 L 230.283,142.124 L 231.192,142.019 L 232.088,141.845 L 232.973,141.619 L 233.846,141.323 L 234.73,140.975 L 235.579,140.557 L 236.427,140.086 L 237.251,139.547 L 238.051,138.955 L 238.826,138.31 L 239.59,137.579 L 240.317,136.83 L 241.02,136.029 L 241.686,135.158 L 242.329,134.236 L 242.935,133.295 L 243.504,132.285 L 244.037,131.24 L 244.534,130.161 L 244.983,129.064 L 245.407,127.897 L 245.794,126.73 L 246.122,125.564 L 246.413,124.327 L 246.667,123.091 L 246.873,121.837 L 247.031,120.566 L 247.152,119.277 L 247.212,118.006 L 247.237,116.7z"/>
      <path style="fill: #788e96; fill-opacity: 1; stroke: none" fill-rule="evenodd" d="M 231.798 101.411 L 231.761,100.123 L 231.628,98.8341 L 231.398,97.5455 L 231.07,96.2918 L 230.658,95.0206 L 230.137,93.8016 L 229.556,92.5653 L 228.877,91.3986 L 228.089,90.2145 L 227.253,89.0652 L 226.32,87.9507 L 225.314,86.8711 L 224.223,85.8437 L 223.06,84.8337 L 221.836,83.8934 L 220.539,82.9705 L 219.158,82.0998 L 217.752,81.2814 L 216.274,80.5326 L 214.735,79.8187 L 213.147,79.1744 L 211.523,78.5823 L 209.839,78.0251 L 208.154,77.5724 L 206.409,77.137 L 204.64,76.8062 L 202.858,76.4927 L 201.053,76.2664 L 199.223,76.0922 L 197.393,76.0052 L 195.563,75.9703 L 195.563,75.9703 L 193.709,76.0052 L 191.891,76.0922 L 190.073,76.2664 L 188.255,76.4927 L 186.474,76.8062 L 184.717,77.137 L 182.972,77.5724 L 181.263,78.0251 L 179.603,78.5823 L 177.967,79.1744 L 176.379,79.8187 L 174.852,80.5326 L 173.374,81.2814 L 171.944,82.0998 L 170.587,82.9705 L 169.29,83.8934 L 168.054,84.8337 L 166.89,85.8437 L 165.812,86.8711 L 164.794,87.9507 L 163.873,89.0652 L 163.012,90.2145 L 162.249,91.3986 L 161.57,92.5653 L 160.976,93.8016 L 160.468,95.0206 L 160.055,96.2918 L 159.728,97.5455 L 159.498,98.8341 L 159.353,100.123 L 159.316,101.411 L 159.316,101.411 L 159.353,102.717 L 159.498,103.971 L 159.728,105.26 L 160.055,106.531 L 160.468,107.785 L 160.976,109.038 L 161.57,110.24 L 162.249,111.441 L 163.012,112.626 L 163.873,113.757 L 164.794,114.854 L 165.812,115.934 L 166.89,116.979 L 168.054,117.971 L 169.29,118.929 L 170.587,119.835 L 171.944,120.705 L 173.374,121.541 L 174.852,122.307 L 176.379,122.986 L 177.967,123.648 L 179.603,124.258 L 181.263,124.78 L 182.972,125.25 L 184.717,125.686 L 186.474,126.034 L 188.255,126.347 L 190.073,126.556 L 191.891,126.713 L 193.709,126.817 L 195.563,126.835 L 195.563,126.835 L 197.393,126.817 L 199.223,126.713 L 201.053,126.556 L 202.858,126.347 L 204.64,126.034 L 206.409,125.686 L 208.154,125.25 L 209.839,124.78 L 211.523,124.258 L 213.147,123.648 L 214.735,122.986 L 216.274,122.307 L 217.752,121.541 L 219.158,120.705 L 220.539,119.835 L 221.836,118.929 L 223.06,117.971 L 224.223,116.979 L 225.314,115.934 L 226.32,114.854 L 227.253,113.757 L 228.089,112.626 L 228.877,111.441 L 229.556,110.24 L 230.137,109.038 L 230.658,107.785 L 231.07,106.531 L 231.398,105.26 L 231.628,103.971 L 231.761,102.717 L 231.798,101.411z"/>
      <path style="fill: #788e96; fill-opacity: 1; stroke: none" fill-rule="evenodd" d="M 201.792 73.2887 L 225.799,68.9005 L 225.496,67.9254 L 225.132,66.9676 L 224.708,66.0447 L 224.223,65.087 L 223.678,64.1815 L 223.072,63.3108 L 222.406,62.4401 L 221.727,61.6217 L 220.963,60.8207 L 220.164,60.0545 L 219.303,59.3057 L 218.419,58.644 L 217.473,57.9823 L 216.492,57.338 L 215.474,56.746 L 214.419,56.241 L 213.341,55.7186 L 212.226,55.2832 L 211.075,54.8827 L 209.911,54.517 L 208.724,54.2036 L 207.524,53.9598 L 206.312,53.7334 L 205.088,53.5767 L 203.84,53.4722 L 202.604,53.42 L 201.356,53.42 L 200.107,53.4374 L 198.859,53.5419 L 197.635,53.6812 L 196.423,53.8727 L 195.211,54.1339 L 194.012,54.4126 L 192.848,54.7608 L 191.709,55.1613 L 190.582,55.5967 L 189.467,56.0494 L 188.425,56.5892 L 187.395,57.1465 L 186.401,57.7733 L 185.444,58.4176 L 184.535,59.0968 L 183.675,59.8281 L 182.851,60.5943 L 182.087,61.3605 L 181.36,62.1963 L 180.681,63.0322 L 180.063,63.9203 L 179.518,64.8084 L 179.021,65.7313 L 178.573,66.689 L 178.197,67.6293 L 177.87,68.6045 L 177.603,69.5796 L 201.792,73.2887z"/>
      <path style="fill: none; stroke-opacity: 1; stroke-width: 0.02; stroke: #364749" d="M 225.787 68.8657 L 225.484,67.8905 L 225.12,66.9328 L 224.684,65.9751 L 224.199,65.0696 L 223.654,64.1466 L 223.06,63.276 L 222.406,62.4401 L 221.691,61.5869 L 220.939,60.8207 L 220.139,60.0545 L 219.279,59.2883 L 218.394,58.5918 L 217.449,57.9301 L 216.468,57.338 L 215.437,56.7285 L 214.407,56.2061 L 213.317,55.7186 L 212.19,55.2658 L 211.05,54.8479 L 209.911,54.4996 L 208.699,54.2036 L 207.512,53.9598 L 206.3,53.7334 L 205.064,53.5767 L 203.828,53.4722 L 202.592,53.42 L 201.344,53.42 L 200.107,53.4374 L 198.859,53.5419 L 197.635,53.6812 L 196.423,53.8727 L 195.211,54.1165 L 194.012,54.4126 L 192.848,54.7608 L 191.709,55.1613 L 190.582,55.5967 L 189.492,56.0494 L 188.437,56.5718 L 187.395,57.1465 L 186.413,57.7733 L 185.468,58.4176 L 184.559,59.0794 L 183.687,59.7933 L 182.875,60.5421 L 182.087,61.3605 L 181.36,62.1789 L 180.718,63.0148 L 180.075,63.8854 L 179.53,64.7909 L 179.033,65.7139 L 178.585,66.6368 L 178.197,67.5945 L 177.87,68.5696 L 177.615,69.5448"/>
      <path style="fill: #788e96; fill-opacity: 1; stroke: none" fill-rule="evenodd" d="M 169.181 83.6148 L 181.263,68.3781 L 180.512,67.7512 L 179.748,67.1592 L 178.936,66.6193 L 178.112,66.1144 L 177.264,65.6442 L 176.391,65.2437 L 175.507,64.878 L 174.598,64.5646 L 173.689,64.3034 L 172.756,64.0944 L 171.823,63.9203 L 170.877,63.7984 L 169.92,63.7461 L 168.975,63.7113 L 168.017,63.7461 L 167.072,63.868 L 166.127,63.9725 L 165.194,64.1815 L 164.273,64.4078 L 163.352,64.7039 L 162.455,65.0521 L 161.582,65.4178 L 160.722,65.8532 L 159.886,66.3233 L 159.062,66.8457 L 158.274,67.4029 L 157.511,68.0124 L 156.783,68.6567 L 156.081,69.3358 L 155.414,70.0672 L 154.784,70.8334 L 154.19,71.5996 L 153.633,72.418 L 153.124,73.2538 L 152.651,74.1419 L 152.215,75.03 L 151.827,75.9529 L 151.488,76.8932 L 151.185,77.851 L 150.93,78.8261 L 150.724,79.8013 L 150.567,80.7938 L 150.458,81.8212 L 150.397,82.7964 L 150.385,83.8064 L 150.421,84.8163 L 150.494,85.8089 L 150.627,86.8189 L 169.181,83.6148z"/>
      <path style="fill: none; stroke-opacity: 1; stroke-width: 0.02; stroke: #364749" d="M 181.202 68.3259 L 180.451,67.699 L 179.675,67.1243 L 178.888,66.5845 L 178.052,66.0795 L 177.203,65.6268 L 176.331,65.2263 L 175.446,64.8606 L 174.537,64.5472 L 173.628,64.3034 L 172.695,64.077 L 171.762,63.9029 L 170.817,63.7984 L 169.859,63.7461 L 168.914,63.7113 L 167.969,63.7636 L 167.012,63.868 L 166.066,63.9899 L 165.133,64.1815 L 164.212,64.4253 L 163.303,64.7387 L 162.406,65.0521 L 161.522,65.4527 L 160.686,65.8706 L 159.837,66.3581 L 159.025,66.8805 L 158.238,67.4552 L 157.474,68.0472 L 156.759,68.6741 L 156.056,69.3707 L 155.39,70.102 L 154.76,70.8508 L 154.166,71.6344 L 153.62,72.4528 L 153.099,73.2887 L 152.639,74.1942 L 152.203,75.0648 L 151.815,75.9877 L 151.476,76.9281 L 151.173,77.9032 L 150.93,78.8435 L 150.712,79.8535 L 150.567,80.8461 L 150.458,81.8386 L 150.397,82.8138 L 150.385,83.8412 L 150.421,84.8337 L 150.506,85.8437 L 150.627,86.8363"/>
      <path style="fill: #788e96; fill-opacity: 1; stroke: none" fill-rule="evenodd" d="M 165.8 119.19 L 146.337,118.668 L 146.337,119.556 L 146.374,120.462 L 146.471,121.367 L 146.604,122.255 L 146.798,123.143 L 147.04,124.014 L 147.331,124.885 L 147.658,125.738 L 148.034,126.556 L 148.458,127.375 L 148.931,128.193 L 149.44,128.959 L 149.997,129.708 L 150.579,130.405 L 151.221,131.119 L 151.888,131.78 L 152.59,132.39 L 153.318,132.982 L 154.093,133.556 L 154.881,134.061 L 155.717,134.549 L 156.553,135.037 L 157.426,135.42 L 158.335,135.803 L 159.244,136.134 L 160.165,136.395 L 161.11,136.639 L 162.067,136.83 L 163.037,136.969 L 164.006,137.109 L 164.988,137.144 L 165.969,137.161 L 166.939,137.126 L 167.92,137.056 L 168.89,136.935 L 169.859,136.795 L 170.805,136.569 L 171.738,136.308 L 172.671,136.029 L 173.58,135.663 L 174.464,135.28 L 175.337,134.862 L 176.173,134.41 L 176.985,133.905 L 177.773,133.365 L 178.536,132.79 L 165.8,119.19z"/>
      <path style="fill: none; stroke-opacity: 1; stroke-width: 0.02; stroke: #364749" d="M 146.337 118.668 L 146.325,119.556 L 146.374,120.462 L 146.471,121.332 L 146.616,122.238 L 146.798,123.126 L 147.04,124.014 L 147.319,124.885 L 147.658,125.72 L 148.034,126.556 L 148.458,127.357 L 148.931,128.176 L 149.415,128.942 L 149.973,129.673 L 150.567,130.405 L 151.197,131.066 L 151.851,131.745 L 152.566,132.372 L 153.281,132.982 L 154.057,133.539 L 154.857,134.061 L 155.669,134.549 L 156.517,134.984 L 157.389,135.402 L 158.286,135.768 L 159.195,136.099 L 160.116,136.377 L 161.061,136.639 L 162.019,136.813 L 162.976,136.969 L 163.946,137.074 L 164.927,137.144 L 165.909,137.161 L 166.878,137.144 L 167.848,137.056 L 168.817,136.952 L 169.787,136.795 L 170.732,136.569 L 171.677,136.343 L 172.61,136.029 L 173.507,135.698 L 174.392,135.315 L 175.264,134.897 L 176.088,134.427 L 176.912,133.957 L 177.7,133.417 L 178.464,132.86"/>
      <path style="fill: #788e96; fill-opacity: 1; stroke: none" fill-rule="evenodd" d="M 227.75 80.3585 L 244.886,85.4084 L 245.164,84.6596 L 245.395,83.8934 L 245.588,83.1272 L 245.722,82.361 L 245.819,81.5949 L 245.867,80.7764 L 245.867,79.9928 L 245.819,79.2092 L 245.734,78.443 L 245.588,77.6768 L 245.407,76.8758 L 245.189,76.1271 L 244.91,75.3609 L 244.595,74.6295 L 244.231,73.9156 L 243.819,73.219 L 243.371,72.5051 L 242.886,71.8434 L 242.365,71.1991 L 241.795,70.5722 L 241.202,69.9801 L 240.571,69.4229 L 239.893,68.8657 L 239.202,68.3607 L 238.475,67.8905 L 237.711,67.4552 L 236.936,67.0199 L 236.124,66.6368 L 235.288,66.2885 L 234.451,65.9751 L 233.603,65.7139 L 232.706,65.4875 L 231.822,65.2785 L 230.925,65.1218 L 230.016,64.9999 L 229.107,64.9477 L 228.186,64.878 L 227.253,64.8954 L 226.344,64.9477 L 225.423,65.0173 L 224.526,65.1218 L 223.617,65.2959 L 222.733,65.4875 L 221.848,65.7313 L 227.75,80.3585z"/>
      <path style="fill: none; stroke-opacity: 1; stroke-width: 0.02; stroke: #364749" d="M 243.237 88.2468 L 244.873,85.4432 L 245.152,84.677 L 245.395,83.9283 L 245.576,83.1621 L 245.722,82.3785 L 245.819,81.6123 L 245.867,80.8461 L 245.879,80.0277 L 245.819,79.2441 L 245.734,78.4604 L 245.588,77.6768 L 245.431,76.9281 L 245.189,76.1619 L 244.91,75.4131 L 244.607,74.6643 L 244.243,73.933 L 243.843,73.2364 L 243.395,72.5399 L 242.91,71.8782 L 242.389,71.2339 L 241.832,70.607 L 241.238,70.015 L 240.608,69.4403 L 239.941,68.9005 L 239.226,68.3781 L 238.511,67.8905 L 237.748,67.4552 L 236.984,67.0373 L 236.172,66.6542 L 235.36,66.3059 L 234.512,65.9925 L 233.652,65.7139 L 232.767,65.4875 L 231.882,65.2785 L 230.973,65.1218 L 230.065,65.0173 L 229.144,64.9477 L 228.223,64.878 L 227.302,64.878 L 226.405,64.9477 L 225.484,65.0173 L 224.563,65.1218 L 223.666,65.2785 L 222.781,65.4875 L 221.885,65.7139"/>
      <path style="fill: #788e96; fill-opacity: 1; stroke: none" fill-rule="evenodd" d="M 230.186 100.837 L 249.454,107.193 L 249.854,106.374 L 250.194,105.556 L 250.472,104.685 L 250.69,103.814 L 250.86,102.944 L 250.969,102.056 L 251.018,101.15 L 251.005,100.279 L 250.945,99.3913 L 250.824,98.5033 L 250.642,97.6326 L 250.4,96.7793 L 250.109,95.9087 L 249.757,95.0902 L 249.357,94.2544 L 248.909,93.4708 L 248.4,92.6524 L 247.843,91.9036 L 247.237,91.1722 L 230.186,100.837z"/>
      <path style="fill: none; stroke-opacity: 1; stroke-width: 0.02; stroke: #364749" d="M 246.958 110.101 L 249.442,107.245 L 249.83,106.426 L 250.181,105.556 L 250.46,104.702 L 250.69,103.814 L 250.86,102.944 L 250.969,102.073 L 251.018,101.15 L 251.018,100.279 L 250.933,99.3739 L 250.812,98.5033 L 250.642,97.6152 L 250.4,96.7445 L 250.097,95.8912 L 249.757,95.038 L 249.333,94.2196 L 248.885,93.4011 L 248.352,92.6175 L 247.806,91.8513 L 247.188,91.1026 L 243.237,88.2468"/>
      <path style="fill: #788e96; fill-opacity: 1; stroke: none" fill-rule="evenodd" d="M 229.374 117.658 L 223.302,141.828 L 224.199,142.228 L 225.096,142.559 L 226.017,142.838 L 226.938,143.047 L 227.859,143.203 L 228.804,143.256 L 229.737,143.273 L 230.67,143.203 L 231.616,143.099 L 232.537,142.89 L 233.458,142.629 L 234.367,142.298 L 235.251,141.932 L 236.124,141.462 L 236.996,140.957 L 237.845,140.4 L 238.669,139.773 L 239.456,139.076 L 240.232,138.328 L 240.971,137.544 L 241.686,136.691 L 242.365,135.803 L 243.007,134.845 L 243.613,133.852 L 244.195,132.825 L 244.728,131.745 L 245.213,130.648 L 245.673,129.499 L 246.085,128.332 L 246.461,127.131 L 246.776,125.912 L 247.067,124.658 L 247.297,123.404 L 247.479,122.116 L 247.624,120.827 L 247.709,119.521 L 247.758,118.215 L 247.758,116.909 L 247.697,115.603 L 247.6,114.315 L 247.455,113.026 L 247.273,111.755 L 247.031,110.484 L 229.374,117.658z"/>
      <path style="fill: none; stroke-opacity: 1; stroke-width: 0.02; stroke: #364749" d="M 223.351 141.863 L 224.223,142.246 L 225.132,142.594 L 226.065,142.873 L 226.999,143.064 L 227.92,143.203 L 228.853,143.273 L 229.798,143.308 L 230.719,143.203 L 231.652,143.099 L 232.585,142.89 L 233.506,142.629 L 234.403,142.298 L 235.288,141.897 L 236.184,141.462 L 237.033,140.94 L 237.881,140.382 L 238.705,139.738 L 239.493,139.059 L 240.256,138.31 L 241.008,137.492 L 241.711,136.639 L 242.389,135.75 L 243.031,134.828 L 243.649,133.8 L 244.231,132.773 L 244.752,131.711 L 245.249,130.579 L 245.698,129.447 L 246.11,128.298 L 246.473,127.096 L 246.8,125.842 L 247.079,124.589 L 247.297,123.335 L 247.479,122.081 L 247.624,120.775 L 247.709,119.486 L 247.758,118.18 L 247.758,116.857 L 247.697,115.568 L 247.6,114.262 L 247.455,112.956 L 247.249,111.685 L 247.018,110.449"/>
      <path style="fill: #788e96; fill-opacity: 1; stroke: none" fill-rule="evenodd" d="M 152.275 103.884 L 151.342,87.498 L 150.676,87.5851 L 150.009,87.6895 L 149.343,87.8637 L 148.688,88.0726 L 148.046,88.3164 L 147.416,88.595 L 146.786,88.9259 L 146.18,89.2916 L 145.598,89.6921 L 145.016,90.1448 L 144.459,90.6324 L 143.926,91.1374 L 143.405,91.6772 L 142.92,92.2693 L 142.459,92.8613 L 142.023,93.4882 L 141.599,94.1499 L 141.223,94.8464 L 140.86,95.543 L 140.532,96.2918 L 140.242,97.0579 L 139.975,97.8241 L 139.733,98.5903 L 139.539,99.3913 L 139.369,100.21 L 139.236,101.028 L 139.127,101.847 L 139.066,102.682 L 139.03,103.518 L 139.042,104.354 L 139.066,105.19 L 139.139,106.026 L 139.248,106.862 L 139.381,107.68 L 139.551,108.499 L 139.757,109.282 L 139.999,110.066 L 140.266,110.832 L 140.569,111.581 L 140.896,112.329 L 141.26,113.026 L 141.647,113.705 L 142.059,114.367 L 142.508,115.011 L 142.98,115.603 L 143.477,116.178 L 143.986,116.718 L 144.532,117.223 L 145.089,117.693 L 145.659,118.163 L 146.252,118.529 L 152.275,103.884z"/>
      <path style="fill: none; stroke-opacity: 1; stroke-width: 0.02; stroke: #364749" d="M 151.354 87.498 L 150.7,87.5851 L 150.033,87.6895 L 149.391,87.8463 L 148.749,88.0552 L 148.119,88.2816 L 147.488,88.5602 L 146.87,88.8911 L 146.277,89.2393 L 145.695,89.6224 L 145.125,90.0578 L 144.58,90.5279 L 144.047,91.0155 L 143.538,91.5379 L 143.041,92.0951 L 142.58,92.7046 L 142.144,93.2967 L 141.732,93.941 L 141.332,94.6201 L 140.981,95.3166 L 140.654,96.0131 L 140.351,96.7445 L 140.072,97.4933 L 139.817,98.2595 L 139.611,99.0257 L 139.43,99.8267 L 139.284,100.645 L 139.163,101.446 L 139.09,102.247 L 139.042,103.083 L 139.03,103.919 L 139.042,104.72 L 139.102,105.556 L 139.175,106.374 L 139.284,107.175 L 139.442,107.976 L 139.611,108.76 L 139.83,109.543 L 140.084,110.327 L 140.351,111.058 L 140.654,111.807 L 140.993,112.521 L 141.356,113.2 L 141.744,113.879 L 142.144,114.506 L 142.593,115.133 L 143.065,115.708 L 143.55,116.265 L 144.059,116.787 L 144.592,117.292 L 145.137,117.745 L 145.707,118.18 L 146.289,118.598"/>
      <path style="fill: #788e96; fill-opacity: 1; stroke: none" fill-rule="evenodd" d="M 201.38 130.283 L 173.798,132.181 L 173.968,133.138 L 174.21,134.096 L 174.525,135.037 L 174.901,135.942 L 175.349,136.882 L 175.87,137.77 L 176.44,138.641 L 177.082,139.494 L 177.785,140.313 L 178.536,141.149 L 179.36,141.897 L 180.221,142.664 L 181.166,143.378 L 182.148,144.074 L 183.178,144.718 L 184.232,145.31 L 185.371,145.885 L 186.535,146.425 L 187.722,146.912 L 188.934,147.365 L 190.207,147.783 L 191.503,148.149 L 192.824,148.462 L 194.157,148.758 L 195.514,148.985 L 196.884,149.159 L 198.253,149.298 L 199.659,149.368 L 201.041,149.42 L 202.434,149.403 L 203.828,149.333 L 205.221,149.211 L 206.579,149.089 L 207.948,148.863 L 209.305,148.602 L 210.626,148.323 L 211.935,147.957 L 213.208,147.574 L 214.456,147.139 L 215.668,146.686 L 216.843,146.146 L 217.982,145.606 L 219.073,144.997 L 220.127,144.37 L 221.121,143.691 L 222.078,142.994 L 222.987,142.263 L 223.836,141.497 L 224.611,140.713 L 225.35,139.877 L 226.017,139.059 L 226.635,138.206 L 227.168,137.318 L 227.641,136.395 L 201.38,130.283z"/>
      <path style="fill: none; stroke-opacity: 1; stroke-width: 0.02; stroke: #364749" d="M 173.798 132.216 L 173.968,133.156 L 174.21,134.096 L 174.525,135.054 L 174.901,135.977 L 175.349,136.9 L 175.87,137.77 L 176.452,138.641 L 177.082,139.512 L 177.785,140.313 L 178.536,141.149 L 179.36,141.897 L 180.221,142.664 L 181.178,143.378 L 182.136,144.074 L 183.178,144.718 L 184.232,145.31 L 185.371,145.885 L 186.51,146.425 L 187.722,146.912 L 188.934,147.365 L 190.194,147.783 L 191.479,148.149 L 192.8,148.462 L 194.133,148.723 L 195.502,148.985 L 196.86,149.141 L 198.241,149.298 L 199.611,149.35 L 201.028,149.42 L 202.41,149.403 L 203.804,149.333 L 205.197,149.211 L 206.567,149.089 L 207.924,148.863 L 209.269,148.602 L 210.59,148.323 L 211.887,147.992 L 213.159,147.574 L 214.419,147.156 L 215.619,146.686 L 216.795,146.164 L 217.946,145.624 L 219.037,145.014 L 220.091,144.405 L 221.097,143.708 L 222.03,143.029 L 222.939,142.281 L 223.775,141.532 L 224.587,140.731 L 225.314,139.947 L 225.993,139.076 L 226.574,138.223 L 227.144,137.335 L 227.629,136.447"/>
    </g>
    <g>
      <polygon style="fill: #ffffff; fill-opacity: 1; stroke-opacity: 1; stroke-width: 2; stroke: #000000" fill-rule="evenodd" points="294.462,216.65 523.762,216.65 535.762,228.65 535.762,298.65 294.462,298.65 "/>
      <polyline style="fill: none; stroke-opacity: 1; stroke-width: 1; stroke: #000000" points="523.762,216.65 523.762,228.65 535.762,228.65 "/>
      <text font-size="12.8" style="fill: #000000; fill-opacity: 1; stroke: none;text-anchor:start;font-family:monospace;font-style:normal;font-weight:normal" x="301.462" y="241.55">
        <tspan x="301.462" y="241.55">ISP Device</tspan>
        <tspan x="301.462" y="257.55">with OpenWRT Router's WAN IP</tspan>
        <tspan x="301.462" y="273.55">on DMZ / Exposed Host Feature</tspan>
        <tspan x="301.462" y="289.55">(NAT)</tspan>
      </text>
    </g>
    <g>
      <polyline style="fill: none; stroke-opacity: 1; stroke-width: 2; stroke-dasharray: 8; stroke: #000000" points="294.457,257.65 261.078,257.65 261.078,226.145 226.405,226.145 "/>
      <polyline style="fill: none; stroke-opacity: 1; stroke-width: 2; stroke: #000000" points="239.052,221.145 223.052,226.145 239.052,231.145 "/>
    </g>
    <g>
      <polygon style="fill: #ffffff; fill-opacity: 1; stroke-opacity: 1; stroke-width: 2; stroke: #000000" fill-rule="evenodd" points="331.918,75.52 491.918,75.52 503.918,87.52 503.918,141.52 331.918,141.52 "/>
      <polyline style="fill: none; stroke-opacity: 1; stroke-width: 1; stroke: #000000" points="491.918,75.52 491.918,87.52 503.918,87.52 "/>
      <text font-size="12.8" style="fill: #000000; fill-opacity: 1; stroke: none;text-anchor:start;font-family:monospace;font-style:normal;font-weight:normal" x="338.918" y="100.42">
        <tspan x="338.918" y="100.42">ISP's Network</tspan>
        <tspan x="338.918" y="116.42">(Can be an upstream </tspan>
        <tspan xml:space="preserve" x="338.918" y="132.42"> double NAT or not)</tspan>
      </text>
    </g>
    <g>
      <polyline style="fill: none; stroke-opacity: 1; stroke-width: 2; stroke-dasharray: 8; stroke: #000000" points="331.927,108.52 295.472,108.52 295.472,106.426 257.723,106.426 "/>
      <polyline style="fill: none; stroke-opacity: 1; stroke-width: 2; stroke: #000000" points="270.37,101.426 254.37,106.426 270.37,111.426 "/>
    </g>
    <g>
      <polygon style="fill: #ffffff; fill-opacity: 1; stroke-opacity: 1; stroke-width: 2; stroke: #000000" fill-rule="evenodd" points="313.918,441.52 427.718,441.52 439.718,453.52 439.718,491.52 313.918,491.52 "/>
      <polyline style="fill: none; stroke-opacity: 1; stroke-width: 1; stroke: #000000" points="427.718,441.52 427.718,453.52 439.718,453.52 "/>
      <text font-size="12.8" style="fill: #000000; fill-opacity: 1; stroke: none;text-anchor:start;font-family:monospace;font-style:normal;font-weight:normal" x="320.918" y="466.42">
        <tspan x="320.918" y="466.42">OpenWrt Router</tspan>
        <tspan x="320.918" y="482.42">(no NAT)</tspan>
      </text>
    </g>
    <g>
      <polyline style="fill: none; stroke-opacity: 1; stroke-width: 2; stroke-dasharray: 8; stroke: #000000" points="313.912,466.52 273.64,466.52 273.64,457.984 231.569,457.984 "/>
      <polyline style="fill: none; stroke-opacity: 1; stroke-width: 2; stroke: #000000" points="244.217,452.984 228.217,457.984 244.217,462.984 "/>
    </g>
    <text font-size="12.8" style="fill: #000000; fill-opacity: 1; stroke: none;text-anchor:start;font-family:sans-serif;font-style:normal;font-weight:normal" x="38.2" y="244.516">
      <tspan x="38.2" y="244.516">192.168.0.0/24</tspan>
    </text>
    <text font-size="12.8" style="fill: #000000; fill-opacity: 1; stroke: none;text-anchor:start;font-family:sans-serif;font-style:normal;font-weight:normal" x="189.943" y="383.9">
      <tspan x="189.943" y="383.9">192.168.0.211</tspan>
    </text>
    <line style="fill: none; stroke-opacity: 1; stroke-width: 2; stroke: #000000" x1="201" y1="214" x2="201.052" y2="149.42"/>
    <g>
      <polyline style="fill: none; stroke-opacity: 1; stroke-width: 2; stroke: #000000" points="176.362,490.66 176.362,534.91 102.436,534.91 102.436,674.174 "/>
      <polygon style="fill: #000000; fill-opacity: 1; stroke-opacity: 1; stroke-width: 2; stroke: #000000" fill-rule="evenodd" points="102.436,681.674 97.436,671.674 102.436,674.174 107.436,671.674 "/>
    </g>
    <g>
      <polyline style="fill: none; stroke-opacity: 1; stroke-width: 2; stroke: #000000" points="176.362,490.66 176.362,534.91 -28.9,534.91 -28.9,670.124 "/>
      <polygon style="fill: #000000; fill-opacity: 1; stroke-opacity: 1; stroke-width: 2; stroke: #000000" fill-rule="evenodd" points="-28.9,677.624 -33.9,667.624 -28.9,670.124 -23.9,667.624 "/>
    </g>
    <g>
      <polyline style="fill: none; stroke-opacity: 1; stroke-width: 2; stroke: #000000" points="176.362,490.66 176.362,535.52 246.996,535.52 246.996,671.314 "/>
      <polygon style="fill: #000000; fill-opacity: 1; stroke-opacity: 1; stroke-width: 2; stroke: #000000" fill-rule="evenodd" points="246.996,678.814 241.996,668.814 246.996,671.314 251.996,668.814 "/>
    </g>
    <g>
      <polyline style="fill: none; stroke-opacity: 1; stroke-width: 2; stroke: #000000" points="176.362,490.66 176.362,534.91 428.944,534.91 428.944,672.502 "/>
      <polygon style="fill: #000000; fill-opacity: 1; stroke-opacity: 1; stroke-width: 2; stroke: #000000" fill-rule="evenodd" points="428.944,680.002 423.944,670.002 428.944,672.502 433.944,670.002 "/>
    </g>
    <g>
      <polygon style="fill: #ffffff; fill-opacity: 1; stroke-opacity: 1; stroke-width: 2; stroke: #000000" fill-rule="evenodd" points="573.014,603.314 709.914,603.314 721.914,615.314 721.914,653.314 573.014,653.314 "/>
      <polyline style="fill: none; stroke-opacity: 1; stroke-width: 1; stroke: #000000" points="709.914,603.314 709.914,615.314 721.914,615.314 "/>
      <text font-size="12.8" style="fill: #000000; fill-opacity: 1; stroke: none;text-anchor:start;font-family:monospace;font-style:normal;font-weight:normal" x="580.014" y="628.214">
        <tspan x="580.014" y="628.214">Clients / Various</tspan>
        <tspan x="580.014" y="644.214">other subnets</tspan>
      </text>
    </g>
    <g>
      <polyline style="fill: none; stroke-opacity: 1; stroke-width: 2; stroke-dasharray: 8; stroke: #000000" points="573.023,628.314 480.412,628.314 480.412,629.292 438.341,629.292 "/>
      <polyline style="fill: none; stroke-opacity: 1; stroke-width: 2; stroke: #000000" points="450.989,624.292 434.989,629.292 450.989,634.292 "/>
    </g>
    <text font-size="12.8" style="fill: #000000; fill-opacity: 1; stroke: none;text-anchor:start;font-family:sans-serif;font-style:normal;font-weight:normal" x="-18.6729" y="564.752">
      <tspan x="-18.6729" y="564.752">192.168.5.0/24</tspan>
      <tspan x="-18.6729" y="580.752">(LAN1)</tspan>
    </text>
    <text font-size="12.8" style="fill: #000000; fill-opacity: 1; stroke: none;text-anchor:start;font-family:sans-serif;font-style:normal;font-weight:normal" x="115.708" y="580.212">
      <tspan x="115.708" y="580.212">192.168.6.0/24</tspan>
      <tspan x="115.708" y="596.212">(LAN2)</tspan>
    </text>
    <text font-size="12.8" style="fill: #000000; fill-opacity: 1; stroke: none;text-anchor:start;font-family:sans-serif;font-style:normal;font-weight:normal" x="270.304" y="570.698">
      <tspan x="270.304" y="570.698">192.168.7.0/24</tspan>
      <tspan x="270.304" y="586.698">(DMZ)</tspan>
    </text>
    <text font-size="12.8" style="fill: #000000; fill-opacity: 1; stroke: none;text-anchor:start;font-family:sans-serif;font-style:normal;font-weight:normal" x="59.1012" y="560.94">
      <tspan x="59.1012" y="560.94"></tspan>
    </text>
  </g>
</svg>
