<?xml version="1.0" encoding="UTF-8" standalone="no"?>
<!DOCTYPE svg PUBLIC "-//W3C//DTD SVG 1.0//EN" "http://www.w3.org/TR/2001/PR-SVG-20010719/DTD/svg10.dtd">
<svg width="31cm" height="31cm" viewBox="89 25 602 605" xmlns="http://www.w3.org/2000/svg" xmlns:xlink="http://www.w3.org/1999/xlink">
  <g id="Background">
    <g>
      <path style="fill: none; stroke-opacity: 1; stroke-width: 0.8; stroke: #00aed9" d="M 286.659 409.492 L 286.659,366.349"/>
      <path style="fill: none; stroke-opacity: 1; stroke-width: 4; stroke: #00aed9" d="M 286.659 408.796 L 286.659,379.202"/>
      <path style="fill: #000000; fill-opacity: 1; stroke: none" fill-rule="evenodd" d="M 287.912 370.494 L 285.274,370.494 L 285.274,365.22 L 287.912,365.22 L 287.912,370.494z"/>
      <path style="fill: none; stroke-opacity: 1; stroke-width: 2; stroke: #00aed9" d="M 287.912 370.494 L 285.274,370.494 L 285.274,365.22 L 287.912,365.22 L 287.912,370.494"/>
      <path style="fill: none; stroke-opacity: 1; stroke-width: 0.8; stroke: #00aed9" d="M 222.708 409.492 L 222.708,366.349"/>
      <path style="fill: none; stroke-opacity: 1; stroke-width: 4; stroke: #00aed9" d="M 222.708 408.796 L 222.708,379.202"/>
      <path style="fill: #000000; fill-opacity: 1; stroke: none" fill-rule="evenodd" d="M 223.961 370.494 L 221.324,370.494 L 221.324,365.22 L 223.961,365.22 L 223.961,370.494z"/>
      <path style="fill: none; stroke-opacity: 1; stroke-width: 2; stroke: #00aed9" d="M 223.961 370.494 L 221.324,370.494 L 221.324,365.22 L 223.961,365.22 L 223.961,370.494"/>
      <path style="fill: #00aed9; fill-opacity: 1; stroke: none" fill-rule="evenodd" d="M 304.547 414.97 C 304.547,425.386 282.832,433.831 256.044,433.831 C 229.256,433.831 207.542,425.386 207.542,414.97 L 207.542,442.596 C 207.542,453.016 229.256,461.46 256.044,461.46 C 282.832,461.46 304.547,453.016 304.547,442.596 L 304.547,414.97z"/>
      <path style="fill: none; stroke-opacity: 1; stroke-width: 0.8; stroke: #ffffff" d="M 304.547 414.97 C 304.547,425.386 282.832,433.831 256.044,433.831 C 229.256,433.831 207.542,425.386 207.542,414.97 L 207.542,442.596 C 207.542,453.016 229.256,461.46 256.044,461.46 C 282.832,461.46 304.547,453.016 304.547,442.596 L 304.547,414.97"/>
      <path style="fill: #00aed9; fill-opacity: 1; stroke: none" fill-rule="evenodd" d="M 256.044 433.831 C 282.832,433.831 304.547,425.386 304.547,414.97 C 304.547,404.55 282.832,396.106 256.044,396.106 C 229.256,396.106 207.542,404.55 207.542,414.97 C 207.542,425.386 229.256,433.831 256.044,433.831z"/>
      <path style="fill: none; stroke-opacity: 1; stroke-width: 0.8; stroke: #ffffff" d="M 256.044 433.831 C 282.832,433.831 304.547,425.386 304.547,414.97 C 304.547,404.55 282.832,396.106 256.044,396.106 C 229.256,396.106 207.542,404.55 207.542,414.97 C 207.542,425.386 229.256,433.831 256.044,433.831"/>
      <path style="fill: #ffffff; fill-opacity: 1; stroke: none" fill-rule="evenodd" d="M 244.968 407.594 L 248.974,413.601 L 233.832,417.1 L 237.139,414.347 L 213.734,410.347 L 219.607,405.945 L 242.189,409.769 L 244.968,407.594z"/>
      <path style="fill: #ffffff; fill-opacity: 1; stroke: none" fill-rule="evenodd" d="M 266.279 422.161 L 263.544,415.969 L 277.202,413.24 L 274.834,415.36 L 297.6,419.25 L 292.141,423.619 L 269.507,419.371 L 266.279,422.161z"/>
      <path style="fill: #ffffff; fill-opacity: 1; stroke: none" fill-rule="evenodd" d="M 258.808 404.313 L 274.109,400.125 L 274.288,406.684 L 270.467,405.953 L 262.996,412.145 L 255.873,411.106 L 263.579,405.049 L 258.808,404.313z"/>
      <path style="fill: #ffffff; fill-opacity: 1; stroke: none" fill-rule="evenodd" d="M 252.252 427.81 L 237.685,430.539 L 237.139,423.804 L 241.324,424.711 L 249.343,417.863 L 256.443,419.065 L 247.882,426.534 L 252.252,427.81z"/>
    </g>
    <g>
      <path style="fill: #b7b79d; fill-opacity: 1; stroke: none" fill-rule="evenodd" d="M 229.434 246.444 L 229.434,270.22 L 281.607,270.22 L 281.607,246.444 L 229.434,246.444z"/>
      <path style="fill: none; stroke-opacity: 1; stroke-width: 0.02; stroke: #494936" d="M 229.434 246.444 L 229.434,269.878 L 281.607,269.878 L 281.607,246.444 L 229.434,246.444"/>
      <path style="fill: #7a7a5a; fill-opacity: 1; stroke: none" fill-rule="evenodd" d="M 281.607 270.22 L 281.607,246.444 L 297.968,230.22 L 297.968,253.985 L 281.607,270.22z"/>
      <path style="fill: none; stroke-opacity: 1; stroke-width: 0.02; stroke: #494936" d="M 281.607 269.878 L 281.607,246.444 L 297.774,230.414 L 297.774,254.19 L 281.938,269.878 L 281.607,269.878"/>
      <path style="fill: #c9c9b6; fill-opacity: 1; stroke: none" fill-rule="evenodd" d="M 229.434 246.444 L 245.441,230.22 L 297.968,230.22 L 281.607,246.444 L 229.434,246.444z"/>
      <path style="fill: none; stroke-opacity: 1; stroke-width: 0.02; stroke: #494936" d="M 229.434 246.444 L 245.441,230.22 L 297.774,230.22 L 297.774,230.414 L 281.607,246.444 L 229.434,246.444"/>
      <path style="fill: #ff000c; fill-opacity: 1; stroke: none" fill-rule="evenodd" d="M 240.09 258.492 L 240.09,258.332 L 240.056,258.149 L 240.044,257.978 L 239.999,257.818 L 239.976,257.647 L 239.919,257.476 L 239.873,257.316 L 239.805,257.157 L 239.736,256.997 L 239.656,256.837 L 239.554,256.689 L 239.474,256.552 L 239.371,256.427 L 239.269,256.301 L 239.143,256.153 L 239.018,256.027 L 238.892,255.925 L 238.755,255.799 L 238.618,255.708 L 238.481,255.605 L 238.333,255.537 L 238.173,255.445 L 238.002,255.388 L 237.842,255.32 L 237.683,255.251 L 237.523,255.206 L 237.352,255.16 L 237.192,255.137 L 236.998,255.126 L 236.838,255.103 L 236.667,255.103 L 236.667,255.103 L 236.485,255.103 L 236.325,255.126 L 236.131,255.137 L 235.971,255.16 L 235.812,255.206 L 235.629,255.251 L 235.481,255.32 L 235.31,255.388 L 235.15,255.445 L 234.99,255.537 L 234.853,255.605 L 234.705,255.708 L 234.568,255.799 L 234.431,255.925 L 234.294,256.027 L 234.18,256.153 L 234.066,256.301 L 233.952,256.427 L 233.849,256.552 L 233.769,256.689 L 233.667,256.837 L 233.598,256.997 L 233.507,257.157 L 233.461,257.316 L 233.404,257.476 L 233.347,257.647 L 233.313,257.818 L 233.279,257.978 L 233.267,258.149 L 233.245,258.332 L 233.245,258.492 L 233.245,258.492 L 233.245,258.674 L 233.267,258.834 L 233.279,259.005 L 233.313,259.187 L 233.347,259.347 L 233.404,259.507 L 233.461,259.667 L 233.507,259.826 L 233.598,259.986 L 233.667,260.146 L 233.769,260.294 L 233.849,260.431 L 233.952,260.579 L 234.066,260.705 L 234.18,260.83 L 234.294,260.956 L 234.431,261.07 L 234.568,261.184 L 234.705,261.275 L 234.853,261.378 L 234.99,261.469 L 235.15,261.538 L 235.31,261.606 L 235.481,261.686 L 235.629,261.72 L 235.812,261.789 L 235.971,261.823 L 236.131,261.846 L 236.325,261.88 L 236.485,261.891 L 236.667,261.891 L 236.667,261.891 L 236.838,261.891 L 236.998,261.88 L 237.192,261.846 L 237.352,261.823 L 237.523,261.789 L 237.683,261.72 L 237.842,261.686 L 238.002,261.606 L 238.173,261.538 L 238.333,261.469 L 238.481,261.378 L 238.618,261.275 L 238.755,261.184 L 238.892,261.07 L 239.018,260.956 L 239.143,260.83 L 239.269,260.705 L 239.371,260.579 L 239.474,260.431 L 239.554,260.294 L 239.656,260.146 L 239.736,259.986 L 239.805,259.826 L 239.873,259.667 L 239.919,259.507 L 239.976,259.347 L 239.999,259.187 L 240.044,259.005 L 240.056,258.834 L 240.09,258.674 L 240.09,258.492z"/>
      <path style="fill: none; stroke-opacity: 1; stroke-width: 0.02; stroke: #550000" d="M 239.714 258.138 L 239.714,257.955 L 239.702,257.796 L 239.679,257.613 L 239.656,257.453 L 239.622,257.282 L 239.565,257.122 L 239.497,256.963 L 239.463,256.792 L 239.371,256.655 L 239.28,256.472 L 239.2,256.335 L 239.109,256.187 L 238.995,256.05 L 238.903,255.925 L 238.801,255.799 L 238.664,255.674 L 238.527,255.548 L 238.401,255.445 L 238.253,255.354 L 238.116,255.251 L 237.979,255.16 L 237.82,255.069 L 237.66,255.012 L 237.489,254.943 L 237.329,254.909 L 237.169,254.852 L 236.987,254.818 L 236.816,254.784 L 236.633,254.749 L 236.473,254.727 L 236.291,254.727 L 236.291,254.727 L 236.131,254.727 L 235.949,254.749 L 235.777,254.784 L 235.606,254.818 L 235.424,254.852 L 235.275,254.909 L 235.104,254.943 L 234.933,255.012 L 234.773,255.069 L 234.637,255.16 L 234.488,255.251 L 234.34,255.354 L 234.203,255.445 L 234.066,255.548 L 233.952,255.674 L 233.815,255.799 L 233.701,255.925 L 233.598,256.05 L 233.484,256.187 L 233.393,256.335 L 233.29,256.472 L 233.21,256.655 L 233.142,256.792 L 233.096,256.963 L 233.039,257.122 L 232.994,257.282 L 232.959,257.453 L 232.925,257.613 L 232.891,257.796 L 232.868,257.955 L 232.868,258.138 L 232.868,258.138 L 232.868,258.298 L 232.891,258.469 L 232.925,258.651 L 232.959,258.811 L 232.994,258.994 L 233.039,259.153 L 233.096,259.313 L 233.142,259.473 L 233.21,259.632 L 233.29,259.792 L 233.393,259.929 L 233.484,260.077 L 233.598,260.214 L 233.701,260.34 L 233.815,260.488 L 233.952,260.614 L 234.066,260.705 L 234.203,260.83 L 234.34,260.91 L 234.488,261.024 L 234.637,261.093 L 234.773,261.184 L 234.933,261.253 L 235.104,261.31 L 235.275,261.378 L 235.424,261.412 L 235.606,261.469 L 235.777,261.481 L 235.949,261.526 L 236.131,261.526 L 236.291,261.526 L 236.291,261.526 L 236.473,261.526 L 236.633,261.526 L 236.816,261.481 L 236.987,261.469 L 237.169,261.412 L 237.329,261.378 L 237.489,261.31 L 237.66,261.253 L 237.82,261.184 L 237.979,261.093 L 238.116,261.024 L 238.253,260.91 L 238.401,260.83 L 238.527,260.705 L 238.664,260.614 L 238.801,260.488 L 238.903,260.34 L 238.995,260.214 L 239.109,260.077 L 239.2,259.929 L 239.28,259.792 L 239.371,259.632 L 239.463,259.473 L 239.497,259.313 L 239.565,259.153 L 239.622,258.994 L 239.656,258.811 L 239.679,258.651 L 239.702,258.469 L 239.714,258.298 L 239.714,258.138"/>
      <path style="fill: #ff000c; fill-opacity: 1; stroke: none" fill-rule="evenodd" d="M 249.605 258.492 L 249.605,258.332 L 249.594,258.149 L 249.582,257.978 L 249.537,257.818 L 249.514,257.647 L 249.468,257.476 L 249.4,257.316 L 249.354,257.157 L 249.286,256.997 L 249.217,256.837 L 249.115,256.689 L 249.035,256.552 L 248.943,256.427 L 248.829,256.301 L 248.738,256.153 L 248.613,256.027 L 248.476,255.925 L 248.362,255.799 L 248.236,255.708 L 248.088,255.605 L 247.951,255.537 L 247.803,255.445 L 247.654,255.388 L 247.506,255.32 L 247.358,255.251 L 247.186,255.206 L 247.038,255.16 L 246.878,255.137 L 246.719,255.126 L 246.548,255.103 L 246.388,255.103 L 246.388,255.103 L 246.228,255.103 L 246.046,255.126 L 245.897,255.137 L 245.737,255.16 L 245.578,255.206 L 245.407,255.251 L 245.258,255.32 L 245.121,255.388 L 244.973,255.445 L 244.825,255.537 L 244.676,255.605 L 244.54,255.708 L 244.403,255.799 L 244.277,255.925 L 244.163,256.027 L 244.038,256.153 L 243.935,256.301 L 243.832,256.427 L 243.729,256.552 L 243.65,256.689 L 243.547,256.837 L 243.478,256.997 L 243.41,257.157 L 243.364,257.316 L 243.307,257.476 L 243.262,257.647 L 243.205,257.818 L 243.193,257.978 L 243.182,258.149 L 243.159,258.332 L 243.159,258.492 L 243.159,258.492 L 243.159,258.674 L 243.182,258.834 L 243.193,259.005 L 243.205,259.187 L 243.262,259.347 L 243.307,259.507 L 243.364,259.667 L 243.41,259.826 L 243.478,259.986 L 243.547,260.146 L 243.65,260.294 L 243.729,260.431 L 243.832,260.579 L 243.935,260.705 L 244.038,260.83 L 244.163,260.956 L 244.277,261.07 L 244.403,261.184 L 244.54,261.275 L 244.676,261.378 L 244.825,261.469 L 244.973,261.538 L 245.121,261.606 L 245.258,261.686 L 245.407,261.72 L 245.578,261.789 L 245.737,261.823 L 245.897,261.846 L 246.046,261.88 L 246.228,261.891 L 246.388,261.891 L 246.388,261.891 L 246.548,261.891 L 246.719,261.88 L 246.878,261.846 L 247.038,261.823 L 247.186,261.789 L 247.358,261.72 L 247.506,261.686 L 247.654,261.606 L 247.803,261.538 L 247.951,261.469 L 248.088,261.378 L 248.236,261.275 L 248.362,261.184 L 248.476,261.07 L 248.613,260.956 L 248.738,260.83 L 248.829,260.705 L 248.943,260.579 L 249.035,260.431 L 249.115,260.294 L 249.217,260.146 L 249.286,259.986 L 249.354,259.826 L 249.4,259.667 L 249.468,259.507 L 249.514,259.347 L 249.537,259.187 L 249.582,259.005 L 249.594,258.834 L 249.605,258.674 L 249.605,258.492z"/>
      <path style="fill: none; stroke-opacity: 1; stroke-width: 0.02; stroke: #550000" d="M 249.251 258.138 L 249.251,257.955 L 249.229,257.796 L 249.229,257.613 L 249.183,257.453 L 249.149,257.282 L 249.103,257.122 L 249.046,256.963 L 249.012,256.792 L 248.932,256.655 L 248.875,256.472 L 248.795,256.335 L 248.715,256.187 L 248.613,256.05 L 248.533,255.925 L 248.407,255.799 L 248.305,255.674 L 248.179,255.548 L 248.076,255.445 L 247.939,255.354 L 247.814,255.251 L 247.688,255.16 L 247.54,255.069 L 247.403,255.012 L 247.266,254.943 L 247.118,254.909 L 246.97,254.852 L 246.81,254.818 L 246.662,254.784 L 246.502,254.749 L 246.365,254.727 L 246.194,254.727 L 246.194,254.727 L 246.046,254.727 L 245.897,254.749 L 245.737,254.784 L 245.589,254.818 L 245.441,254.852 L 245.304,254.909 L 245.121,254.943 L 244.984,255.012 L 244.848,255.069 L 244.722,255.16 L 244.597,255.251 L 244.471,255.354 L 244.334,255.445 L 244.197,255.548 L 244.095,255.674 L 243.98,255.799 L 243.878,255.925 L 243.775,256.05 L 243.695,256.187 L 243.615,256.335 L 243.536,256.472 L 243.467,256.655 L 243.387,256.792 L 243.33,256.963 L 243.296,257.122 L 243.25,257.282 L 243.205,257.453 L 243.182,257.613 L 243.17,257.796 L 243.159,257.955 L 243.159,258.138 L 243.159,258.138 L 243.159,258.298 L 243.17,258.469 L 243.182,258.651 L 243.205,258.811 L 243.25,258.994 L 243.296,259.153 L 243.33,259.313 L 243.387,259.473 L 243.467,259.632 L 243.536,259.792 L 243.615,259.929 L 243.695,260.077 L 243.775,260.214 L 243.878,260.34 L 243.98,260.488 L 244.095,260.614 L 244.197,260.705 L 244.334,260.83 L 244.471,260.91 L 244.597,261.024 L 244.722,261.093 L 244.848,261.184 L 244.984,261.253 L 245.121,261.31 L 245.304,261.378 L 245.441,261.412 L 245.589,261.469 L 245.737,261.481 L 245.897,261.526 L 246.046,261.526 L 246.194,261.526 L 246.194,261.526 L 246.365,261.526 L 246.502,261.526 L 246.662,261.481 L 246.81,261.469 L 246.97,261.412 L 247.118,261.378 L 247.266,261.31 L 247.403,261.253 L 247.54,261.184 L 247.688,261.093 L 247.814,261.024 L 247.939,260.91 L 248.076,260.83 L 248.179,260.705 L 248.305,260.614 L 248.407,260.488 L 248.533,260.34 L 248.613,260.214 L 248.715,260.077 L 248.795,259.929 L 248.875,259.792 L 248.932,259.632 L 249.012,259.473 L 249.046,259.313 L 249.103,259.153 L 249.149,258.994 L 249.183,258.811 L 249.229,258.651 L 249.229,258.469 L 249.251,258.298 L 249.251,258.138"/>
      <path style="fill: #ff000c; fill-opacity: 1; stroke: none" fill-rule="evenodd" d="M 259.497 258.492 L 259.497,258.332 L 259.463,258.149 L 259.451,257.978 L 259.428,257.818 L 259.383,257.647 L 259.337,257.476 L 259.291,257.316 L 259.223,257.157 L 259.143,256.997 L 259.075,256.837 L 258.961,256.689 L 258.881,256.552 L 258.789,256.427 L 258.664,256.301 L 258.561,256.153 L 258.436,256.027 L 258.31,255.925 L 258.162,255.799 L 258.025,255.708 L 257.888,255.605 L 257.74,255.537 L 257.58,255.445 L 257.432,255.388 L 257.249,255.32 L 257.101,255.251 L 256.93,255.206 L 256.77,255.16 L 256.599,255.137 L 256.416,255.126 L 256.245,255.103 L 256.074,255.103 L 256.074,255.103 L 255.892,255.103 L 255.732,255.126 L 255.561,255.137 L 255.39,255.16 L 255.23,255.206 L 255.059,255.251 L 254.888,255.32 L 254.728,255.388 L 254.579,255.445 L 254.42,255.537 L 254.249,255.605 L 254.112,255.708 L 253.975,255.799 L 253.849,255.925 L 253.724,256.027 L 253.598,256.153 L 253.461,256.301 L 253.37,256.427 L 253.279,256.552 L 253.176,256.689 L 253.085,256.837 L 253.005,256.997 L 252.937,257.157 L 252.868,257.316 L 252.811,257.476 L 252.754,257.647 L 252.731,257.818 L 252.686,257.978 L 252.674,258.149 L 252.651,258.332 L 252.651,258.492 L 252.651,258.492 L 252.651,258.674 L 252.674,258.834 L 252.686,259.005 L 252.731,259.187 L 252.754,259.347 L 252.811,259.507 L 252.868,259.667 L 252.937,259.826 L 253.005,259.986 L 253.085,260.146 L 253.176,260.294 L 253.279,260.431 L 253.37,260.579 L 253.461,260.705 L 253.598,260.83 L 253.724,260.956 L 253.849,261.07 L 253.975,261.184 L 254.112,261.275 L 254.249,261.378 L 254.42,261.469 L 254.579,261.538 L 254.728,261.606 L 254.888,261.686 L 255.059,261.72 L 255.23,261.789 L 255.39,261.823 L 255.561,261.846 L 255.732,261.88 L 255.892,261.891 L 256.074,261.891 L 256.074,261.891 L 256.245,261.891 L 256.416,261.88 L 256.599,261.846 L 256.77,261.823 L 256.93,261.789 L 257.101,261.72 L 257.249,261.686 L 257.432,261.606 L 257.58,261.538 L 257.74,261.469 L 257.888,261.378 L 258.025,261.275 L 258.162,261.184 L 258.31,261.07 L 258.436,260.956 L 258.561,260.83 L 258.664,260.705 L 258.789,260.579 L 258.881,260.431 L 258.961,260.294 L 259.075,260.146 L 259.143,259.986 L 259.223,259.826 L 259.291,259.667 L 259.337,259.507 L 259.383,259.347 L 259.428,259.187 L 259.451,259.005 L 259.463,258.834 L 259.497,258.674 L 259.497,258.492z"/>
      <path style="fill: none; stroke-opacity: 1; stroke-width: 0.02; stroke: #550000" d="M 259.143 258.138 L 259.143,257.955 L 259.132,257.796 L 259.097,257.613 L 259.063,257.453 L 259.018,257.282 L 258.961,257.122 L 258.926,256.963 L 258.869,256.792 L 258.801,256.655 L 258.71,256.472 L 258.63,256.335 L 258.527,256.187 L 258.424,256.05 L 258.31,255.925 L 258.196,255.799 L 258.071,255.674 L 257.945,255.548 L 257.808,255.445 L 257.671,255.354 L 257.523,255.251 L 257.375,255.16 L 257.226,255.069 L 257.067,255.012 L 256.895,254.943 L 256.736,254.909 L 256.576,254.852 L 256.393,254.818 L 256.234,254.784 L 256.063,254.749 L 255.892,254.727 L 255.72,254.727 L 255.72,254.727 L 255.538,254.727 L 255.378,254.749 L 255.207,254.784 L 255.024,254.818 L 254.853,254.852 L 254.682,254.909 L 254.522,254.943 L 254.374,255.012 L 254.203,255.069 L 254.032,255.16 L 253.895,255.251 L 253.758,255.354 L 253.61,255.445 L 253.473,255.548 L 253.347,255.674 L 253.222,255.799 L 253.108,255.925 L 253.005,256.05 L 252.902,256.187 L 252.811,256.335 L 252.731,256.472 L 252.64,256.655 L 252.549,256.792 L 252.503,256.963 L 252.446,257.122 L 252.389,257.282 L 252.355,257.453 L 252.32,257.613 L 252.309,257.796 L 252.298,257.955 L 252.298,258.138 L 252.298,258.138 L 252.298,258.298 L 252.309,258.469 L 252.32,258.651 L 252.355,258.811 L 252.389,258.994 L 252.446,259.153 L 252.503,259.313 L 252.549,259.473 L 252.64,259.632 L 252.731,259.792 L 252.811,259.929 L 252.902,260.077 L 253.005,260.214 L 253.108,260.34 L 253.222,260.488 L 253.347,260.614 L 253.473,260.705 L 253.61,260.83 L 253.758,260.91 L 253.895,261.024 L 254.032,261.093 L 254.203,261.184 L 254.374,261.253 L 254.522,261.31 L 254.682,261.378 L 254.853,261.412 L 255.024,261.469 L 255.207,261.481 L 255.378,261.526 L 255.538,261.526 L 255.72,261.526 L 255.72,261.526 L 255.892,261.526 L 256.063,261.526 L 256.234,261.481 L 256.393,261.469 L 256.576,261.412 L 256.736,261.378 L 256.895,261.31 L 257.067,261.253 L 257.226,261.184 L 257.375,261.093 L 257.523,261.024 L 257.671,260.91 L 257.808,260.83 L 257.945,260.705 L 258.071,260.614 L 258.196,260.488 L 258.31,260.34 L 258.424,260.214 L 258.527,260.077 L 258.63,259.929 L 258.71,259.792 L 258.801,259.632 L 258.869,259.473 L 258.926,259.313 L 258.961,259.153 L 259.018,258.994 L 259.063,258.811 L 259.097,258.651 L 259.132,258.469 L 259.143,258.298 L 259.143,258.138"/>
      <path style="fill: #ff000c; fill-opacity: 1; stroke: none" fill-rule="evenodd" d="M 269.012 258.492 L 269.012,258.332 L 269,258.149 L 268.989,257.978 L 268.943,257.818 L 268.909,257.647 L 268.864,257.476 L 268.807,257.316 L 268.749,257.157 L 268.692,256.997 L 268.613,256.837 L 268.521,256.689 L 268.441,256.552 L 268.35,256.427 L 268.225,256.301 L 268.133,256.153 L 268.008,256.027 L 267.894,255.925 L 267.757,255.799 L 267.631,255.708 L 267.494,255.605 L 267.358,255.537 L 267.209,255.445 L 267.061,255.388 L 266.913,255.32 L 266.764,255.251 L 266.593,255.206 L 266.445,255.16 L 266.285,255.137 L 266.125,255.126 L 265.943,255.103 L 265.795,255.103 L 265.795,255.103 L 265.635,255.103 L 265.452,255.126 L 265.304,255.137 L 265.144,255.16 L 264.984,255.206 L 264.813,255.251 L 264.654,255.32 L 264.517,255.388 L 264.368,255.445 L 264.22,255.537 L 264.083,255.605 L 263.946,255.708 L 263.809,255.799 L 263.672,255.925 L 263.558,256.027 L 263.444,256.153 L 263.342,256.301 L 263.227,256.427 L 263.136,256.552 L 263.045,256.689 L 262.954,256.837 L 262.874,256.997 L 262.817,257.157 L 262.76,257.316 L 262.714,257.476 L 262.657,257.647 L 262.623,257.818 L 262.589,257.978 L 262.577,258.149 L 262.554,258.332 L 262.554,258.492 L 262.554,258.492 L 262.554,258.674 L 262.577,258.834 L 262.589,259.005 L 262.623,259.187 L 262.657,259.347 L 262.714,259.507 L 262.76,259.667 L 262.817,259.826 L 262.874,259.986 L 262.954,260.146 L 263.045,260.294 L 263.136,260.431 L 263.227,260.579 L 263.342,260.705 L 263.444,260.83 L 263.558,260.956 L 263.672,261.07 L 263.809,261.184 L 263.946,261.275 L 264.083,261.378 L 264.22,261.469 L 264.368,261.538 L 264.517,261.606 L 264.654,261.686 L 264.813,261.72 L 264.984,261.789 L 265.144,261.823 L 265.304,261.846 L 265.452,261.88 L 265.635,261.891 L 265.795,261.891 L 265.795,261.891 L 265.943,261.891 L 266.125,261.88 L 266.285,261.846 L 266.445,261.823 L 266.593,261.789 L 266.764,261.72 L 266.913,261.686 L 267.061,261.606 L 267.209,261.538 L 267.358,261.469 L 267.494,261.378 L 267.631,261.275 L 267.757,261.184 L 267.894,261.07 L 268.008,260.956 L 268.133,260.83 L 268.225,260.705 L 268.35,260.579 L 268.441,260.431 L 268.521,260.294 L 268.613,260.146 L 268.692,259.986 L 268.749,259.826 L 268.807,259.667 L 268.864,259.507 L 268.909,259.347 L 268.943,259.187 L 268.989,259.005 L 269,258.834 L 269.012,258.674 L 269.012,258.492z"/>
      <path style="fill: none; stroke-opacity: 1; stroke-width: 0.02; stroke: #550000" d="M 268.658 258.138 L 268.658,257.955 L 268.647,257.796 L 268.635,257.613 L 268.613,257.453 L 268.567,257.282 L 268.521,257.122 L 268.487,256.963 L 268.419,256.792 L 268.362,256.655 L 268.27,256.472 L 268.202,256.335 L 268.111,256.187 L 268.019,256.05 L 267.928,255.925 L 267.837,255.799 L 267.723,255.674 L 267.586,255.548 L 267.494,255.445 L 267.358,255.354 L 267.221,255.251 L 267.095,255.16 L 266.935,255.069 L 266.81,255.012 L 266.684,254.943 L 266.513,254.909 L 266.365,254.852 L 266.228,254.818 L 266.08,254.784 L 265.931,254.749 L 265.772,254.727 L 265.623,254.727 L 265.623,254.727 L 265.452,254.727 L 265.304,254.749 L 265.156,254.784 L 264.996,254.818 L 264.848,254.852 L 264.711,254.909 L 264.551,254.943 L 264.414,255.012 L 264.289,255.069 L 264.129,255.16 L 264.003,255.251 L 263.866,255.354 L 263.729,255.445 L 263.638,255.548 L 263.513,255.674 L 263.387,255.799 L 263.296,255.925 L 263.205,256.05 L 263.102,256.187 L 263.022,256.335 L 262.942,256.472 L 262.874,256.655 L 262.805,256.792 L 262.737,256.963 L 262.714,257.122 L 262.657,257.282 L 262.623,257.453 L 262.589,257.613 L 262.577,257.796 L 262.566,257.955 L 262.566,258.138 L 262.566,258.138 L 262.566,258.298 L 262.577,258.469 L 262.589,258.651 L 262.623,258.811 L 262.657,258.994 L 262.714,259.153 L 262.737,259.313 L 262.805,259.473 L 262.874,259.632 L 262.942,259.792 L 263.022,259.929 L 263.102,260.077 L 263.205,260.214 L 263.296,260.34 L 263.387,260.488 L 263.513,260.614 L 263.638,260.705 L 263.729,260.83 L 263.866,260.91 L 264.003,261.024 L 264.129,261.093 L 264.289,261.184 L 264.414,261.253 L 264.551,261.31 L 264.711,261.378 L 264.848,261.412 L 264.996,261.469 L 265.156,261.481 L 265.304,261.526 L 265.452,261.526 L 265.623,261.526 L 265.623,261.526 L 265.772,261.526 L 265.931,261.526 L 266.08,261.481 L 266.228,261.469 L 266.365,261.412 L 266.513,261.378 L 266.684,261.31 L 266.81,261.253 L 266.935,261.184 L 267.095,261.093 L 267.221,261.024 L 267.358,260.91 L 267.494,260.83 L 267.586,260.705 L 267.723,260.614 L 267.837,260.488 L 267.928,260.34 L 268.019,260.214 L 268.111,260.077 L 268.202,259.929 L 268.27,259.792 L 268.362,259.632 L 268.419,259.473 L 268.487,259.313 L 268.521,259.153 L 268.567,258.994 L 268.613,258.811 L 268.635,258.651 L 268.647,258.469 L 268.658,258.298 L 268.658,258.138"/>
      <path style="fill: #ff000c; fill-opacity: 1; stroke: none" fill-rule="evenodd" d="M 278.926 258.492 L 278.926,258.332 L 278.903,258.149 L 278.881,257.978 L 278.846,257.818 L 278.812,257.647 L 278.767,257.476 L 278.71,257.316 L 278.641,257.157 L 278.561,256.997 L 278.493,256.837 L 278.401,256.689 L 278.31,256.552 L 278.208,256.427 L 278.105,256.301 L 277.991,256.153 L 277.854,256.027 L 277.717,255.925 L 277.591,255.799 L 277.455,255.708 L 277.318,255.605 L 277.169,255.537 L 276.998,255.445 L 276.85,255.388 L 276.69,255.32 L 276.53,255.251 L 276.359,255.206 L 276.2,255.16 L 276.028,255.137 L 275.846,255.126 L 275.675,255.103 L 275.492,255.103 L 275.492,255.103 L 275.332,255.103 L 275.15,255.126 L 274.979,255.137 L 274.796,255.16 L 274.637,255.206 L 274.477,255.251 L 274.317,255.32 L 274.146,255.388 L 273.998,255.445 L 273.838,255.537 L 273.69,255.605 L 273.553,255.708 L 273.416,255.799 L 273.279,255.925 L 273.142,256.027 L 273.005,256.153 L 272.902,256.301 L 272.788,256.427 L 272.697,256.552 L 272.606,256.689 L 272.503,256.837 L 272.435,256.997 L 272.355,257.157 L 272.286,257.316 L 272.229,257.476 L 272.184,257.647 L 272.149,257.818 L 272.127,257.978 L 272.104,258.149 L 272.069,258.332 L 272.069,258.492 L 272.069,258.492 L 272.069,258.674 L 272.104,258.834 L 272.127,259.005 L 272.149,259.187 L 272.184,259.347 L 272.229,259.507 L 272.286,259.667 L 272.355,259.826 L 272.435,259.986 L 272.503,260.146 L 272.606,260.294 L 272.697,260.431 L 272.788,260.579 L 272.902,260.705 L 273.005,260.83 L 273.142,260.956 L 273.279,261.07 L 273.416,261.184 L 273.553,261.275 L 273.69,261.378 L 273.838,261.469 L 273.998,261.538 L 274.146,261.606 L 274.317,261.686 L 274.477,261.72 L 274.637,261.789 L 274.796,261.823 L 274.979,261.846 L 275.15,261.88 L 275.332,261.891 L 275.492,261.891 L 275.492,261.891 L 275.675,261.891 L 275.846,261.88 L 276.028,261.846 L 276.2,261.823 L 276.359,261.789 L 276.53,261.72 L 276.69,261.686 L 276.85,261.606 L 276.998,261.538 L 277.169,261.469 L 277.318,261.378 L 277.455,261.275 L 277.591,261.184 L 277.717,261.07 L 277.854,260.956 L 277.991,260.83 L 278.105,260.705 L 278.208,260.579 L 278.31,260.431 L 278.401,260.294 L 278.493,260.146 L 278.561,259.986 L 278.641,259.826 L 278.71,259.667 L 278.767,259.507 L 278.812,259.347 L 278.846,259.187 L 278.881,259.005 L 278.903,258.834 L 278.926,258.674 L 278.926,258.492z"/>
      <path style="fill: none; stroke-opacity: 1; stroke-width: 0.02; stroke: #550000" d="M 278.55 258.138 L 278.55,257.955 L 278.538,257.796 L 278.493,257.613 L 278.481,257.453 L 278.447,257.282 L 278.401,257.122 L 278.333,256.963 L 278.276,256.792 L 278.196,256.655 L 278.128,256.472 L 278.036,256.335 L 277.922,256.187 L 277.831,256.05 L 277.74,255.925 L 277.626,255.799 L 277.5,255.674 L 277.352,255.548 L 277.215,255.445 L 277.078,255.354 L 276.93,255.251 L 276.793,255.16 L 276.644,255.069 L 276.485,255.012 L 276.325,254.943 L 276.142,254.909 L 275.994,254.852 L 275.823,254.818 L 275.641,254.784 L 275.469,254.749 L 275.287,254.727 L 275.127,254.727 L 275.127,254.727 L 274.956,254.727 L 274.773,254.749 L 274.602,254.784 L 274.431,254.818 L 274.26,254.852 L 274.112,254.909 L 273.929,254.943 L 273.769,255.012 L 273.61,255.069 L 273.461,255.16 L 273.313,255.251 L 273.153,255.354 L 273.028,255.445 L 272.902,255.548 L 272.777,255.674 L 272.64,255.799 L 272.514,255.925 L 272.423,256.05 L 272.32,256.187 L 272.218,256.335 L 272.138,256.472 L 272.047,256.655 L 271.978,256.792 L 271.921,256.963 L 271.864,257.122 L 271.818,257.282 L 271.784,257.453 L 271.75,257.613 L 271.716,257.796 L 271.704,257.955 L 271.704,258.138 L 271.704,258.138 L 271.704,258.298 L 271.716,258.469 L 271.75,258.651 L 271.784,258.811 L 271.818,258.994 L 271.864,259.153 L 271.921,259.313 L 271.978,259.473 L 272.047,259.632 L 272.138,259.792 L 272.218,259.929 L 272.32,260.077 L 272.423,260.214 L 272.514,260.34 L 272.64,260.488 L 272.777,260.614 L 272.902,260.705 L 273.028,260.83 L 273.153,260.91 L 273.313,261.024 L 273.461,261.093 L 273.61,261.184 L 273.769,261.253 L 273.929,261.31 L 274.112,261.378 L 274.26,261.412 L 274.431,261.469 L 274.602,261.481 L 274.773,261.526 L 274.956,261.526 L 275.127,261.526 L 275.127,261.526 L 275.287,261.526 L 275.469,261.526 L 275.641,261.481 L 275.823,261.469 L 275.994,261.412 L 276.142,261.378 L 276.325,261.31 L 276.485,261.253 L 276.644,261.184 L 276.793,261.093 L 276.93,261.024 L 277.078,260.91 L 277.215,260.83 L 277.352,260.705 L 277.5,260.614 L 277.626,260.488 L 277.74,260.34 L 277.831,260.214 L 277.922,260.077 L 278.036,259.929 L 278.128,259.792 L 278.196,259.632 L 278.276,259.473 L 278.333,259.313 L 278.401,259.153 L 278.447,258.994 L 278.481,258.811 L 278.493,258.651 L 278.538,258.469 L 278.55,258.298 L 278.55,258.138"/>
    </g>
    <g>
      <polyline style="fill: none; stroke-opacity: 1; stroke-width: 2; stroke: #000000" points="256.044,461.46 256.044,471.97 182.7,471.97 182.7,611.234 "/>
      <polygon style="fill: #000000; fill-opacity: 1; stroke-opacity: 1; stroke-width: 2; stroke: #000000" fill-rule="evenodd" points="182.7,618.734 177.7,608.734 182.7,611.234 187.7,608.734 "/>
    </g>
    <polyline style="fill: none; stroke-opacity: 1; stroke-width: 2; stroke: #000000" points="255.686,270.22 255.686,332.965 255.727,332.965 255.727,395.711 "/>
    <g>
      <polyline style="fill: none; stroke-opacity: 1; stroke-width: 2; stroke: #000000" points="256.044,461.46 256.044,471.97 96.7,471.97 96.7,603.484 "/>
      <polygon style="fill: #000000; fill-opacity: 1; stroke-opacity: 1; stroke-width: 2; stroke: #000000" fill-rule="evenodd" points="96.7,610.984 91.7,600.984 96.7,603.484 101.7,600.984 "/>
    </g>
    <polyline style="fill: none; stroke-opacity: 1; stroke-width: 2; stroke: #000000" points="271.876,121.22 271.876,176.22 271.704,176.22 271.704,230.22 "/>
    <g>
      <path style="fill: #788e96; fill-opacity: 1; stroke: none" fill-rule="evenodd" d="M 307.542 44.9145 L 307.505,43.9046 L 307.421,42.8946 L 307.263,41.902 L 307.045,40.9269 L 306.766,39.9517 L 306.427,38.994 L 306.027,38.0537 L 305.579,37.1308 L 305.057,36.2253 L 304.476,35.3372 L 303.858,34.4839 L 303.179,33.6481 L 302.452,32.8471 L 301.664,32.0635 L 300.84,31.3321 L 299.98,30.6181 L 299.059,29.9564 L 298.101,29.347 L 297.108,28.7201 L 296.066,28.1803 L 294.999,27.6753 L 293.921,27.2051 L 292.806,26.7872 L 291.654,26.4215 L 290.491,26.1081 L 289.303,25.8295 L 288.104,25.6031 L 286.892,25.429 L 285.668,25.2897 L 284.432,25.22 L 283.183,25.22 L 283.183,25.22 L 281.972,25.22 L 280.735,25.2897 L 279.512,25.429 L 278.3,25.6031 L 277.1,25.8295 L 275.912,26.1081 L 274.749,26.4215 L 273.598,26.7872 L 272.483,27.2051 L 271.368,27.6753 L 270.314,28.1803 L 269.296,28.7201 L 268.302,29.347 L 267.344,29.9564 L 266.423,30.6181 L 265.563,31.3321 L 264.727,32.0635 L 263.951,32.8471 L 263.224,33.6481 L 262.533,34.4839 L 261.903,35.3372 L 261.346,36.2253 L 260.825,37.1308 L 260.364,38.0537 L 259.976,38.994 L 259.637,39.9517 L 259.358,40.9269 L 259.14,41.902 L 258.983,42.8946 L 258.886,43.9046 L 258.849,44.9145 L 258.849,44.9145 L 258.886,45.8897 L 258.983,46.8997 L 259.14,47.8748 L 259.358,48.85 L 259.637,49.8251 L 259.976,50.7829 L 260.364,51.7232 L 260.825,52.6635 L 261.346,53.569 L 261.903,54.4571 L 262.533,55.3103 L 263.224,56.1462 L 263.951,56.9472 L 264.727,57.7134 L 265.563,58.4622 L 266.423,59.1761 L 267.344,59.8378 L 268.302,60.4821 L 269.296,61.0567 L 270.314,61.614 L 271.368,62.119 L 272.483,62.5891 L 273.598,62.9896 L 274.749,63.3727 L 275.912,63.6862 L 277.1,63.9648 L 278.3,64.1912 L 279.512,64.3653 L 280.735,64.5046 L 281.972,64.5743 L 283.183,64.6091 L 283.183,64.6091 L 284.432,64.5743 L 285.668,64.5046 L 286.892,64.3653 L 288.104,64.1912 L 289.303,63.9648 L 290.491,63.6862 L 291.654,63.3727 L 292.806,62.9896 L 293.921,62.5891 L 294.999,62.119 L 296.066,61.614 L 297.108,61.0567 L 298.101,60.4821 L 299.059,59.8378 L 299.98,59.1761 L 300.84,58.4622 L 301.664,57.7134 L 302.452,56.9472 L 303.179,56.1462 L 303.858,55.3103 L 304.476,54.4571 L 305.057,53.569 L 305.579,52.6635 L 306.027,51.7232 L 306.427,50.7829 L 306.766,49.8251 L 307.045,48.85 L 307.263,47.8748 L 307.421,46.8997 L 307.505,45.8897 L 307.542,44.9145z"/>
      <path style="fill: #788e96; fill-opacity: 1; stroke: none" fill-rule="evenodd" d="M 269.38 55.2233 L 269.356,54.2133 L 269.283,53.2207 L 269.174,52.2282 L 269.005,51.253 L 268.787,50.2779 L 268.532,49.3201 L 268.217,48.3972 L 267.866,47.4395 L 267.478,46.5514 L 267.041,45.6459 L 266.557,44.8101 L 266.036,43.9568 L 265.466,43.1732 L 264.884,42.407 L 264.254,41.6582 L 263.563,40.9443 L 262.885,40.2652 L 262.133,39.6383 L 261.382,39.0462 L 260.594,38.5064 L 259.77,38.0014 L 258.934,37.5313 L 258.074,37.1133 L 257.201,36.7477 L 256.304,36.4168 L 255.396,36.1556 L 254.487,35.9292 L 253.541,35.7725 L 252.608,35.6158 L 251.663,35.5461 L 250.718,35.5113 L 250.718,35.5113 L 249.785,35.5461 L 248.839,35.6158 L 247.906,35.7725 L 246.961,35.9292 L 246.04,36.1556 L 245.143,36.4168 L 244.246,36.7477 L 243.362,37.1133 L 242.501,37.5313 L 241.665,38.0014 L 240.853,38.5064 L 240.066,39.0462 L 239.302,39.6383 L 238.563,40.2652 L 237.872,40.9443 L 237.193,41.6582 L 236.563,42.407 L 235.969,43.1732 L 235.412,43.9568 L 234.879,44.8101 L 234.406,45.6459 L 233.97,46.5514 L 233.57,47.4395 L 233.231,48.3972 L 232.916,49.3201 L 232.649,50.2779 L 232.443,51.253 L 232.273,52.2282 L 232.164,53.2207 L 232.079,54.2133 L 232.067,55.2233 L 232.067,55.2233 L 232.079,56.2332 L 232.164,57.2084 L 232.273,58.201 L 232.443,59.1761 L 232.649,60.1513 L 232.916,61.1264 L 233.231,62.0493 L 233.57,62.9896 L 233.97,63.8777 L 234.406,64.7832 L 234.879,65.6365 L 235.412,66.4723 L 235.969,67.2733 L 236.563,68.0395 L 237.193,68.7709 L 237.872,69.5022 L 238.563,70.164 L 239.302,70.8082 L 240.066,71.3829 L 240.853,71.9227 L 241.665,72.4451 L 242.501,72.8979 L 243.362,73.3158 L 244.246,73.6815 L 245.143,74.0123 L 246.04,74.2909 L 246.961,74.5173 L 247.906,74.674 L 248.839,74.8133 L 249.785,74.883 L 250.718,74.9178 L 250.718,74.9178 L 251.663,74.883 L 252.608,74.8133 L 253.541,74.674 L 254.487,74.5173 L 255.396,74.2909 L 256.304,74.0123 L 257.201,73.6815 L 258.074,73.3158 L 258.934,72.8979 L 259.77,72.4451 L 260.594,71.9227 L 261.382,71.3829 L 262.133,70.8082 L 262.885,70.164 L 263.563,69.5022 L 264.254,68.7709 L 264.884,68.0395 L 265.466,67.2733 L 266.036,66.4723 L 266.557,65.6365 L 267.041,64.7832 L 267.478,63.8777 L 267.866,62.9896 L 268.217,62.0493 L 268.532,61.1264 L 268.787,60.1513 L 269.005,59.1761 L 269.174,58.201 L 269.283,57.2084 L 269.356,56.2332 L 269.38,55.2233z"/>
      <path style="fill: #788e96; fill-opacity: 1; stroke: none" fill-rule="evenodd" d="M 245.858 75.3183 L 245.834,74.5173 L 245.798,73.6815 L 245.713,72.8804 L 245.592,72.0794 L 245.446,71.2784 L 245.276,70.5122 L 245.07,69.7286 L 244.84,68.9798 L 244.574,68.2311 L 244.271,67.5171 L 243.956,66.8206 L 243.604,66.1415 L 243.216,65.4797 L 242.816,64.8355 L 242.392,64.2434 L 241.944,63.6688 L 241.471,63.1115 L 240.974,62.6065 L 240.465,62.119 L 239.932,61.6836 L 239.375,61.2657 L 238.817,60.8826 L 238.236,60.5343 L 237.642,60.2557 L 237.048,59.9771 L 236.43,59.7507 L 235.812,59.5592 L 235.182,59.4199 L 234.552,59.3328 L 233.921,59.2806 L 233.279,59.2458 L 233.279,59.2458 L 232.637,59.2806 L 232.007,59.3328 L 231.376,59.4199 L 230.746,59.5592 L 230.128,59.7507 L 229.51,59.9771 L 228.916,60.2557 L 228.323,60.5343 L 227.741,60.8826 L 227.171,61.2657 L 226.626,61.6836 L 226.093,62.119 L 225.584,62.6065 L 225.087,63.1115 L 224.614,63.6688 L 224.166,64.2434 L 223.742,64.8355 L 223.33,65.4797 L 222.954,66.1415 L 222.603,66.8206 L 222.288,67.5171 L 221.985,68.2311 L 221.718,68.9798 L 221.488,69.7286 L 221.282,70.5122 L 221.112,71.2784 L 220.967,72.0794 L 220.845,72.8804 L 220.761,73.6815 L 220.724,74.5173 L 220.7,75.3183 L 220.7,75.3183 L 220.724,76.1193 L 220.761,76.9378 L 220.845,77.7388 L 220.967,78.5398 L 221.112,79.3408 L 221.282,80.1244 L 221.488,80.8906 L 221.718,81.6568 L 221.985,82.3881 L 222.288,83.1195 L 222.603,83.816 L 222.954,84.4952 L 223.33,85.1743 L 223.742,85.7838 L 224.166,86.3758 L 224.614,86.9505 L 225.087,87.5077 L 225.584,88.0127 L 226.093,88.5002 L 226.626,88.953 L 227.171,89.3709 L 227.741,89.754 L 228.323,90.0849 L 228.916,90.3983 L 229.51,90.6421 L 230.128,90.8685 L 230.746,91.06 L 231.376,91.1993 L 232.007,91.3038 L 232.637,91.356 L 233.279,91.3909 L 233.279,91.3909 L 233.921,91.356 L 234.552,91.3038 L 235.182,91.1993 L 235.812,91.06 L 236.43,90.8685 L 237.048,90.6421 L 237.642,90.3983 L 238.236,90.0849 L 238.817,89.754 L 239.375,89.3709 L 239.932,88.953 L 240.465,88.5002 L 240.974,88.0127 L 241.471,87.5077 L 241.944,86.9505 L 242.392,86.3758 L 242.816,85.7838 L 243.216,85.1743 L 243.604,84.4952 L 243.956,83.816 L 244.271,83.1195 L 244.574,82.3881 L 244.84,81.6568 L 245.07,80.8906 L 245.276,80.1244 L 245.446,79.3408 L 245.592,78.5398 L 245.713,77.7388 L 245.798,76.9378 L 245.834,76.1193 L 245.858,75.3183z"/>
      <path style="fill: #788e96; fill-opacity: 1; stroke: none" fill-rule="evenodd" d="M 266.145 90.7988 L 266.133,89.9281 L 266.048,89.0575 L 265.914,88.1694 L 265.757,87.2987 L 265.539,86.4455 L 265.284,85.6096 L 264.969,84.7564 L 264.618,83.9379 L 264.218,83.1543 L 263.769,82.3707 L 263.273,81.6045 L 262.764,80.8732 L 262.182,80.1766 L 261.588,79.4627 L 260.934,78.8184 L 260.267,78.2089 L 259.552,77.5995 L 258.813,77.0422 L 258.037,76.5198 L 257.238,76.0497 L 256.401,75.6143 L 255.553,75.179 L 254.681,74.8133 L 253.784,74.4825 L 252.887,74.2039 L 251.966,73.9775 L 251.033,73.7511 L 250.088,73.5944 L 249.13,73.4899 L 248.173,73.4377 L 247.215,73.4203 L 247.215,73.4203 L 246.258,73.4377 L 245.301,73.4899 L 244.343,73.5944 L 243.41,73.7511 L 242.465,73.9775 L 241.544,74.2039 L 240.647,74.4825 L 239.75,74.8133 L 238.878,75.179 L 238.03,75.6143 L 237.193,76.0497 L 236.394,76.5198 L 235.618,77.0422 L 234.879,77.5995 L 234.164,78.2089 L 233.497,78.8184 L 232.843,79.4627 L 232.249,80.1766 L 231.679,80.8732 L 231.146,81.6045 L 230.661,82.3707 L 230.213,83.1543 L 229.813,83.9379 L 229.462,84.7564 L 229.147,85.6096 L 228.88,86.4455 L 228.674,87.2987 L 228.504,88.1694 L 228.383,89.0575 L 228.298,89.9281 L 228.286,90.7988 L 228.286,90.7988 L 228.298,91.7043 L 228.383,92.575 L 228.504,93.4631 L 228.674,94.3337 L 228.88,95.187 L 229.147,96.0228 L 229.462,96.8587 L 229.813,97.6945 L 230.213,98.4607 L 230.661,99.2443 L 231.146,100.01 L 231.679,100.759 L 232.249,101.456 L 232.843,102.17 L 233.497,102.814 L 234.164,103.424 L 234.879,104.016 L 235.618,104.573 L 236.394,105.113 L 237.193,105.583 L 238.03,106.018 L 238.878,106.436 L 239.75,106.802 L 240.647,107.133 L 241.544,107.411 L 242.465,107.655 L 243.41,107.847 L 244.343,108.038 L 245.301,108.143 L 246.258,108.195 L 247.215,108.212 L 247.215,108.212 L 248.173,108.195 L 249.13,108.143 L 250.088,108.038 L 251.033,107.847 L 251.966,107.655 L 252.887,107.411 L 253.784,107.133 L 254.681,106.802 L 255.553,106.436 L 256.401,106.018 L 257.238,105.583 L 258.037,105.113 L 258.813,104.573 L 259.552,104.016 L 260.267,103.424 L 260.934,102.814 L 261.588,102.17 L 262.182,101.456 L 262.764,100.759 L 263.273,100.01 L 263.769,99.2443 L 264.218,98.4607 L 264.618,97.6945 L 264.969,96.8587 L 265.284,96.0228 L 265.539,95.187 L 265.757,94.3337 L 265.914,93.4631 L 266.048,92.575 L 266.133,91.7043 L 266.145,90.7988z"/>
      <path style="fill: #788e96; fill-opacity: 1; stroke: none" fill-rule="evenodd" d="M 311.589 99.8015 L 311.565,98.7567 L 311.444,97.7119 L 311.274,96.6845 L 311.02,95.6397 L 310.681,94.6472 L 310.305,93.6198 L 309.844,92.6272 L 309.311,91.6521 L 308.705,90.6943 L 308.051,89.7714 L 307.324,88.8833 L 306.536,88.0127 L 305.688,87.1594 L 304.779,86.341 L 303.821,85.5748 L 302.803,84.826 L 301.749,84.1295 L 300.634,83.4678 L 299.471,82.8409 L 298.283,82.2663 L 297.047,81.7439 L 295.787,81.2737 L 294.478,80.8384 L 293.145,80.4378 L 291.788,80.0896 L 290.406,79.811 L 289.025,79.5672 L 287.607,79.3756 L 286.189,79.2537 L 284.759,79.1667 L 283.329,79.1493 L 283.329,79.1493 L 281.899,79.1667 L 280.457,79.2537 L 279.051,79.3756 L 277.633,79.5672 L 276.252,79.811 L 274.858,80.0896 L 273.513,80.4378 L 272.18,80.8384 L 270.871,81.2737 L 269.611,81.7439 L 268.375,82.2663 L 267.175,82.8409 L 266.024,83.4678 L 264.909,84.1295 L 263.854,84.826 L 262.836,85.5748 L 261.879,86.341 L 260.97,87.1594 L 260.122,88.0127 L 259.334,88.8833 L 258.607,89.7714 L 257.953,90.6943 L 257.347,91.6521 L 256.813,92.6272 L 256.353,93.6198 L 255.965,94.6472 L 255.638,95.6397 L 255.383,96.6845 L 255.202,97.7119 L 255.093,98.7567 L 255.056,99.8015 L 255.056,99.8015 L 255.093,100.864 L 255.202,101.891 L 255.383,102.936 L 255.638,103.963 L 255.965,104.991 L 256.353,105.983 L 256.813,106.976 L 257.347,107.951 L 257.953,108.909 L 258.607,109.832 L 259.334,110.755 L 260.122,111.625 L 260.97,112.444 L 261.879,113.262 L 262.836,114.046 L 263.854,114.794 L 264.909,115.491 L 266.024,116.153 L 267.175,116.762 L 268.375,117.337 L 269.611,117.877 L 270.871,118.347 L 272.18,118.817 L 273.513,119.165 L 274.858,119.513 L 276.252,119.81 L 277.633,120.036 L 279.051,120.227 L 280.457,120.349 L 281.899,120.454 L 283.329,120.471 L 283.329,120.471 L 284.759,120.454 L 286.189,120.349 L 287.607,120.227 L 289.025,120.036 L 290.406,119.81 L 291.788,119.513 L 293.145,119.165 L 294.478,118.817 L 295.787,118.347 L 297.047,117.877 L 298.283,117.337 L 299.471,116.762 L 300.634,116.153 L 301.749,115.491 L 302.803,114.794 L 303.821,114.046 L 304.779,113.262 L 305.688,112.444 L 306.536,111.625 L 307.324,110.755 L 308.051,109.832 L 308.705,108.909 L 309.311,107.951 L 309.844,106.976 L 310.305,105.983 L 310.681,104.991 L 311.02,103.963 L 311.274,102.936 L 311.444,101.891 L 311.565,100.864 L 311.589,99.8015z"/>
      <path style="fill: #788e96; fill-opacity: 1; stroke: none" fill-rule="evenodd" d="M 327.295 52.1585 L 327.271,51.3923 L 327.198,50.6087 L 327.089,49.8251 L 326.919,49.0589 L 326.713,48.2927 L 326.459,47.5265 L 326.168,46.7778 L 325.829,46.0638 L 325.441,45.3499 L 325.017,44.6533 L 324.544,43.9742 L 324.047,43.3299 L 323.502,42.6856 L 322.92,42.0762 L 322.302,41.5015 L 321.66,40.9443 L 320.969,40.4045 L 320.266,39.9169 L 319.515,39.4642 L 318.752,39.0288 L 317.952,38.6283 L 317.14,38.28 L 316.316,37.9492 L 315.455,37.6532 L 314.583,37.4094 L 313.71,37.183 L 312.801,36.9914 L 311.892,36.8521 L 310.983,36.7477 L 310.075,36.6954 L 309.166,36.678 L 309.166,36.678 L 308.245,36.6954 L 307.336,36.7477 L 306.415,36.8521 L 305.518,36.9914 L 304.621,37.183 L 303.737,37.4094 L 302.864,37.6532 L 302.016,37.9492 L 301.18,38.28 L 300.368,38.6283 L 299.568,39.0288 L 298.792,39.4642 L 298.065,39.9169 L 297.35,40.4045 L 296.671,40.9443 L 296.029,41.5015 L 295.411,42.0762 L 294.829,42.6856 L 294.284,43.3299 L 293.787,43.9742 L 293.315,44.6533 L 292.878,45.3499 L 292.503,46.0638 L 292.163,46.7778 L 291.86,47.5265 L 291.618,48.2927 L 291.412,49.0589 L 291.242,49.8251 L 291.121,50.6087 L 291.061,51.3923 L 291.036,52.1585 L 291.036,52.1585 L 291.061,52.9595 L 291.121,53.7257 L 291.242,54.5093 L 291.412,55.2755 L 291.618,56.0417 L 291.86,56.7905 L 292.163,57.5392 L 292.503,58.2706 L 292.878,58.9846 L 293.315,59.6811 L 293.787,60.3602 L 294.284,61.0219 L 294.829,61.6314 L 295.411,62.2583 L 296.029,62.8329 L 296.671,63.4076 L 297.35,63.9125 L 298.065,64.4001 L 298.792,64.8703 L 299.568,65.3056 L 300.368,65.7061 L 301.18,66.0718 L 302.016,66.3852 L 302.864,66.6813 L 303.737,66.9425 L 304.621,67.1514 L 305.518,67.343 L 306.415,67.4823 L 307.336,67.5694 L 308.245,67.6216 L 309.166,67.6564 L 309.166,67.6564 L 310.075,67.6216 L 310.983,67.5694 L 311.892,67.4823 L 312.801,67.343 L 313.71,67.1514 L 314.583,66.9425 L 315.455,66.6813 L 316.316,66.3852 L 317.14,66.0718 L 317.952,65.7061 L 318.752,65.3056 L 319.515,64.8703 L 320.266,64.4001 L 320.969,63.9125 L 321.66,63.4076 L 322.302,62.8329 L 322.92,62.2583 L 323.502,61.6314 L 324.047,61.0219 L 324.544,60.3602 L 325.017,59.6811 L 325.441,58.9846 L 325.829,58.2706 L 326.168,57.5392 L 326.459,56.7905 L 326.713,56.0417 L 326.919,55.2755 L 327.089,54.5093 L 327.198,53.7257 L 327.271,52.9595 L 327.295,52.1585z"/>
      <path style="fill: #788e96; fill-opacity: 1; stroke: none" fill-rule="evenodd" d="M 332.421 72.062 L 332.409,71.2784 L 332.349,70.4948 L 332.227,69.7286 L 332.07,68.9624 L 331.864,68.1962 L 331.609,67.4475 L 331.318,66.6813 L 330.979,65.9499 L 330.591,65.236 L 330.179,64.5394 L 329.695,63.8603 L 329.21,63.1986 L 328.665,62.5717 L 328.095,61.9622 L 327.489,61.3702 L 326.847,60.8304 L 326.168,60.2906 L 325.453,59.8204 L 324.726,59.3328 L 323.962,58.8975 L 323.175,58.5144 L 322.375,58.1487 L 321.539,57.8179 L 320.703,57.5392 L 319.842,57.2606 L 318.958,57.0517 L 318.073,56.8775 L 317.176,56.7382 L 316.267,56.6337 L 315.358,56.5815 L 314.449,56.5641 L 314.449,56.5641 L 313.541,56.5815 L 312.632,56.6337 L 311.723,56.7382 L 310.826,56.8775 L 309.929,57.0517 L 309.069,57.2606 L 308.208,57.5392 L 307.348,57.8179 L 306.536,58.1487 L 305.724,58.5144 L 304.924,58.8975 L 304.173,59.3328 L 303.446,59.8204 L 302.731,60.2906 L 302.052,60.8304 L 301.422,61.3702 L 300.804,61.9622 L 300.234,62.5717 L 299.689,63.1986 L 299.192,63.8603 L 298.719,64.5394 L 298.307,65.236 L 297.932,65.9499 L 297.58,66.6813 L 297.277,67.4475 L 297.035,68.1962 L 296.817,68.9624 L 296.671,69.7286 L 296.562,70.4948 L 296.49,71.2784 L 296.465,72.062 L 296.465,72.062 L 296.49,72.8456 L 296.562,73.6118 L 296.671,74.4128 L 296.817,75.179 L 297.035,75.9452 L 297.277,76.694 L 297.58,77.4602 L 297.932,78.1741 L 298.307,78.8881 L 298.719,79.5846 L 299.192,80.2463 L 299.689,80.908 L 300.234,81.5349 L 300.804,82.1444 L 301.422,82.7364 L 302.052,83.2936 L 302.731,83.816 L 303.446,84.321 L 304.173,84.7738 L 304.924,85.2091 L 305.724,85.627 L 306.536,85.9753 L 307.348,86.2887 L 308.208,86.6022 L 309.069,86.846 L 309.929,87.0549 L 310.826,87.2465 L 311.723,87.3858 L 312.632,87.4729 L 313.541,87.5251 L 314.449,87.5773 L 314.449,87.5773 L 315.358,87.5251 L 316.267,87.4729 L 317.176,87.3858 L 318.073,87.2465 L 318.958,87.0549 L 319.842,86.846 L 320.703,86.6022 L 321.539,86.2887 L 322.375,85.9753 L 323.175,85.627 L 323.962,85.2091 L 324.726,84.7738 L 325.453,84.321 L 326.168,83.816 L 326.847,83.2936 L 327.489,82.7364 L 328.095,82.1444 L 328.665,81.5349 L 329.21,80.908 L 329.695,80.2463 L 330.179,79.5846 L 330.591,78.8881 L 330.979,78.1741 L 331.318,77.4602 L 331.609,76.694 L 331.864,75.9452 L 332.07,75.179 L 332.227,74.4128 L 332.349,73.6118 L 332.409,72.8456 L 332.421,72.062z"/>
      <path style="fill: #788e96; fill-opacity: 1; stroke: none" fill-rule="evenodd" d="M 328.919 88.5002 L 328.895,87.2117 L 328.834,85.9405 L 328.713,84.6519 L 328.555,83.3807 L 328.349,82.1444 L 328.095,80.8906 L 327.804,79.6717 L 327.477,78.4875 L 327.089,77.3034 L 326.665,76.1542 L 326.217,75.0571 L 325.72,73.9775 L 325.186,72.9327 L 324.617,71.9401 L 324.011,70.9824 L 323.369,70.0769 L 322.702,69.2062 L 321.999,68.3878 L 321.272,67.6216 L 320.509,66.9251 L 319.733,66.2808 L 318.933,65.6713 L 318.109,65.1489 L 317.261,64.6613 L 316.413,64.226 L 315.528,63.8777 L 314.655,63.5991 L 313.771,63.3727 L 312.874,63.1986 L 311.965,63.1115 L 311.056,63.0941 L 311.056,63.0941 L 310.147,63.1115 L 309.263,63.1986 L 308.366,63.3727 L 307.469,63.5991 L 306.597,63.8777 L 305.712,64.226 L 304.851,64.6613 L 304.015,65.1489 L 303.203,65.6713 L 302.404,66.2808 L 301.628,66.9251 L 300.864,67.6216 L 300.137,68.3878 L 299.434,69.2062 L 298.768,70.0769 L 298.114,70.9824 L 297.508,71.9401 L 296.95,72.9327 L 296.417,73.9775 L 295.908,75.0571 L 295.46,76.1542 L 295.035,77.3034 L 294.66,78.4875 L 294.32,79.6717 L 294.017,80.8906 L 293.787,82.1444 L 293.569,83.3807 L 293.412,84.6519 L 293.302,85.9405 L 293.23,87.2117 L 293.206,88.5002 L 293.206,88.5002 L 293.23,89.8063 L 293.302,91.0774 L 293.412,92.366 L 293.569,93.6372 L 293.787,94.891 L 294.017,96.1273 L 294.32,97.3637 L 294.66,98.5304 L 295.035,99.6971 L 295.46,100.864 L 295.908,101.961 L 296.417,103.04 L 296.95,104.085 L 297.508,105.095 L 298.114,106.036 L 298.768,106.958 L 299.434,107.829 L 300.137,108.63 L 300.864,109.379 L 301.628,110.11 L 302.404,110.755 L 303.203,111.347 L 304.015,111.886 L 304.851,112.357 L 305.712,112.775 L 306.597,113.123 L 307.469,113.419 L 308.366,113.645 L 309.263,113.819 L 310.147,113.924 L 311.056,113.941 L 311.056,113.941 L 311.965,113.924 L 312.874,113.819 L 313.771,113.645 L 314.655,113.419 L 315.528,113.123 L 316.413,112.775 L 317.261,112.357 L 318.109,111.886 L 318.933,111.347 L 319.733,110.755 L 320.509,110.11 L 321.272,109.379 L 321.999,108.63 L 322.702,107.829 L 323.369,106.958 L 324.011,106.036 L 324.617,105.095 L 325.186,104.085 L 325.72,103.04 L 326.217,101.961 L 326.665,100.864 L 327.089,99.6971 L 327.477,98.5304 L 327.804,97.3637 L 328.095,96.1273 L 328.349,94.891 L 328.555,93.6372 L 328.713,92.366 L 328.834,91.0774 L 328.895,89.8063 L 328.919,88.5002z"/>
      <path style="fill: #788e96; fill-opacity: 1; stroke: none" fill-rule="evenodd" d="M 313.48 73.2113 L 313.444,71.9227 L 313.31,70.6341 L 313.08,69.3455 L 312.753,68.0918 L 312.341,66.8206 L 311.82,65.6016 L 311.238,64.3653 L 310.559,63.1986 L 309.772,62.0145 L 308.935,60.8652 L 308.002,59.7507 L 306.996,58.6711 L 305.906,57.6437 L 304.742,56.6337 L 303.518,55.6934 L 302.222,54.7705 L 300.84,53.8998 L 299.434,53.0814 L 297.956,52.3326 L 296.417,51.6187 L 294.829,50.9744 L 293.206,50.3823 L 291.521,49.8251 L 289.837,49.3724 L 288.091,48.937 L 286.322,48.6062 L 284.541,48.2927 L 282.735,48.0664 L 280.905,47.8922 L 279.075,47.8052 L 277.245,47.7703 L 277.245,47.7703 L 275.391,47.8052 L 273.573,47.8922 L 271.756,48.0664 L 269.938,48.2927 L 268.156,48.6062 L 266.399,48.937 L 264.654,49.3724 L 262.945,49.8251 L 261.285,50.3823 L 259.649,50.9744 L 258.062,51.6187 L 256.535,52.3326 L 255.056,53.0814 L 253.626,53.8998 L 252.269,54.7705 L 250.972,55.6934 L 249.736,56.6337 L 248.573,57.6437 L 247.494,58.6711 L 246.476,59.7507 L 245.555,60.8652 L 244.695,62.0145 L 243.931,63.1986 L 243.253,64.3653 L 242.659,65.6016 L 242.15,66.8206 L 241.738,68.0918 L 241.411,69.3455 L 241.18,70.6341 L 241.035,71.9227 L 240.999,73.2113 L 240.999,73.2113 L 241.035,74.5173 L 241.18,75.7711 L 241.411,77.0597 L 241.738,78.3308 L 242.15,79.5846 L 242.659,80.8384 L 243.253,82.0399 L 243.931,83.2414 L 244.695,84.4255 L 245.555,85.5574 L 246.476,86.6544 L 247.494,87.7341 L 248.573,88.7789 L 249.736,89.7714 L 250.972,90.7292 L 252.269,91.6347 L 253.626,92.5053 L 255.056,93.3412 L 256.535,94.1074 L 258.062,94.7865 L 259.649,95.4482 L 261.285,96.0577 L 262.945,96.5801 L 264.654,97.0502 L 266.399,97.4856 L 268.156,97.8338 L 269.938,98.1473 L 271.756,98.3562 L 273.573,98.5129 L 275.391,98.6174 L 277.245,98.6348 L 277.245,98.6348 L 279.075,98.6174 L 280.905,98.5129 L 282.735,98.3562 L 284.541,98.1473 L 286.322,97.8338 L 288.091,97.4856 L 289.837,97.0502 L 291.521,96.5801 L 293.206,96.0577 L 294.829,95.4482 L 296.417,94.7865 L 297.956,94.1074 L 299.434,93.3412 L 300.84,92.5053 L 302.222,91.6347 L 303.518,90.7292 L 304.742,89.7714 L 305.906,88.7789 L 306.996,87.7341 L 308.002,86.6544 L 308.935,85.5574 L 309.772,84.4255 L 310.559,83.2414 L 311.238,82.0399 L 311.82,80.8384 L 312.341,79.5846 L 312.753,78.3308 L 313.08,77.0597 L 313.31,75.7711 L 313.444,74.5173 L 313.48,73.2113z"/>
      <path style="fill: #788e96; fill-opacity: 1; stroke: none" fill-rule="evenodd" d="M 283.474 45.0887 L 307.481,40.7005 L 307.178,39.7254 L 306.815,38.7676 L 306.391,37.8447 L 305.906,36.887 L 305.36,35.9815 L 304.755,35.1108 L 304.088,34.2401 L 303.409,33.4217 L 302.646,32.6207 L 301.846,31.8545 L 300.986,31.1057 L 300.101,30.444 L 299.156,29.7823 L 298.174,29.138 L 297.156,28.546 L 296.102,28.041 L 295.023,27.5186 L 293.908,27.0832 L 292.757,26.6827 L 291.594,26.317 L 290.406,26.0036 L 289.206,25.7598 L 287.995,25.5334 L 286.771,25.3767 L 285.522,25.2722 L 284.286,25.22 L 283.038,25.22 L 281.79,25.2374 L 280.542,25.3419 L 279.318,25.4812 L 278.106,25.6727 L 276.894,25.9339 L 275.694,26.2126 L 274.531,26.5608 L 273.392,26.9613 L 272.265,27.3967 L 271.15,27.8494 L 270.107,28.3892 L 269.077,28.9465 L 268.084,29.5733 L 267.126,30.2176 L 266.217,30.8968 L 265.357,31.6281 L 264.533,32.3943 L 263.769,33.1605 L 263.042,33.9963 L 262.364,34.8322 L 261.746,35.7203 L 261.2,36.6084 L 260.703,37.5313 L 260.255,38.489 L 259.879,39.4293 L 259.552,40.4045 L 259.286,41.3796 L 283.474,45.0887z"/>
      <path style="fill: none; stroke-opacity: 1; stroke-width: 0.02; stroke: #364749" d="M 307.469 40.6657 L 307.166,39.6905 L 306.803,38.7328 L 306.366,37.7751 L 305.882,36.8696 L 305.336,35.9466 L 304.742,35.076 L 304.088,34.2401 L 303.373,33.3869 L 302.622,32.6207 L 301.822,31.8545 L 300.961,31.0883 L 300.077,30.3918 L 299.132,29.7301 L 298.15,29.138 L 297.12,28.5285 L 296.09,28.0061 L 294.999,27.5186 L 293.872,27.0658 L 292.733,26.6479 L 291.594,26.2996 L 290.382,26.0036 L 289.194,25.7598 L 287.982,25.5334 L 286.746,25.3767 L 285.51,25.2722 L 284.274,25.22 L 283.026,25.22 L 281.79,25.2374 L 280.542,25.3419 L 279.318,25.4812 L 278.106,25.6727 L 276.894,25.9165 L 275.694,26.2126 L 274.531,26.5608 L 273.392,26.9613 L 272.265,27.3967 L 271.174,27.8494 L 270.12,28.3718 L 269.077,28.9465 L 268.096,29.5733 L 267.151,30.2176 L 266.242,30.8794 L 265.369,31.5933 L 264.557,32.3421 L 263.769,33.1605 L 263.042,33.9789 L 262.4,34.8148 L 261.758,35.6854 L 261.212,36.5909 L 260.716,37.5139 L 260.267,38.4368 L 259.879,39.3945 L 259.552,40.3696 L 259.298,41.3448"/>
      <path style="fill: #788e96; fill-opacity: 1; stroke: none" fill-rule="evenodd" d="M 250.863 55.4148 L 262.945,40.1781 L 262.194,39.5512 L 261.431,38.9592 L 260.619,38.4193 L 259.795,37.9144 L 258.946,37.4442 L 258.074,37.0437 L 257.189,36.678 L 256.28,36.3646 L 255.371,36.1034 L 254.438,35.8944 L 253.505,35.7203 L 252.56,35.5984 L 251.602,35.5461 L 250.657,35.5113 L 249.7,35.5461 L 248.755,35.668 L 247.809,35.7725 L 246.876,35.9815 L 245.955,36.2078 L 245.034,36.5039 L 244.137,36.8521 L 243.265,37.2178 L 242.404,37.6532 L 241.568,38.1233 L 240.744,38.6457 L 239.956,39.2029 L 239.193,39.8124 L 238.466,40.4567 L 237.763,41.1358 L 237.096,41.8672 L 236.466,42.6334 L 235.872,43.3996 L 235.315,44.218 L 234.806,45.0538 L 234.333,45.9419 L 233.897,46.83 L 233.509,47.7529 L 233.17,48.6932 L 232.867,49.651 L 232.613,50.6261 L 232.407,51.6013 L 232.249,52.5938 L 232.14,53.6212 L 232.079,54.5964 L 232.067,55.6064 L 232.104,56.6163 L 232.176,57.6089 L 232.31,58.6189 L 250.863,55.4148z"/>
      <path style="fill: none; stroke-opacity: 1; stroke-width: 0.02; stroke: #364749" d="M 262.885 40.1259 L 262.133,39.499 L 261.358,38.9243 L 260.57,38.3845 L 259.734,37.8795 L 258.886,37.4268 L 258.013,37.0263 L 257.128,36.6606 L 256.22,36.3472 L 255.311,36.1034 L 254.378,35.877 L 253.444,35.7029 L 252.499,35.5984 L 251.542,35.5461 L 250.597,35.5113 L 249.651,35.5636 L 248.694,35.668 L 247.749,35.7899 L 246.816,35.9815 L 245.895,36.2253 L 244.986,36.5387 L 244.089,36.8521 L 243.204,37.2527 L 242.368,37.6706 L 241.52,38.1581 L 240.708,38.6805 L 239.92,39.2552 L 239.157,39.8472 L 238.442,40.4741 L 237.739,41.1707 L 237.072,41.902 L 236.442,42.6508 L 235.848,43.4344 L 235.303,44.2528 L 234.782,45.0887 L 234.321,45.9942 L 233.885,46.8648 L 233.497,47.7877 L 233.158,48.7281 L 232.855,49.7032 L 232.613,50.6435 L 232.394,51.6535 L 232.249,52.6461 L 232.14,53.6386 L 232.079,54.6138 L 232.067,55.6412 L 232.104,56.6337 L 232.188,57.6437 L 232.31,58.6363"/>
      <path style="fill: #788e96; fill-opacity: 1; stroke: none" fill-rule="evenodd" d="M 247.482 90.9904 L 228.02,90.468 L 228.02,91.356 L 228.056,92.2615 L 228.153,93.167 L 228.286,94.0551 L 228.48,94.9432 L 228.723,95.8139 L 229.013,96.6845 L 229.341,97.5378 L 229.716,98.3562 L 230.14,99.1747 L 230.613,99.9931 L 231.122,100.759 L 231.679,101.508 L 232.261,102.205 L 232.903,102.919 L 233.57,103.58 L 234.273,104.19 L 235,104.782 L 235.776,105.356 L 236.563,105.861 L 237.399,106.349 L 238.236,106.837 L 239.108,107.22 L 240.017,107.603 L 240.926,107.934 L 241.847,108.195 L 242.792,108.439 L 243.75,108.63 L 244.719,108.769 L 245.689,108.909 L 246.67,108.944 L 247.652,108.961 L 248.621,108.926 L 249.603,108.856 L 250.572,108.735 L 251.542,108.595 L 252.487,108.369 L 253.42,108.108 L 254.353,107.829 L 255.262,107.463 L 256.147,107.08 L 257.019,106.662 L 257.856,106.21 L 258.668,105.705 L 259.455,105.165 L 260.219,104.59 L 247.482,90.9904z"/>
      <path style="fill: none; stroke-opacity: 1; stroke-width: 0.02; stroke: #364749" d="M 228.02 90.468 L 228.008,91.356 L 228.056,92.2615 L 228.153,93.1322 L 228.298,94.0377 L 228.48,94.9258 L 228.723,95.8139 L 229.001,96.6845 L 229.341,97.5204 L 229.716,98.3562 L 230.14,99.1572 L 230.613,99.9757 L 231.098,100.742 L 231.655,101.473 L 232.249,102.205 L 232.879,102.866 L 233.534,103.545 L 234.249,104.172 L 234.964,104.782 L 235.739,105.339 L 236.539,105.861 L 237.351,106.349 L 238.199,106.784 L 239.072,107.202 L 239.969,107.568 L 240.877,107.899 L 241.798,108.177 L 242.744,108.439 L 243.701,108.613 L 244.658,108.769 L 245.628,108.874 L 246.61,108.944 L 247.591,108.961 L 248.561,108.944 L 249.53,108.856 L 250.5,108.752 L 251.469,108.595 L 252.414,108.369 L 253.36,108.143 L 254.293,107.829 L 255.19,107.498 L 256.074,107.115 L 256.947,106.697 L 257.771,106.227 L 258.595,105.757 L 259.383,105.217 L 260.146,104.66"/>
      <path style="fill: #788e96; fill-opacity: 1; stroke: none" fill-rule="evenodd" d="M 309.432 52.1585 L 326.568,57.2084 L 326.847,56.4596 L 327.077,55.6934 L 327.271,54.9272 L 327.404,54.161 L 327.501,53.3949 L 327.55,52.5764 L 327.55,51.7928 L 327.501,51.0092 L 327.416,50.243 L 327.271,49.4768 L 327.089,48.6758 L 326.871,47.9271 L 326.592,47.1609 L 326.277,46.4295 L 325.914,45.7156 L 325.502,45.019 L 325.053,44.3051 L 324.568,43.6434 L 324.047,42.9991 L 323.478,42.3722 L 322.884,41.7801 L 322.254,41.2229 L 321.575,40.6657 L 320.884,40.1607 L 320.157,39.6905 L 319.394,39.2552 L 318.618,38.8199 L 317.806,38.4368 L 316.97,38.0885 L 316.134,37.7751 L 315.286,37.5139 L 314.389,37.2875 L 313.504,37.0785 L 312.607,36.9218 L 311.698,36.7999 L 310.79,36.7477 L 309.869,36.678 L 308.935,36.6954 L 308.027,36.7477 L 307.106,36.8173 L 306.209,36.9218 L 305.3,37.0959 L 304.415,37.2875 L 303.531,37.5313 L 309.432,52.1585z"/>
      <path style="fill: none; stroke-opacity: 1; stroke-width: 0.02; stroke: #364749" d="M 324.92 60.0468 L 326.556,57.2432 L 326.835,56.477 L 327.077,55.7283 L 327.259,54.9621 L 327.404,54.1785 L 327.501,53.4123 L 327.55,52.6461 L 327.562,51.8277 L 327.501,51.0441 L 327.416,50.2604 L 327.271,49.4768 L 327.113,48.7281 L 326.871,47.9619 L 326.592,47.2131 L 326.289,46.4643 L 325.926,45.733 L 325.526,45.0364 L 325.077,44.3399 L 324.593,43.6782 L 324.072,43.0339 L 323.514,42.407 L 322.92,41.815 L 322.29,41.2403 L 321.624,40.7005 L 320.909,40.1781 L 320.194,39.6905 L 319.43,39.2552 L 318.667,38.8373 L 317.855,38.4542 L 317.043,38.1059 L 316.194,37.7925 L 315.334,37.5139 L 314.449,37.2875 L 313.565,37.0785 L 312.656,36.9218 L 311.747,36.8173 L 310.826,36.7477 L 309.905,36.678 L 308.984,36.678 L 308.087,36.7477 L 307.166,36.8173 L 306.245,36.9218 L 305.348,37.0785 L 304.464,37.2875 L 303.567,37.5139"/>
      <path style="fill: #788e96; fill-opacity: 1; stroke: none" fill-rule="evenodd" d="M 311.868 72.6367 L 331.137,78.9925 L 331.537,78.1741 L 331.876,77.3557 L 332.155,76.485 L 332.373,75.6143 L 332.542,74.7437 L 332.652,73.8556 L 332.7,72.9501 L 332.688,72.0794 L 332.627,71.1913 L 332.506,70.3033 L 332.324,69.4326 L 332.082,68.5793 L 331.791,67.7087 L 331.44,66.8902 L 331.04,66.0544 L 330.591,65.2708 L 330.082,64.4524 L 329.525,63.7036 L 328.919,62.9722 L 311.868,72.6367z"/>
      <path style="fill: none; stroke-opacity: 1; stroke-width: 0.02; stroke: #364749" d="M 328.64 81.9006 L 331.125,79.0448 L 331.512,78.2263 L 331.864,77.3557 L 332.143,76.5024 L 332.373,75.6143 L 332.542,74.7437 L 332.652,73.873 L 332.7,72.9501 L 332.7,72.0794 L 332.615,71.1739 L 332.494,70.3033 L 332.324,69.4152 L 332.082,68.5445 L 331.779,67.6912 L 331.44,66.838 L 331.016,66.0196 L 330.567,65.2011 L 330.034,64.4175 L 329.489,63.6513 L 328.871,62.9026 L 324.92,60.0468"/>
      <path style="fill: #788e96; fill-opacity: 1; stroke: none" fill-rule="evenodd" d="M 311.056 89.458 L 304.985,113.628 L 305.882,114.028 L 306.778,114.359 L 307.699,114.638 L 308.62,114.847 L 309.541,115.003 L 310.487,115.056 L 311.42,115.073 L 312.353,115.003 L 313.298,114.899 L 314.219,114.69 L 315.14,114.429 L 316.049,114.098 L 316.934,113.732 L 317.806,113.262 L 318.679,112.757 L 319.527,112.2 L 320.351,111.573 L 321.139,110.876 L 321.914,110.128 L 322.654,109.344 L 323.369,108.491 L 324.047,107.603 L 324.69,106.645 L 325.296,105.652 L 325.877,104.625 L 326.41,103.545 L 326.895,102.448 L 327.356,101.299 L 327.768,100.132 L 328.143,98.9309 L 328.458,97.7119 L 328.749,96.4582 L 328.98,95.2044 L 329.161,93.9158 L 329.307,92.6272 L 329.392,91.3212 L 329.44,90.0152 L 329.44,88.7092 L 329.38,87.4032 L 329.283,86.1146 L 329.137,84.826 L 328.955,83.5548 L 328.713,82.2837 L 311.056,89.458z"/>
      <path style="fill: none; stroke-opacity: 1; stroke-width: 0.02; stroke: #364749" d="M 305.033 113.663 L 305.906,114.046 L 306.815,114.394 L 307.748,114.673 L 308.681,114.864 L 309.602,115.003 L 310.535,115.073 L 311.48,115.108 L 312.401,115.003 L 313.334,114.899 L 314.268,114.69 L 315.189,114.429 L 316.085,114.098 L 316.97,113.697 L 317.867,113.262 L 318.715,112.74 L 319.563,112.182 L 320.388,111.538 L 321.175,110.859 L 321.939,110.11 L 322.69,109.292 L 323.393,108.439 L 324.072,107.55 L 324.714,106.628 L 325.332,105.6 L 325.914,104.573 L 326.435,103.511 L 326.932,102.379 L 327.38,101.247 L 327.792,100.098 L 328.156,98.896 L 328.483,97.6423 L 328.761,96.3885 L 328.98,95.1347 L 329.161,93.881 L 329.307,92.575 L 329.392,91.2864 L 329.44,89.9804 L 329.44,88.657 L 329.38,87.3684 L 329.283,86.0624 L 329.137,84.7564 L 328.931,83.4852 L 328.701,82.2488"/>
      <path style="fill: #788e96; fill-opacity: 1; stroke: none" fill-rule="evenodd" d="M 233.958 75.684 L 233.025,59.298 L 232.358,59.3851 L 231.692,59.4895 L 231.025,59.6637 L 230.371,59.8726 L 229.728,60.1164 L 229.098,60.395 L 228.468,60.7259 L 227.862,61.0916 L 227.28,61.4921 L 226.699,61.9448 L 226.141,62.4324 L 225.608,62.9374 L 225.087,63.4772 L 224.602,64.0693 L 224.142,64.6613 L 223.705,65.2882 L 223.281,65.9499 L 222.906,66.6464 L 222.542,67.343 L 222.215,68.0918 L 221.924,68.8579 L 221.657,69.6241 L 221.415,70.3903 L 221.221,71.1913 L 221.051,72.0098 L 220.918,72.8282 L 220.809,73.6466 L 220.748,74.4825 L 220.712,75.3183 L 220.724,76.1542 L 220.748,76.99 L 220.821,77.8258 L 220.93,78.6617 L 221.064,79.4801 L 221.233,80.2985 L 221.439,81.0821 L 221.682,81.8657 L 221.948,82.6319 L 222.251,83.3807 L 222.578,84.1295 L 222.942,84.826 L 223.33,85.5051 L 223.742,86.1669 L 224.19,86.8111 L 224.663,87.4032 L 225.16,87.9778 L 225.669,88.5177 L 226.214,89.0226 L 226.771,89.4928 L 227.341,89.963 L 227.935,90.3287 L 233.958,75.684z"/>
      <path style="fill: none; stroke-opacity: 1; stroke-width: 0.02; stroke: #364749" d="M 233.037 59.298 L 232.382,59.3851 L 231.716,59.4895 L 231.074,59.6463 L 230.431,59.8552 L 229.801,60.0816 L 229.171,60.3602 L 228.553,60.6911 L 227.959,61.0393 L 227.377,61.4224 L 226.808,61.8578 L 226.262,62.3279 L 225.729,62.8155 L 225.22,63.3379 L 224.723,63.8951 L 224.263,64.5046 L 223.827,65.0967 L 223.415,65.741 L 223.015,66.4201 L 222.663,67.1166 L 222.336,67.8131 L 222.033,68.5445 L 221.754,69.2933 L 221.5,70.0595 L 221.294,70.8257 L 221.112,71.6267 L 220.967,72.4451 L 220.845,73.2461 L 220.773,74.0471 L 220.724,74.883 L 220.712,75.7188 L 220.724,76.5198 L 220.785,77.3557 L 220.858,78.1741 L 220.967,78.9751 L 221.124,79.7761 L 221.294,80.5597 L 221.512,81.3433 L 221.766,82.1269 L 222.033,82.8583 L 222.336,83.6071 L 222.675,84.321 L 223.039,85.0002 L 223.427,85.6793 L 223.827,86.3062 L 224.275,86.933 L 224.748,87.5077 L 225.232,88.0649 L 225.741,88.5873 L 226.275,89.0923 L 226.82,89.545 L 227.389,89.9804 L 227.971,90.3983"/>
      <path style="fill: #788e96; fill-opacity: 1; stroke: none" fill-rule="evenodd" d="M 283.062 102.083 L 255.48,103.981 L 255.65,104.938 L 255.892,105.896 L 256.207,106.837 L 256.583,107.742 L 257.032,108.682 L 257.553,109.57 L 258.122,110.441 L 258.764,111.294 L 259.467,112.113 L 260.219,112.949 L 261.043,113.697 L 261.903,114.464 L 262.848,115.178 L 263.83,115.874 L 264.86,116.518 L 265.914,117.11 L 267.054,117.685 L 268.217,118.225 L 269.405,118.712 L 270.616,119.165 L 271.889,119.583 L 273.186,119.949 L 274.507,120.262 L 275.84,120.558 L 277.197,120.785 L 278.566,120.959 L 279.936,121.098 L 281.341,121.168 L 282.723,121.22 L 284.117,121.203 L 285.51,121.133 L 286.904,121.011 L 288.261,120.889 L 289.631,120.663 L 290.988,120.402 L 292.309,120.123 L 293.618,119.757 L 294.89,119.374 L 296.138,118.939 L 297.35,118.486 L 298.526,117.946 L 299.665,117.406 L 300.755,116.797 L 301.81,116.17 L 302.803,115.491 L 303.761,114.794 L 304.67,114.063 L 305.518,113.297 L 306.294,112.513 L 307.033,111.677 L 307.699,110.859 L 308.317,110.006 L 308.851,109.118 L 309.323,108.195 L 283.062,102.083z"/>
      <path style="fill: none; stroke-opacity: 1; stroke-width: 0.02; stroke: #364749" d="M 255.48 104.016 L 255.65,104.956 L 255.892,105.896 L 256.207,106.854 L 256.583,107.777 L 257.032,108.7 L 257.553,109.57 L 258.134,110.441 L 258.764,111.312 L 259.467,112.113 L 260.219,112.949 L 261.043,113.697 L 261.903,114.464 L 262.861,115.178 L 263.818,115.874 L 264.86,116.518 L 265.914,117.11 L 267.054,117.685 L 268.193,118.225 L 269.405,118.712 L 270.616,119.165 L 271.877,119.583 L 273.161,119.949 L 274.482,120.262 L 275.815,120.523 L 277.185,120.785 L 278.542,120.941 L 279.924,121.098 L 281.293,121.15 L 282.711,121.22 L 284.092,121.203 L 285.486,121.133 L 286.88,121.011 L 288.249,120.889 L 289.606,120.663 L 290.951,120.402 L 292.272,120.123 L 293.569,119.792 L 294.842,119.374 L 296.102,118.956 L 297.302,118.486 L 298.477,117.964 L 299.628,117.424 L 300.719,116.814 L 301.773,116.205 L 302.779,115.508 L 303.712,114.829 L 304.621,114.081 L 305.457,113.332 L 306.269,112.531 L 306.996,111.747 L 307.675,110.876 L 308.257,110.023 L 308.826,109.135 L 309.311,108.247"/>
    </g>
    <g>
      <polyline style="fill: none; stroke-opacity: 1; stroke-width: 2; stroke: #000000" points="256.044,461.46 256.044,472.58 256.7,472.58 256.7,619.234 "/>
      <polygon style="fill: #000000; fill-opacity: 1; stroke-opacity: 1; stroke-width: 2; stroke: #000000" fill-rule="evenodd" points="256.7,626.734 251.7,616.734 256.7,619.234 261.7,616.734 "/>
    </g>
    <g>
      <polyline style="fill: none; stroke-opacity: 1; stroke-width: 2; stroke: #000000" points="256.044,461.46 256.044,471.97 367.7,471.97 367.7,609.234 "/>
      <polygon style="fill: #000000; fill-opacity: 1; stroke-opacity: 1; stroke-width: 2; stroke: #000000" fill-rule="evenodd" points="367.7,616.734 362.7,606.734 367.7,609.234 372.7,606.734 "/>
    </g>
    <g>
      <polygon style="fill: #ffffff; fill-opacity: 1; stroke-opacity: 1; stroke-width: 2; stroke: #000000" fill-rule="evenodd" points="389.7,224.22 495.8,224.22 507.8,236.22 507.8,290.22 389.7,290.22 "/>
      <polyline style="fill: none; stroke-opacity: 1; stroke-width: 1; stroke: #000000" points="495.8,224.22 495.8,236.22 507.8,236.22 "/>
      <text font-size="12.8" style="fill: #000000; fill-opacity: 1; stroke: none;text-anchor:start;font-family:monospace;font-style:normal;font-weight:normal" x="396.7" y="249.12">
        <tspan x="396.7" y="249.12">ISP Device</tspan>
        <tspan x="396.7" y="265.12">(Bridge-Mode)</tspan>
        <tspan x="396.7" y="281.12">(NO NAT!)</tspan>
      </text>
    </g>
    <g>
      <polyline style="fill: none; stroke-opacity: 1; stroke-width: 2; stroke-dasharray: 8; stroke: #000000" points="389.726,257.22 350.213,257.22 350.213,241.22 309.405,241.22 "/>
      <polyline style="fill: none; stroke-opacity: 1; stroke-width: 2; stroke: #000000" points="322.053,236.22 306.053,241.22 322.053,246.22 "/>
    </g>
    <g>
      <polygon style="fill: #ffffff; fill-opacity: 1; stroke-opacity: 1; stroke-width: 2; stroke: #000000" fill-rule="evenodd" points="411.6,46.32 571.6,46.32 583.6,58.32 583.6,112.32 411.6,112.32 "/>
      <polyline style="fill: none; stroke-opacity: 1; stroke-width: 1; stroke: #000000" points="571.6,46.32 571.6,58.32 583.6,58.32 "/>
      <text font-size="12.8" style="fill: #000000; fill-opacity: 1; stroke: none;text-anchor:start;font-family:monospace;font-style:normal;font-weight:normal" x="418.6" y="71.22">
        <tspan x="418.6" y="71.22">ISP's Network</tspan>
        <tspan x="418.6" y="87.22">(Can be an upstream </tspan>
        <tspan xml:space="preserve" x="418.6" y="103.22"> double NAT or not)</tspan>
      </text>
    </g>
    <g>
      <polyline style="fill: none; stroke-opacity: 1; stroke-width: 2; stroke-dasharray: 8; stroke: #000000" points="411.609,79.32 376.154,79.32 376.154,78.2263 339.405,78.2263 "/>
      <polyline style="fill: none; stroke-opacity: 1; stroke-width: 2; stroke: #000000" points="352.053,73.2263 336.053,78.2263 352.053,83.2263 "/>
    </g>
    <g>
      <polygon style="fill: #ffffff; fill-opacity: 1; stroke-opacity: 1; stroke-width: 2; stroke: #000000" fill-rule="evenodd" points="393.6,412.32 507.4,412.32 519.4,424.32 519.4,462.32 393.6,462.32 "/>
      <polyline style="fill: none; stroke-opacity: 1; stroke-width: 1; stroke: #000000" points="507.4,412.32 507.4,424.32 519.4,424.32 "/>
      <text font-size="12.8" style="fill: #000000; fill-opacity: 1; stroke: none;text-anchor:start;font-family:monospace;font-style:normal;font-weight:normal" x="400.6" y="437.22">
        <tspan x="400.6" y="437.22">OpenWrt Router</tspan>
        <tspan x="400.6" y="453.22">(NAT)</tspan>
      </text>
    </g>
    <g>
      <polyline style="fill: none; stroke-opacity: 1; stroke-width: 2; stroke-dasharray: 8; stroke: #000000" points="393.594,437.32 353.322,437.32 353.322,428.784 311.251,428.784 "/>
      <polyline style="fill: none; stroke-opacity: 1; stroke-width: 2; stroke: #000000" points="323.899,423.784 307.899,428.784 323.899,433.784 "/>
    </g>
    <g>
      <polygon style="fill: #ffffff; fill-opacity: 1; stroke-opacity: 1; stroke-width: 2; stroke: #000000" fill-rule="evenodd" points="479.654,546.32 539.554,546.32 551.554,558.32 551.554,580.32 479.654,580.32 "/>
      <polyline style="fill: none; stroke-opacity: 1; stroke-width: 1; stroke: #000000" points="539.554,546.32 539.554,558.32 551.554,558.32 "/>
      <text font-size="12.8" style="fill: #000000; fill-opacity: 1; stroke: none;text-anchor:start;font-family:monospace;font-style:normal;font-weight:normal" x="486.654" y="571.22">
        <tspan x="486.654" y="571.22">Clients</tspan>
      </text>
    </g>
    <g>
      <polyline style="fill: none; stroke-opacity: 1; stroke-width: 2; stroke-dasharray: 8; stroke: #000000" points="479.686,563.32 439.376,563.32 439.376,562.784 397.305,562.784 "/>
      <polyline style="fill: none; stroke-opacity: 1; stroke-width: 2; stroke: #000000" points="409.953,557.784 393.953,562.784 409.953,567.784 "/>
    </g>
    <g>
      <polyline style="fill: none; stroke-opacity: 1; stroke-width: 2; stroke: #000000" points="595.33,363.932 558.464,363.932 558.464,437.32 529.136,437.32 "/>
      <polygon style="fill: #000000; fill-opacity: 1; stroke-opacity: 1; stroke-width: 2; stroke: #000000" fill-rule="evenodd" points="521.636,437.32 531.636,432.32 529.136,437.32 531.636,442.32 "/>
    </g>
    <g>
      <polygon style="fill: #ffffff; fill-opacity: 1; stroke-opacity: 1; stroke-width: 2; stroke: #000000" fill-rule="evenodd" points="595.33,346.932 678.33,346.932 690.33,358.932 690.33,380.932 595.33,380.932 "/>
      <polyline style="fill: none; stroke-opacity: 1; stroke-width: 1; stroke: #000000" points="678.33,346.932 678.33,358.932 690.33,358.932 "/>
      <text font-size="12.8" style="fill: #000000; fill-opacity: 1; stroke: none;text-anchor:start;font-family:monospace;font-style:normal;font-weight:normal" x="602.33" y="371.832">
        <tspan x="602.33" y="371.832">Single NAT</tspan>
      </text>
    </g>
  </g>
</svg>
